<?xml version="1.0" encoding="UTF-8" standalone="no"?>
<!-- Created with Inkscape (http://www.inkscape.org/) -->

<svg
        xmlns:dc="http://purl.org/dc/elements/1.1/"
        xmlns:cc="http://creativecommons.org/ns#"
        xmlns:rdf="http://www.w3.org/1999/02/22-rdf-syntax-ns#"
        xmlns="http://www.w3.org/2000/svg"
        xmlns:sodipodi="http://sodipodi.sourceforge.net/DTD/sodipodi-0.dtd"
        xmlns:inkscape="http://www.inkscape.org/namespaces/inkscape"
        width="1920"
        height="1080"
        viewBox="0 0 508 285.75001"
        version="1.1"
        id="svg8"
        inkscape:version="0.92.1 r15371"
        sodipodi:docname="Baenas Vetorial.svg"
        inkscape:export-filename="C:\Users\Gabriel\Desktop\Baenas Wallpaper.png"
        inkscape:export-xdpi="96"
        inkscape:export-ydpi="96">
  <defs
     id="defs2">
    <clipPath
       clipPathUnits="userSpaceOnUse"
       id="clipPath4498">
      <path
         style="fill:#ff0000;stroke:#000000;stroke-width:0.26458332px;stroke-linecap:butt;stroke-linejoin:miter;stroke-opacity:1"
         d="m 508,82.309463 c 0.34282,-3.708543 -5.20988,-2.901135 -6.80358,-5.291666 -1.20861,-1.81292 -1.42478,-4.080466 -2.26784,-6.047619 -0.88784,-2.071584 -2.13599,-3.976036 -3.02382,-6.047621 -0.31388,-0.732414 -0.44207,-1.53544 -0.75594,-2.267857 -0.88784,-2.071582 -2.13601,-3.976037 -3.02382,-6.047619 -0.62778,-1.464828 -0.92004,-3.056011 -1.51191,-4.535715 -0.41852,-1.046305 -1.15554,-1.954731 -1.51191,-3.023809 -0.0797,-0.239053 0.0797,-0.516898 0,-0.755951 -0.35634,-1.069078 -1.15554,-1.954731 -1.51191,-3.023809 -0.0797,-0.239054 0.11272,-0.530572 0,-0.755952 -0.15935,-0.318738 -0.59658,-0.437216 -0.75594,-0.755954 -0.11268,-0.22538 0.11269,-0.530569 0,-0.755952 -0.15936,-0.318738 -0.59658,-0.437216 -0.75594,-0.755952 -0.11271,-0.225382 0.11269,-0.530571 0,-0.755954 -0.15938,-0.318735 -0.59658,-0.437213 -0.75597,-0.755952 -0.11268,-0.22538 0.17818,-0.577773 0,-0.755951 -0.17817,-0.178181 -0.57777,0.178178 -0.75594,0 -2.02189,-2.02189 2.0219,0.509984 0,-1.511906 -0.17819,-0.178178 -0.53057,0.112691 -0.75596,0 -0.31872,-0.159369 -0.50396,-0.503968 -0.75594,-0.755952 -0.75597,-0.755952 -1.51191,-1.511905 -2.26785,-2.267857 -0.25199,-0.251984 -0.45945,-0.55828 -0.75597,-0.755952 -0.46882,-0.312548 -1.04307,-0.443405 -1.51191,-0.755953 -0.29649,-0.197672 -0.4372,-0.596584 -0.75594,-0.755952 -0.22537,-0.112691 -0.53057,0.112691 -0.75597,0 -0.75594,-0.503968 -1.51188,-1.007937 -2.26785,-1.511905 0,-0.251984 0.17817,-0.577773 0,-0.755952 -0.17817,-0.17818 -0.522,0.09358 -0.75594,0 -2.58802,1.161184 -2.46557,-1.610763 -3.77976,-2.267857 -0.53517,-2.304945 -2.09455,-0.291317 -3.02381,-0.755953 -0.31875,-0.159369 -0.45945,-0.55828 -0.75597,-0.755952 -3.81892,-2.54595 -0.0175,-0.0058 -2.26785,-0.755953 -0.53454,-0.178179 -0.97737,-0.577772 -1.51191,-0.755952 -0.71644,-0.238817 -3.06329,0.238817 -3.77976,0 -0.53454,-0.17818 -0.97737,-0.577773 -1.51191,-0.755952 -0.23905,-0.07968 -0.50395,0 -0.75594,0 -0.50398,0 -1.00793,0 -1.51191,0 -1.25992,0 -2.51984,0 -3.77975,0 -0.17966,0 -2.85438,-0.08472 -3.02382,0 -0.31875,0.159368 -0.41788,0.643261 -0.75594,0.755952 -0.34576,0.115254 -2.68743,-0.168191 -3.02382,0 -0.31874,0.159369 -0.43722,0.596584 -0.75594,0.755952 -0.43405,0.217016 -3.92705,-0.202889 -4.53573,0 -0.33808,0.112691 -0.43722,0.596584 -0.75594,0.755953 -0.2254,0.112691 -0.53059,-0.112691 -0.75597,0 -0.31874,0.159369 -0.41788,0.643261 -0.75594,0.755952 -0.4781,0.159369 -1.00795,0 -1.5119,0 -0.25199,0 -0.53057,-0.112691 -0.75597,0 -0.31872,0.159369 -0.4372,0.596584 -0.75594,0.755953 -0.22538,0.11269 -0.51689,-0.07969 -0.75594,0 -0.53454,0.178179 -0.97738,0.577772 -1.51191,0.755952 -0.23905,0.07968 -0.51692,-0.07969 -0.75597,0 -0.53454,0.17818 -0.97737,0.577772 -1.51191,0.755952 -0.23905,0.07968 -0.57777,-0.17818 -0.75594,0 -0.39841,0.398422 -0.28713,1.199357 -0.75594,1.511905 -0.41934,0.279551 -1.02299,-0.12223 -1.51191,0 -0.54663,0.136658 -1.00796,0.503968 -1.51191,0.755952 -0.50398,0.251985 -1.04309,0.443405 -1.51191,0.755953 -0.29652,0.197672 -0.43722,0.596583 -0.75594,0.755952 -0.2254,0.112691 -0.53059,-0.112691 -0.75597,0 -0.63746,0.318738 -0.83576,1.286523 -1.5119,1.511905 -0.47811,0.159369 -1.03378,-0.159369 -1.51191,0 -0.67614,0.225381 -0.91887,1.116559 -1.51188,1.511905 -0.46885,0.312547 -1.06117,0.41788 -1.51191,0.755952 -0.85527,0.641448 -1.51191,1.511906 -2.26788,2.267858 -0.0228,0.02265 -2.71846,2.871139 -3.02379,3.023809 -0.2254,0.112691 -0.57777,-0.178181 -0.75597,0 -0.17817,0.178181 0.1782,0.577773 0,0.755952 -0.39841,0.398422 -1.04306,0.443404 -1.51191,0.755954 -0.29649,0.19767 -0.50395,0.503968 -0.75594,0.755952 -0.75594,0.755951 -1.51191,1.511903 -2.26785,2.267857 -0.25199,0.251984 -0.45945,0.558279 -0.75596,0.755952 -0.46882,0.312547 -1.04307,0.443404 -1.51191,0.755951 -0.59301,0.395346 -0.91887,1.11656 -1.51188,1.511906 -0.46885,0.312547 -1.1135,0.357529 -1.51191,0.755952 -0.39844,0.398423 -0.44342,1.043083 -0.75597,1.511906 -0.19767,0.296508 -0.50395,0.503967 -0.75594,0.755951 -0.86254,0.862534 -3.07398,2.838733 -3.77976,3.779761 -0.33808,0.450765 -0.41788,1.061143 -0.75597,1.511906 -0.42762,0.570174 -1.14519,0.900753 -1.51191,1.511906 -0.40997,0.683286 -0.46,1.528006 -0.75594,2.267855 -0.28421,0.710514 -1.85899,3.990565 -2.26785,4.535715 -0.42764,0.570174 -1.19316,0.874429 -1.5119,1.511906 -0.26739,0.534744 0.26416,4.49921 0,5.291666 -0.35637,1.069078 -1.0934,1.977501 -1.51191,3.02381 -0.14621,0.365548 0,4.347289 0,4.535715 0,0.641342 -0.12539,4.034165 0,4.535712 0.13665,0.546632 0.50398,1.007938 0.75594,1.511906 0.25199,0.503968 0.44341,1.043083 0.75597,1.511903 0.19767,0.296511 0.59658,0.437216 0.75594,0.755952 0.11268,0.22538 -0.11269,0.530569 0,0.755954 0.15938,0.318738 0.59658,0.437216 0.75596,0.755952 0.11269,0.225382 0,0.503965 0,0.755954 0.25199,0.251984 0.59659,0.437213 0.75594,0.755949 0.22538,0.450765 -0.22537,1.061143 0,1.511906 0.31875,0.637476 1.19317,0.874432 1.51191,1.511906 0.3024,0.604758 -0.30239,1.663094 0,2.267857 0.15936,0.318736 0.59659,0.437211 0.75594,0.755952 0.11272,0.22538 -0.11268,0.530569 0,0.755949 0.15939,0.318736 0.50398,0.503976 0.75597,0.755956 0.50395,0.50397 1.11657,0.91889 1.51191,1.5119 0.13978,0.20967 -0.11269,0.53057 0,0.75596 0.40629,0.81262 1.10559,1.45523 1.51191,2.26785 0.11268,0.22538 -0.11271,0.53057 0,0.75596 0.15936,0.31873 0.59658,0.43721 0.75594,0.75595 0.11269,0.22538 -0.17817,0.57777 0,0.75595 0.39841,0.39842 1.11347,0.35753 1.51191,0.75595 0.17817,0.17818 0,0.50397 0,0.75596 0,1.5119 0,3.0238 0,4.53571 0,3.27579 0,6.55159 0,9.82738 0,0.64886 0.14742,4.09342 0,4.53571 -0.11269,0.33808 -0.59658,0.43722 -0.75597,0.75596 -0.22537,0.45076 0.12224,1.02298 0,1.5119 -0.19325,0.77305 -0.56269,1.49481 -0.75594,2.26786 -0.0611,0.24446 0.17817,0.57777 0,0.75595 -0.17817,0.17818 -0.57777,-0.17818 -0.75594,0 -0.1782,0.17818 0,0.50397 0,0.75595 0,0.75596 0.23905,1.5507 0,2.26786 -0.0797,0.23905 -0.5778,-0.17818 -0.75597,0 -0.17817,0.17818 0.11269,0.53057 0,0.75595 -2.50716,2.50718 0.35637,-0.71272 -0.75594,1.51191 -0.15938,0.31874 -0.59658,0.43721 -0.75597,0.75595 -0.11268,0.22538 0.1782,0.57777 0,0.75595 -1.56408,1.5641 0.0611,-2.39014 -1.51191,0.75595 -0.11268,0.22538 0.11272,0.53058 0,0.75596 -0.31871,0.63747 -1.19316,0.87443 -1.51188,1.5119 -0.11271,0.22538 0.17817,0.57777 0,0.75595 -1.00795,1.00794 -0.72538,-1.60361 -1.51191,0.75596 -0.15938,0.4781 0.15936,1.03379 0,1.5119 -0.22539,0.67614 -1.19316,0.87443 -1.5119,1.5119 -0.22538,0.45077 0.22537,1.06115 0,1.51191 -0.15939,0.31874 -0.59659,0.43722 -0.75597,0.75595 -0.11269,0.22538 0,0.50397 0,0.75596 0,0.50396 0,1.00793 0,1.5119 0,0.17964 0.0847,2.85438 0,3.02381 -0.15936,0.31874 -0.50395,0.50397 -0.75594,0.75595 0,0.50397 0.15936,1.0338 0,1.51191 -0.11269,0.33807 -0.59659,0.43721 -0.75594,0.75595 -0.11272,0.22538 0,0.50397 0,0.75595 0,0.25199 0,0.50397 0,0.75595 0,1.25992 0,2.51985 0,3.77976 0,0.25199 0,0.50397 0,0.75596 0,0.25198 0.11268,0.53057 0,0.75595 -0.15939,0.31874 -0.59659,0.43722 -0.75597,0.75595 -0.11269,0.22538 0.11268,0.53057 0,0.75596 -0.15936,0.31873 -0.59658,0.43721 -0.75594,0.75595 -0.11269,0.22538 0.11268,0.53057 0,0.75595 -0.15939,0.31874 -0.59659,0.43722 -0.75597,0.75595 -0.11269,0.22538 0.11269,0.53057 0,0.75596 -0.15936,0.31873 -0.59658,0.43721 -0.75594,0.75595 -0.11269,0.22538 0,0.50396 0,0.75595 -0.25199,0.50397 -0.44342,1.04308 -0.75597,1.5119 -0.19767,0.29651 -0.59658,0.43722 -0.75594,0.75596 -0.11269,0.22538 0.11269,0.53057 0,0.75595 -0.31874,0.63747 -1.19316,0.87443 -1.51191,1.5119 -0.11268,0.22539 0.11269,0.53058 0,0.75596 -0.33501,0.67003 -1.80909,1.5797 -2.26785,2.26785 -0.31255,0.46883 -0.35753,1.11349 -0.75597,1.51191 -0.17817,0.17818 -0.53056,-0.11269 -0.75594,0 -0.31874,0.15937 -0.43722,0.59658 -0.75594,0.75595 -0.2254,0.11269 -0.57779,-0.17818 -0.75597,0 -0.17817,0.17818 0.11269,0.53057 0,0.75595 -1.57305,3.1461 0.0522,-0.80814 -1.5119,0.75596 -0.17817,0.17817 0.17819,0.57777 0,0.75595 -0.17817,0.17818 -0.53057,-0.11269 -0.75594,0 -0.31875,0.15937 -0.50398,0.50397 -0.75597,0.75595 -0.25196,0.25198 -0.4372,0.59658 -0.75594,0.75595 -0.22538,0.11269 -0.57777,-0.17818 -0.75594,0 -0.1782,0.17818 0.22537,0.64326 0,0.75596 -0.45077,0.22538 -1.02299,-0.12224 -1.51191,0 -3.65046,0.91261 0.0375,0.35924 -2.26788,1.5119 -0.45074,0.22538 -1.06114,-0.22538 -1.51188,0 -0.31874,0.15937 -0.43722,0.59658 -0.75597,0.75595 -0.45077,0.22538 -1.06114,-0.22538 -1.51191,0 -0.63746,0.31874 -0.87442,1.19317 -1.51191,1.51191 -0.22537,0.11269 -0.53056,-0.1127 -0.75594,0 -0.31874,0.15937 -0.43722,0.59658 -0.75594,0.75595 -0.2254,0.11269 -0.53059,-0.11269 -0.75597,0 -3.14608,1.57305 0.80815,-0.0522 -0.75594,1.5119 -0.17819,0.17818 -0.57777,-0.17818 -0.75596,0 -0.17817,0.17818 0.17819,0.57778 0,0.75596 -0.17817,0.17818 -0.53057,-0.11269 -0.75594,0 -0.31875,0.15936 -0.43723,0.59658 -0.75597,0.75595 -0.22537,0.11269 -0.64326,-0.22538 -0.75594,0 -0.22538,0.45076 0.22537,1.06114 0,1.5119 -0.11269,0.22539 -0.64326,-0.22538 -0.75594,0 -0.2254,0.45077 0.22537,1.06115 0,1.51191 -0.11272,0.22538 -0.5306,-0.11269 -0.75597,0 -3.14608,1.57304 0.80814,-0.0522 -0.75594,1.5119 -0.1782,0.17818 -0.64328,-0.22538 -0.75597,0 -0.22537,0.45076 0.2254,1.06114 0,1.51191 -0.11269,0.22538 -0.57777,-0.17818 -0.75594,0 -0.17817,0.17818 0.11268,0.53057 0,0.75595 -0.15939,0.31874 -0.64326,0.41788 -0.75597,0.75595 0,0.003 0,2.26714 0,2.26786 -0.17817,0.17818 -0.57777,-0.17818 -0.75594,0 -0.35637,0.35636 0.22537,1.06114 0,1.5119 -0.15936,0.31874 -0.59658,0.43722 -0.75594,0.75596 -0.2254,0.45076 0.22537,1.06114 0,1.5119 -0.15939,0.31874 -0.59658,0.43721 -0.75597,0.75595 -0.0977,0.19546 0,3.9999 0,4.53572 0,0.34045 -0.11501,2.03779 0,2.26786 0.45358,0.90714 1.8143,1.36071 2.26785,2.26785 0.11271,0.22538 0,0.50397 0,0.75595 0,0.25199 0,0.50397 0,0.75596 0,1.25992 0,2.51984 0,3.77976 0,4.28373 0,8.56746 0,12.85119 0,3.27579 0,6.55159 0,9.82738 0,0.76128 -0.13933,4.11766 0,4.53571 0.11271,0.33808 0.59658,0.43722 0.75597,0.75596 0.22537,0.45076 -0.35637,1.15554 0,1.5119 0.17817,0.17818 0.53057,-0.11269 0.75594,0 1.67145,0.83573 0.23461,0.46918 0.75597,1.51191 0.15936,0.31873 0.59658,0.43721 0.75594,0.75595 0.11268,0.22538 -0.17817,0.57777 0,0.75595 0.17817,0.17818 0.57777,-0.17818 0.75597,0 1.65081,1.65083 0.15713,1.22737 0.75594,3.02381 0.11504,0.34509 1.92741,1.92741 2.26785,2.26786 0.25199,0.25198 0.59658,0.43721 0.75596,0.75595 0.11269,0.22538 -0.22539,0.64326 0,0.75595 0.45075,0.22538 1.06114,-0.22538 1.51191,0 0.22537,0.11269 -0.17819,0.57777 0,0.75596 0.17817,0.17817 0.51689,-0.0797 0.75594,0 5.47569,1.82522 -1.19184,-0.21795 2.26785,1.5119 0.33639,0.16819 2.67806,-0.11526 3.02382,0 0.33808,0.11269 0.41788,0.64326 0.75594,0.75595 0.34579,0.11526 2.68745,-0.16819 3.02382,0 0.31874,0.15937 0.43722,0.59659 0.75597,0.75595 0.45902,0.22952 4.07667,-0.22951 4.53569,0 0.31875,0.15937 0.43723,0.59659 0.75597,0.75596 0.60476,0.30238 1.66309,-0.30239 2.26785,0 0.63746,0.31873 0.87442,1.19316 1.51191,1.5119 0.60476,0.30238 1.66309,-0.30238 2.26785,0 0.22537,0.11269 -0.17817,0.57777 0,0.75595 0.17817,0.17818 0.53057,-0.11269 0.75594,0 0.90715,0.45357 1.36073,1.81429 2.26788,2.26786 0.22537,0.11269 0.57777,-0.17818 0.75594,0 0.17817,0.17818 -0.17817,0.57777 0,0.75595 0.17817,0.17818 0.57777,-0.17818 0.75597,0 2.95026,2.95028 -0.175,0.40598 0.75594,2.26786 0.15936,0.31874 0.59658,0.43721 0.75594,0.75595 0.11271,0.22538 -0.17817,0.57777 0,0.75595 0.17819,0.17818 0.57779,-0.17818 0.75597,0 0.35636,0.35636 -0.35637,1.15555 0,1.51191 0.17817,0.17817 0.57777,-0.17818 0.75594,0 0.17819,0.17817 -0.11269,0.53057 0,0.75594 0.15938,0.31875 0.59658,0.43723 0.75596,0.75597 0.11269,0.22537 -0.11268,0.53057 0,0.75594 0.15936,0.31875 0.50396,0.50398 0.75594,0.75597 0.25199,0.25199 0.43723,0.59658 0.75597,0.75594 0.22537,0.11269 0.57777,-0.17817 0.75594,0 0.17817,0.17817 0,0.50398 0,0.75597 0,0.50395 -0.22537,1.06114 0,1.51188 0.11269,0.2254 0.57777,-0.17817 0.75594,0 0.1782,0.1782 -0.17817,0.5778 0,0.75597 0.1782,0.17817 0.5778,-0.17817 0.75597,0 2.95029,2.95029 -0.17499,0.40597 0.75594,2.26785 0.15939,0.31874 0.59659,0.43722 0.75597,0.75596 0.11269,0.22538 -0.11269,0.53057 0,0.75595 0.31872,0.63748 1.19317,0.87442 1.51191,1.5119 0.11269,0.22538 -0.1782,0.57777 0,0.75595 0.17817,0.17819 0.64325,-0.22538 0.75594,0 0.22537,0.45077 -0.22537,1.06113 0,1.5119 0.11269,0.22538 0.53057,-0.11268 0.75594,0 0.31874,0.15939 0.50398,0.50398 0.75597,0.75597 0.25199,0.25196 0.59658,0.4372 0.75594,0.75594 0.11269,0.22537 -0.17817,0.57777 0,0.75594 0.1782,0.1782 0.57777,-0.17817 0.75597,0 0.17817,0.1782 -0.1782,0.5778 0,0.75597 0.17817,0.17817 0.53057,-0.11269 0.75594,0 0.31874,0.15936 0.43722,0.59658 0.75597,0.75594 0.22537,0.11269 0.57777,-0.17817 0.75594,0 0.17817,0.1782 -0.11269,0.53057 0,0.75597 0.15936,0.31872 0.50398,0.50395 0.75594,0.75594 0.25199,0.25199 0.43722,0.59658 0.75597,0.75597 0.22537,0.11268 0.53056,-0.11271 0.75594,0 0.31874,0.15936 0.45945,0.55827 0.75596,0.75594 0.46882,0.31255 1.11348,0.35753 1.51191,0.75594 0.17817,0.1782 -0.17819,0.5778 0,0.75597 0.17817,0.17817 0.53057,-0.11269 0.75594,0 0.31875,0.15936 0.43723,0.59658 0.75594,0.75594 0.2254,0.11268 0.5306,-0.11269 0.75597,0 0.63746,0.31874 0.87442,1.19316 1.51191,1.51191 0.22537,0.11268 0.53057,-0.11269 0.75594,0 0.31875,0.15938 0.43723,0.59658 0.75597,0.75596 0.22537,0.11269 0.53057,-0.11271 0.75594,0 3.45969,1.72985 -3.20781,-0.31331 2.26785,1.51189 0.23905,0.0797 0.53057,-0.11269 0.75597,0 3.45969,1.72987 -3.20784,-0.31332 2.26785,1.51191 0.4781,0.15938 1.06113,-0.22538 1.51191,0 2.30531,1.15265 -1.38261,0.5993 2.26784,1.5119 0.48893,0.12224 1.01772,-0.0988 1.51191,0 0.78137,0.15629 1.49482,0.56269 2.26785,0.75597 0.24448,0.0611 0.51692,-0.0797 0.75597,0 0.53454,0.17817 0.95938,0.64545 1.51191,0.75594 1.23544,0.2471 2.51984,0 3.77976,0 0.50395,0 1.02298,-0.12224 1.51191,0 0.54662,0.13666 0.96525,0.61929 1.51188,0.75594 0.97784,0.24448 2.04597,-0.24445 3.02381,0 0.54663,0.13666 0.96528,0.61931 1.51191,0.75597 0.48893,0.12224 1.00793,0 1.51191,0 0.50395,0.25199 0.97737,0.57777 1.51191,0.75594 0.23905,0.0797 0.50395,0 0.75594,0 0.50398,0 1.00793,0 1.51191,0 1.51191,0 3.02382,0 4.53573,0 0.50395,0 1.02298,-0.12221 1.51188,0 0.54663,0.13666 0.97737,0.57777 1.51191,0.75597 0.64759,0.21585 2.3569,-0.16674 3.02381,0 0.54663,0.13666 0.96528,0.61928 1.51191,0.75594 0.52964,0.13242 4.26199,0 4.5357,0 0.50398,0 1.02299,-0.12224 1.51191,0 0.54663,0.13666 0.96528,0.61931 1.51191,0.75597 0.59465,0.14864 3.74959,0 4.53572,0 3.52777,0 7.05554,0 10.58334,0 4.5357,0 9.07142,0 13.60712,0 1.51191,0 3.02382,0 4.53573,0 0.50398,0 1.0338,0.15936 1.51191,0 0.33805,-0.11271 0.50395,-0.50398 0.75594,-0.75597 0.50397,-0.25199 0.96528,-0.61928 1.5119,-0.75594 0.48893,-0.12224 1.02299,0.12221 1.51191,0 1.13149,-0.28287 2.96683,-1.8614 3.77976,-2.26788 0.22537,-0.11268 0.50398,0 0.75597,0 1.00793,-0.50395 2.05748,-0.9321 3.02379,-1.51188 0.91673,-0.55004 1.35115,-1.71783 2.26788,-2.26787 4.10427,-2.46256 0.96586,-0.24146 3.02379,-0.75595 0.77306,-0.19327 1.52802,-0.46 2.26787,-0.75596 1.0463,-0.41852 2.01586,-1.00793 3.02379,-1.51189 0.50398,-0.25198 1.0431,-0.44341 1.51191,-0.75596 0.31057,-0.20704 2.06081,-1.95728 2.26785,-2.26785 0.31255,-0.46882 0.35753,-1.1135 0.75597,-1.51191 0.39841,-0.39841 1.11347,-0.35753 1.51191,-0.75594 0.39841,-0.39844 0.46606,-1.02875 0.75594,-1.51191 0.3484,-0.58068 2.02099,-2.79233 2.26785,-3.77976 0.24447,-0.97785 -0.24445,-2.04597 0,-3.02382 1.23383,-4.9353 0.40592,2.85613 1.51191,-3.77975 0.12427,-0.74568 -0.12428,-1.5222 0,-2.26788 0.13099,-0.786 0.64328,-1.47902 0.75596,-2.26785 0.14253,-0.9978 0,-2.01586 0,-3.02382 0,-3.0238 0,-6.04761 0,-9.07142 0,-2.77182 0,-5.54365 0,-8.31547 0,-0.75596 0.0938,-1.51775 0,-2.26786 -0.86659,-6.93265 -0.27815,-0.83444 -2.26787,-6.80357 -0.4063,-1.21894 -0.34962,-2.56083 -0.75594,-3.77976 -0.35637,-1.06908 -1.2386,-1.93055 -1.51191,-3.02381 -0.24445,-0.97784 0.19767,-2.03545 0,-3.02381 -0.31255,-1.56274 -1.00793,-3.02381 -1.51191,-4.53572 -0.50395,-1.5119 -0.92001,-3.05601 -1.51191,-4.53571 -2.42313,-6.05785 -0.87479,0.32018 -3.02379,-7.55953 -0.33808,-1.23959 -0.47723,-2.52548 -0.75597,-3.77976 -0.45074,-2.02843 -1.10439,-4.01005 -1.51191,-6.04761 -0.30059,-1.503 -0.35263,-3.05697 -0.75594,-4.53572 -0.35705,-1.30916 -1.08278,-2.49242 -1.51191,-3.77976 -0.32853,-0.98564 -0.50395,-2.01587 -0.75594,-3.02381 -0.44677,-1.78703 -1.31998,-5.0761 -1.5119,-6.80357 -0.11131,-1.00177 0.12501,-2.02366 0,-3.02381 -0.25774,-2.06187 -1.25418,-3.98575 -1.51191,-6.04762 -0.12502,-1.00015 0,-2.01587 0,-3.02381 0,-2.26786 0,-4.53572 0,-6.80357 0,-9.5754 0,-19.1508 0,-28.72619 0,-4.28373 0,-8.56746 0,-12.85119 0,-0.64493 0.14044,-5.01079 0,-5.29167 -0.15936,-0.31874 -0.64326,-0.41788 -0.75594,-0.75595 -0.11526,-0.34576 0.16816,-2.68743 0,-3.02381 -0.15939,-0.31874 -0.66953,-0.41023 -0.75597,-0.75595 -0.13581,-0.54326 0,-3.70219 0,-4.53572 0,-0.25198 0.0797,-0.5169 0,-0.75595 -0.17817,-0.53454 -0.57777,-0.97737 -0.75594,-1.5119 -0.21119,-0.63359 0.25048,-2.52283 0,-3.02381 -0.15939,-0.31874 -0.64328,-0.41789 -0.75597,-0.75596 -0.12771,-0.38314 0,-4.67368 0,-5.29166 0,-0.25199 0.11269,-0.53057 0,-0.75595 -0.15936,-0.31874 -0.59658,-0.43722 -0.75594,-0.75596 -0.24154,-0.48307 0.20283,-2.41534 0,-3.02381 -0.17817,-0.53454 -0.57777,-0.97736 -0.75597,-1.5119 -0.15936,-0.47811 0,-1.00794 0,-1.51191 0,-1.5119 0,-3.023805 0,-4.535711 0,-2.771823 0,-5.543653 0,-8.315476 0,-0.931892 0.16166,-2.971501 0,-3.779763 C 508.55219,84.314492 508.25199,83.317399 508,82.309463 Z"
         id="path4500"
         inkscape:connector-curvature="0" />
    </clipPath>
  </defs>
  <sodipodi:namedview
     id="base"
     pagecolor="#ffffff"
     bordercolor="#666666"
     borderopacity="1.0"
     inkscape:pageopacity="0.0"
     inkscape:pageshadow="2"
     inkscape:zoom="0.36062446"
     inkscape:cx="906.44437"
     inkscape:cy="538.23887"
     inkscape:document-units="mm"
     inkscape:current-layer="layer1"
     showgrid="false"
     units="px"
     inkscape:snap-page="true"
     inkscape:snap-global="true"
     inkscape:window-width="1280"
     inkscape:window-height="657"
     inkscape:window-x="-8"
     inkscape:window-y="-8"
     inkscape:window-maximized="1" />
  <metadata
     id="metadata5">
    <rdf:RDF>
      <cc:Work
         rdf:about="">
        <dc:format>image/svg+xml</dc:format>
        <dc:type
           rdf:resource="http://purl.org/dc/dcmitype/StillImage" />
        <dc:title></dc:title>
      </cc:Work>
    </rdf:RDF>
  </metadata>
  <g
     inkscape:label="Camada 1"
     inkscape:groupmode="layer"
     id="layer1"
     transform="translate(0,-11.249939)">
    <rect
       style="fill:#0088aa;fill-rule:evenodd;stroke-width:0.26458332"
       id="rect4549"
       width="508"
       height="285.75"
       x="0"
       y="11.249939"
       rx="0.26628727"
       ry="0.26628727" />
    <path
       style="fill:#0066ff;stroke:none;stroke-width:0.26458332px;stroke-linecap:butt;stroke-linejoin:miter;stroke-opacity:1"
       d="m 418.23065,136.54904 c 0,0 -38.93156,33.63989 -27.2143,49.51489 0,0 8.69347,2.83482 2.83484,14.93006 l -5.10268,20.5997 c 0,0 -8.88244,25.13542 7.37054,33.2619 0,0 3.96875,23.43453 10.39434,29.86012 0,0 0,7.9375 7.18155,7.55953 0,0 34.77381,0.94494 60.47619,-17.19792 0,0 33.82887,9.4494 33.82887,11.52827 V 256.3675 c 0,0 -11.33929,-25.51339 -13.22917,-26.08036 0,0 3.77977,-34.9628 8.12649,-40.06547 0,0 9.63839,-27.21428 -4.15774,-50.64881 0,0 -14.17411,-68.602695 -80.50893,-3.02382 z"
       id="path4512"
       inkscape:connector-curvature="0" />
    <g
       id="g4508">
      <path
         inkscape:connector-curvature="0"
         id="path4502"
         d="m 407.08034,90.057973 c 0,0 -3.59076,-10.205357 3.40181,-15.497024 0,0 2.07886,-24.190475 17.57589,-27.025296 0,0 27.59226,6.803571 28.15922,12.851191 0,0 -1.62882,3.832815 6.49767,12.904243 0,0 5.82685,5.465591 11.11852,4.142674 0,0 8.73144,16.327999 -9.60041,28.612229 0,0 -11.22858,12.3602 -42.22262,8.20246 0,0 -11.90625,-6.80357 -9.82738,-10.39434 0,0 -5.10272,-8.126496 -5.1027,-13.796137 z"
         style="fill:#ffccaa;stroke:none;stroke-width:0.26458332px;stroke-linecap:butt;stroke-linejoin:miter;stroke-opacity:1"
         sodipodi:nodetypes="cccccccccc" />
      <path
         inkscape:connector-curvature="0"
         id="path4504"
         d="m 422.01041,114.24845 c 0,0 -0.18899,5.10268 0.56698,6.04762 0,0 -1.13394,6.23661 1.13392,8.12649 0,0 -15.11905,20.03274 -12.28423,22.11161 0,0 8.12649,4.91369 30.99405,-19.46578 l 12.47322,-25.3244 z"
         style="fill:#ffccaa;stroke:none;stroke-width:0.26458332px;stroke-linecap:butt;stroke-linejoin:miter;stroke-opacity:1" />
    </g>
    <path
       style="fill:#000000;stroke:#000000;stroke-width:0.26458332px;stroke-linecap:butt;stroke-linejoin:miter;stroke-opacity:1"
       d="m 405.81811,68.386211 c -1.05863,-0.01034 -1.69654,0.04857 -1.69654,0.04857 -0.85045,0.661459 0.37828,9.071282 0.37828,9.071282 1.98435,6.425594 11.33935,4.252452 11.33935,4.252452 1.32292,-0.09449 4.53565,-5.858557 4.53565,-5.858557 1.79538,-0.377976 2.64583,0.75551 2.64583,0.75551 -0.56697,0.661458 2.36212,7.370609 2.36212,7.370609 4.44122,3.40179 12.94599,2.929538 12.94599,2.929538 2.55132,-0.09449 5.57485,-7.842933 5.57485,-7.842933 l 30.07312,3.92065 -6.16606,-3.164624 -23.05648,-2.834968 c -9.82737,-5.669643 -20.88296,-2.551266 -20.88296,-2.551266 -0.47246,-0.661459 -3.0241,-0.661459 -3.0241,-0.661459 -4.89009,-4.748326 -11.85318,-5.403804 -15.02905,-5.434808 z m 2.96312,1.450038 c 0.62794,-0.0097 1.3675,0.07774 2.23861,0.299207 0,0 7.46504,1.228349 7.27604,4.535641 0,0 -0.18891,7.276486 -5.19707,6.520531 0,0 -9.54384,0.472102 -7.84294,-8.410339 0,0 0.13446,-2.892483 3.52536,-2.94504 z m 20.71296,4.627626 c 0.43466,-0.0058 0.91003,0.01903 1.42936,0.08062 0,0 10.7239,0.296645 10.7647,3.60908 0,0 -0.0633,8.623901 -5.11183,8.21707 0,0 -12.78503,0.03638 -11.70418,-8.942607 0,0 0.4201,-2.90789 4.62195,-2.964159 z"
       id="path4528"
       inkscape:connector-curvature="0"
       sodipodi:nodetypes="ccccccccccccccccccccccccccccc" />
    <path
       style="fill:#784421;stroke:none;stroke-width:0.26458332px;stroke-linecap:butt;stroke-linejoin:miter;stroke-opacity:1"
       d="m 411.42708,67.190414 c 0,0 4.72469,-14.174107 12.47322,-17.953868 0,0 7.93749,-4.157737 32.31696,11.150298 0,0 -8.12648,22.111607 13.60715,20.78869 0,0 11.33927,5.669643 -5.85864,17.386905 0,0 -26.08035,31.183031 -35.52976,31.183031 l 3.59078,0.56697 -3.96875,3.59077 h 2.45684 l -1.13393,0.56697 1.88988,-0.18899 0.18899,1.32292 1.13393,-0.18899 -0.56696,1.88988 2.07887,-0.94494 v 1.88988 l 3.21279,-1.88988 c 0,0 41.95536,-43.089288 56.31846,-3.77976 0,0 3.40178,2.45684 5.10267,6.99256 0,0 3.77977,-5.48066 -3.96875,-23.24554 0,0 4.15774,-17.575893 -6.61458,-32.505953 0,0 15.30804,21.544643 13.60714,31.750003 0,0 1.32292,-14.17411 -13.04018,-35.718753 0,0 -4.53571,-22.867559 -12.09523,-28.348214 0,0 -22.67857,-20.78869 -46.49107,-11.150298 0,0 -4.9137,1.511905 -7.74852,8.126488 0,0 -13.22917,4.724701 -10.96131,18.709821 z"
       id="path4510"
       inkscape:connector-curvature="0" />
    <path
       style="fill:#002255;stroke:none;stroke-width:0.26458332px;stroke-linecap:butt;stroke-linejoin:miter;stroke-opacity:1"
       d="m 413.69493,292.27524 5.38369,4.7247 h 88.92137 v -10.39435 c 0,0 -20.43041,-12.60387 -33.82885,-11.52827 z"
       id="path4514"
       inkscape:connector-curvature="0" />
    <path
       style="fill:#ffb380;stroke:none;stroke-width:0.26458332px;stroke-linecap:butt;stroke-linejoin:miter;stroke-opacity:1"
       d="m 367.01714,219.49177 c 0,0 -2.07134,4.00905 -1.47,4.47677 l 16.30346,-3.67496 -1.87089,-4.81085 z"
       id="path4520"
       inkscape:connector-curvature="0" />
    <path
       style="fill:#ffccaa;stroke:none;stroke-width:0.26458332px;stroke-linecap:butt;stroke-linejoin:miter;stroke-opacity:1"
       d="m 383.12013,216.56255 c 0,0 -7.61719,4.54358 -16.70436,4.81085 0,0 -11.62621,11.49259 -6.81536,15.368 0,0 0,4.54358 2.53906,5.47902 0,0 0.53454,6.1472 2.6727,6.94901 0,0 2.27179,7.61718 5.07812,1.06908 0,0 8.01808,4.00904 7.61718,-0.80181 0,0 6.1472,1.73725 1.33635,-4.00904 0,0 -5.34539,-0.93545 0.4009,-5.87993 0,0 11.8935,-2.6727 7.88445,-6.81537 0,0 0.67814,-10.0951 2.67768,-12.19701 z"
       id="path4518"
       inkscape:connector-curvature="0" />
    <path
       style="fill:#0044aa;fill-opacity:1;stroke:none;stroke-width:0.26458332px;stroke-linecap:butt;stroke-linejoin:miter;stroke-opacity:1"
       d="m 400.58869,203.7175 c 0,0 12.55906,0.45069 14.39325,2.10147 0,0 16.87468,2.93473 17.60836,-0.0917 0,0 -0.36684,-8.29977 1.67371,-8.09342 0,0 -3.04937,-0.80247 -2.77424,8.18513 0,0 -13.66481,-0.0917 -16.14098,-1.19223 0,0 -11.54502,-2.18534 -14.7601,-0.90925 z"
       id="path4537"
       inkscape:connector-curvature="0"
       sodipodi:nodetypes="ccccccc" />
    <path
       style="fill:#ffccaa;stroke:none;stroke-width:0.26458332px;stroke-linecap:butt;stroke-linejoin:miter;stroke-opacity:1"
       d="m 363.21928,195.70479 c 0,0 -1.33636,3.20723 -1.33636,3.60813 0,0 -4.6772,1.46999 -2.0045,5.21176 0,0 -1.60362,4.00905 -0.26727,5.21176 0,0 -0.4009,4.94448 1.33635,5.47902 0,0 1.33634,8.68626 10.0226,3.74178 0,0 9.48807,-0.40091 11.09169,-1.33635 l 15.10073,9.6217 c 0,0 -8.55263,-17.50615 6.94901,-23.38608 0,0 -6.81538,-1.33635 -8.28536,-0.66818 0,0 -6.81537,-4.94448 -19.37704,-5.07812 0,0 -4.81085,-2.27179 -6.94901,-1.73725 0,0 -2.27181,-1.87088 -6.28084,-0.66817 z"
       id="path4516"
       inkscape:connector-curvature="0" />
    <path
       style="fill:#0044aa;fill-opacity:1;stroke:none;stroke-width:0.26458332px;stroke-linecap:butt;stroke-linejoin:miter;stroke-opacity:1"
       d="m 431.86302,200.65844 c 0,0 2.75402,-22.5913 4.31038,-24.66647 l 1.44805,-1.02933 -0.0214,1.15903 c 0,0 -5.00516,16.49454 -4.87547,24.79519 z"
       id="path4539"
       inkscape:connector-curvature="0"
       sodipodi:nodetypes="cccccc" />
    <path
       style="fill:#0044aa;stroke:none;stroke-width:0.26458332px;stroke-linecap:butt;stroke-linejoin:miter;stroke-opacity:1;fill-opacity:1"
       d="m 422.96712,238.12203 c 0,0 41.26957,22.74411 53.55873,-26.59594 l 0.36684,3.30157 c 0,0 -10.24115,45.52491 -52.64162,25.49542 z"
       id="path4541"
       inkscape:connector-curvature="0" />
    <path
       style="fill:#a05a2c;stroke:none;stroke-width:0.26458332px;stroke-linecap:butt;stroke-linejoin:miter;stroke-opacity:1"
       d="m 455.01071,64.311866 c 0,0 9.98672,3.761232 19.45465,-9.338236 0,0 -4.79881,15.434028 -19.45465,9.338236 z"
       id="path4543"
       inkscape:connector-curvature="0" />
    <rect
       style="fill:#0000ff;fill-rule:evenodd;stroke-width:0.26458332"
       id="rect4545"
       width="0.64197093"
       height="3.0264342"
       x="388.66754"
       y="208.40794"
       rx="0.26628727"
       ry="0.26628727" />
    <path
       style="fill:#999999;stroke:none;stroke-width:0.26458332px;stroke-linecap:butt;stroke-linejoin:miter;stroke-opacity:1"
       d="m 390.59503,200.58007 c 0,0 2.26971,0.77818 2.59395,1.16727 0,0 -4.40971,11.99705 -5.64184,18.67648 l -2.72365,-1.42668 c 0,0 4.99334,-17.83343 5.77154,-18.41707 z"
       id="path4547"
       inkscape:connector-curvature="0"
       sodipodi:nodetypes="ccccc" />
    <text
       xml:space="preserve"
       style="font-style:normal;font-variant:normal;font-weight:normal;font-stretch:normal;font-size:6.25675535px;line-height:1.25;font-family:Arial;-inkscape-font-specification:'Arial, Normal';font-variant-ligatures:normal;font-variant-caps:normal;font-variant-numeric:normal;font-feature-settings:normal;text-align:start;letter-spacing:0px;word-spacing:0px;writing-mode:lr-tb;text-anchor:start;fill:#00112b;fill-opacity:1;stroke:none;stroke-width:0.26458335"
       x="490.20215"
       y="295.33676"
       id="text4553"><tspan
         sodipodi:role="line"
         id="tspan4551"
         x="490.20215"
         y="295.33676"
         style="font-style:normal;font-variant:normal;font-weight:500;font-stretch:normal;font-size:6.25675535px;font-family:'Brush Script Std';-inkscape-font-specification:'Brush Script Std, Medium';font-variant-ligatures:normal;font-variant-caps:normal;font-variant-numeric:normal;font-feature-settings:normal;text-align:start;writing-mode:lr-tb;text-anchor:start;fill:#00112b;stroke-width:0.26458335">Zastim</tspan></text>
  </g>
</svg>
