<?xml version="1.0" encoding="UTF-8" standalone="no"?>
<!-- Created with Inkscape (http://www.inkscape.org/) -->

<svg
        xmlns:dc="http://purl.org/dc/elements/1.1/"
        xmlns:cc="http://creativecommons.org/ns#"
        xmlns:rdf="http://www.w3.org/1999/02/22-rdf-syntax-ns#"
        xmlns="http://www.w3.org/2000/svg"
        xmlns:sodipodi="http://sodipodi.sourceforge.net/DTD/sodipodi-0.dtd"
        xmlns:inkscape="http://www.inkscape.org/namespaces/inkscape"
        width="508mm"
        height="285.75mm"
        viewBox="0 0 508 285.75"
        version="1.1"
        id="svg8"
        inkscape:version="0.92.1 r15371"
        sodipodi:docname="bicudao svg.svg"
        inkscape:export-filename="C:\Users\Gabriel\Desktop\bicudao vetorial.png"
        inkscape:export-xdpi="96"
        inkscape:export-ydpi="96">
  <defs
     id="defs2" />
  <sodipodi:namedview
     id="base"
     pagecolor="#ffffff"
     bordercolor="#666666"
     borderopacity="1.0"
     inkscape:pageopacity="0.0"
     inkscape:pageshadow="2"
     inkscape:zoom="0.18311687"
     inkscape:cx="1077.0887"
     inkscape:cy="783.52787"
     inkscape:document-units="mm"
     inkscape:current-layer="layer3"
     showgrid="false"
     inkscape:window-width="1280"
     inkscape:window-height="657"
     inkscape:window-x="-8"
     inkscape:window-y="-8"
     inkscape:window-maximized="1"
     inkscape:snap-global="true"
     showguides="false"
     fit-margin-top="0"
     fit-margin-left="0"
     fit-margin-right="0"
     fit-margin-bottom="0" />
  <metadata
     id="metadata5">
    <rdf:RDF>
      <cc:Work
         rdf:about="">
        <dc:format>image/svg+xml</dc:format>
        <dc:type
           rdf:resource="http://purl.org/dc/dcmitype/StillImage" />
        <dc:title></dc:title>
      </cc:Work>
    </rdf:RDF>
  </metadata>
  <g
     inkscape:label="Camada 1"
     inkscape:groupmode="layer"
     id="layer1"
     style="display:inline;opacity:1"
     transform="translate(618.58808,86.14365)" />
  <g
     inkscape:groupmode="layer"
     id="layer2"
     inkscape:label="Camada 2"
     style="display:inline;opacity:1"
     transform="translate(618.58808,86.14365)" />
  <g
     inkscape:groupmode="layer"
     id="layer6"
     inkscape:label="Camada 6"
     transform="translate(618.58808,86.14365)" />
  <g
     inkscape:groupmode="layer"
     id="layer4"
     inkscape:label="Camada 4"
     style="display:inline"
     transform="translate(618.58808,86.14365)" />
  <g
     inkscape:groupmode="layer"
     id="layer3"
     inkscape:label="Camada 3"
     style="display:inline"
     transform="translate(618.58808,86.14365)">
    <g
       id="g5003"
       transform="translate(199.39452,-67.909727)">
      <rect
         ry="0.26628727"
         rx="0.26628727"
         y="-18.233923"
         x="-817.9826"
         height="285.75"
         width="508"
         id="rect4906"
         style="display:inline;opacity:0.98999999;fill:#007fa5;fill-opacity:1;fill-rule:evenodd;stroke:none;stroke-width:0.93299997;stroke-linecap:round;stroke-linejoin:round;stroke-miterlimit:4;stroke-dasharray:none;stroke-dashoffset:0;stroke-opacity:1;paint-order:markers fill stroke" />
      <g
         id="g4965">
        <path
           style="display:inline;opacity:1;fill:#e99683;fill-opacity:1;stroke:none;stroke-width:0.28766656px;stroke-linecap:butt;stroke-linejoin:miter;stroke-opacity:1"
           d="m -472.05104,82.612857 c 0,0 -19.07248,22.947853 -13.62336,28.576603 l 4.54093,21.43287 0.11393,3.24736 3.17842,17.21059 c 0,0 8.74128,15.91251 9.08185,24.57213 0,0 -2.04318,17.64396 22.13731,23.81394 0,0 16.68801,7.57707 25.65636,-1.73204 0,0 11.80607,-13.42233 12.71425,-15.91197 0,0 -20.11219,-47.50705 -17.54344,-67.25463 0,0 1.08564,-23.669052 -46.25625,-33.954853 z"
           id="path4497"
           inkscape:connector-curvature="0" />
        <path
           style="display:inline;opacity:1;fill:#004480;fill-opacity:1;stroke:none;stroke-width:0.26458332px;stroke-linecap:butt;stroke-linejoin:miter;stroke-opacity:1"
           d="m -422.70967,171.80498 c 119.19716,114.51442 59.59858,57.25721 0,0 z"
           id="path4742"
           inkscape:connector-curvature="0"
           sodipodi:nodetypes="cc" />
        <path
           style="display:inline;opacity:1;fill:#808080;stroke:none;stroke-width:0.26458332px;stroke-linecap:butt;stroke-linejoin:miter;stroke-opacity:1"
           d="m -460.68639,181.81936 c 7.56084,-10.30131 21.68741,-15.76101 34.08204,-11.99596 5.56302,1.32483 11.43966,3.94119 14.27484,9.20719 1.07052,1.891 1.69629,4.33698 0.36043,6.27303 -1.4987,2.39021 -3.72134,4.20809 -5.42584,6.4381 -5.92988,6.1855 -14.18795,10.81434 -22.95848,10.47293 -7.36652,-0.43246 -14.17444,-4.13916 -19.64195,-8.92242 -1.67645,-3.49561 -2.52051,-7.86607 -0.69104,-11.47287 z"
           id="path4898"
           inkscape:connector-curvature="0" />
        <path
           style="display:inline;opacity:1;fill:#4d4d4d;stroke:none;stroke-width:0.26458329px;stroke-linecap:butt;stroke-linejoin:miter;stroke-opacity:1"
           d="m -436.54449,165.83017 c -9.02987,1.16494 -18.00907,4.18146 -24.76323,9.75086 -2.84672,3.04478 -3.20112,7.96517 -0.16355,11.00777 3.14476,-1.58766 5.32873,-4.7518 9.14909,-5.18619 4.70488,-2.3172 9.42104,-5.02444 14.8989,-5.56037 4.52839,-0.70062 9.13743,-0.30071 13.69404,-0.1048 3.24963,-0.79205 6.48246,0.4395 9.68157,0.8345 1.8281,-1.80541 0.50641,-4.36734 -0.65344,-6.16183 -2.52703,-3.70201 -7.77587,-4.84206 -12.35097,-4.85989 -3.1653,-0.10318 -6.34855,-0.10245 -9.49241,0.27995 z"
           id="path4795"
           inkscape:connector-curvature="0" />
        <path
           style="display:inline;opacity:1;fill:#e99683;fill-opacity:1;stroke:none;stroke-width:0.26458332px;stroke-linecap:butt;stroke-linejoin:miter;stroke-opacity:1"
           d="m -433.21392,172.55557 c -5.44062,0.30555 -11.12605,0.54784 -16.06182,3.11327 -1.30872,0.68813 -2.53057,1.54535 -3.60586,2.56138 -0.98028,1.7681 -0.50456,3.99957 0.78206,5.47832 1.68007,2.03783 4.02988,3.38587 6.40328,4.46567 1.28451,-0.43084 0.0541,-2.00308 -0.13802,-2.86169 -0.44896,-1.09964 -0.65991,-2.64136 0.4706,-3.40363 1.40455,-1.03573 2.89284,-2.01126 4.58856,-2.51059 3.05719,-0.9965 6.855,-1.03512 9.34785,1.27426 1.42572,1.14527 1.23748,3.09247 1.37815,4.71334 0.50533,1.12973 1.50534,-0.86874 2.00075,-1.24444 1.78294,-1.9863 3.28657,-4.50384 3.29797,-7.24463 0.0259,-1.72177 -1.31709,-3.17466 -2.93599,-3.59323 -1.77812,-0.59972 -3.67591,-0.61304 -5.52753,-0.74803 z"
           id="path4842"
           inkscape:connector-curvature="0"
           inkscape:transform-center-x="187.99051"
           inkscape:transform-center-y="-40.872317" />
        <path
           style="display:inline;fill:#202020;fill-opacity:1;stroke:none;stroke-width:0.26499999;stroke-linecap:butt;stroke-linejoin:miter;stroke-miterlimit:4;stroke-dasharray:none;stroke-opacity:1"
           d="m -511.85906,267.51608 h 144.37227 l 1.22349,-76.06053 -45.06535,-9.1762 -0.47665,-0.73638 c 0,0 -16.23979,34.10103 -48.97057,8.03859 l -1.42835,0.11774 -29.26327,10.93246 -19.372,32.01475 -0.40292,11.15054 3.76754,7.91557 z"
           id="path4508"
           inkscape:connector-curvature="0"
           sodipodi:nodetypes="cccccccccccc" />
        <path
           inkscape:connector-curvature="0"
           style="display:inline;fill:#1a1a1a;fill-opacity:1;stroke:none;stroke-width:0.26458332px;stroke-linecap:butt;stroke-linejoin:miter;stroke-opacity:1"
           d="m -441.92909,45.050995 c -25.05594,0.141984 -43.93581,21.391978 -43.93581,21.391978 0,0 -25.95414,40.085287 -12.68865,111.026807 0,0 -21.91681,52.48497 -12.68862,66.32722 0,0 5.47878,-11.24673 10.95798,-12.68863 0,0 26.96374,-31.43357 32.58717,-33.30804 0,0 0.57666,-6.9209 6.92102,-8.21862 l -6.20014,-20.61941 -6.95462,-18.90169 -6.88742,-31.85336 c 0,0 -6.59353,-16.68524 10.76161,-32.27813 0,0 42.82244,5.811943 42.31266,35.07383 0,0 4.99603,51.28475 29.46591,84.523 0,0 36.70453,58.52346 28.34399,61.99002 h 59.95138 v -48.3278 c 0,0 -0.83571,-18.50399 -5.59398,-21.96455 0,0 -8.01849,-24.28796 -23.6497,-51.72088 -16.26145,-28.53901 -40.52443,-60.576714 -60.07126,-77.212335 0,0 -0.29311,-3.88624 -8.71009,-9.085234 -11.76917,-10.541997 -23.39088,-14.213847 -33.92143,-14.154176 z"
           id="path4506" />
        <path
           style="fill:#3e3e3e;fill-opacity:1;stroke:none;stroke-width:0.26458332px;stroke-linecap:butt;stroke-linejoin:miter;stroke-opacity:1"
           d="m -427.74386,121.00271 -3.56852,1.83524 c 0,0 -16.61913,1.12154 -24.36792,8.05467 l -6.11747,2.03916 c 0,0 -13.86626,0.10196 -20.90135,8.15662 0,0 4.5881,8.97229 8.76837,8.97229 0,0 10.09382,1.52936 15.08976,-5.40376 0,0 -1.2235,-8.97229 1.22349,-9.686 0,0 1.9372,-2.14111 5.30181,3.36461 0,0 3.77244,6.42334 12.74472,2.6509 0,0 8.97229,-3.26265 10.19578,-6.83117 0,0 -2.03915,-7.64683 -0.20391,-8.05467 l 2.286,-1.38128 z"
           id="path4503"
           inkscape:connector-curvature="0"
           sodipodi:nodetypes="cccccccccccccc" />
        <path
           style="fill:#1a1a1a;fill-opacity:1;stroke:none;stroke-width:0.26458332px;stroke-linecap:butt;stroke-linejoin:miter;stroke-opacity:1"
           d="m -498.55355,177.46978 c 0,0 -25.55817,42.6828 -13.3055,90.0463 0,0 40.41144,-66.53992 13.3055,-90.0463 z"
           id="path4954"
           inkscape:connector-curvature="0" />
      </g>
    </g>
  </g>
  <g
     inkscape:groupmode="layer"
     id="layer5"
     inkscape:label="Camada 5"
     style="display:inline"
     transform="translate(618.58808,86.14365)" />
</svg>
