<?xml version="1.0" encoding="UTF-8" standalone="no"?>
<!-- Created with Inkscape (http://www.inkscape.org/) -->

<svg
        xmlns:dc="http://purl.org/dc/elements/1.1/"
        xmlns:cc="http://creativecommons.org/ns#"
        xmlns:rdf="http://www.w3.org/1999/02/22-rdf-syntax-ns#"
        xmlns="http://www.w3.org/2000/svg"
        xmlns:sodipodi="http://sodipodi.sourceforge.net/DTD/sodipodi-0.dtd"
        xmlns:inkscape="http://www.inkscape.org/namespaces/inkscape"
        width="1920"
        height="1080"
        viewBox="0 0 508 285.75001"
        version="1.1"
        id="svg8"
        inkscape:version="0.92.1 r15371"
        sodipodi:docname="castro minimal.svg"
        inkscape:export-filename="C:\Users\Gabriel\Desktop\castro.png"
        inkscape:export-xdpi="96"
        inkscape:export-ydpi="96">
  <defs
     id="defs2" />
  <sodipodi:namedview
     id="base"
     pagecolor="#ffffff"
     bordercolor="#666666"
     borderopacity="1.0"
     inkscape:pageopacity="0.0"
     inkscape:pageshadow="2"
     inkscape:zoom="1.2699167"
     inkscape:cx="1653.3788"
     inkscape:cy="132.54882"
     inkscape:document-units="mm"
     inkscape:current-layer="layer2"
     showgrid="false"
     inkscape:window-width="1600"
     inkscape:window-height="838"
     inkscape:window-x="-8"
     inkscape:window-y="-8"
     inkscape:window-maximized="1"
     units="px"
     inkscape:snap-page="true" />
  <metadata
     id="metadata5">
    <rdf:RDF>
      <cc:Work
         rdf:about="">
        <dc:format>image/svg+xml</dc:format>
        <dc:type
           rdf:resource="http://purl.org/dc/dcmitype/StillImage" />
        <dc:title />
      </cc:Work>
    </rdf:RDF>
  </metadata>
  <g
     inkscape:label="Camada 1"
     inkscape:groupmode="layer"
     id="layer1"
     transform="translate(0,-11.249939)" />
  <g
     inkscape:groupmode="layer"
     id="layer4"
     inkscape:label="Camada 4"
     style="display:inline"
     transform="translate(0,-794.24994)" />
  <g
     inkscape:groupmode="layer"
     id="layer5"
     inkscape:label="Camada 5"
     transform="translate(0,-794.24994)" />
  <g
     inkscape:groupmode="layer"
     id="layer6"
     inkscape:label="Camada 6"
     transform="translate(0,-794.24994)" />
  <g
     inkscape:groupmode="layer"
     id="layer3"
     inkscape:label="Camada 3"
     transform="translate(0,-794.24994)" />
  <g
     inkscape:groupmode="layer"
     id="layer2"
     inkscape:label="Camada 2"
     transform="translate(0,-794.24994)">
    <rect
       style="display:inline;fill:#1a1a1a;stroke:none;stroke-width:0.2648268"
       id="rect4530"
       width="507.99997"
       height="285.75"
       x="3.0523363e-005"
       y="794.24994" />
    <g
       style="stroke-width:3.79919744"
       id="g4502"
       transform="matrix(0.26294407,0,0,0.26348312,1.6126984,794.43828)">
      <path
         sodipodi:nodetypes="ccccccccccccccccscc"
         inkscape:connector-curvature="0"
         id="path4523"
         d="m 1693.4798,425.37753 39.5303,47.4364 c 0,0 117.0102,24.93806 137.2498,56.56233 -3.8454,-7.19717 8.3497,35.05073 4.427,59.81499 0,0 41.744,198.60044 20.2395,308.65291 0,0 -63.2485,68.30843 -72.1033,68.30843 l 26.5644,117.64231 -407.3207,1.265 -2.5299,-91.07795 c 0,0 -70.8384,-185.95073 -65.7785,-225.16483 0,0 10.1198,-34.15421 20.2396,-30.3593 0,0 -10.1198,-20.23953 10.1197,-35.41918 0,0 -11.3847,-12.64971 6.3249,-31.62428 0,0 3.7949,-30.3593 12.6497,-36.68415 0,0 -3.7949,-56.9237 30.3593,-130.29201 0,0 64.5135,-26.56439 72.1033,-20.23953 0,0 39.8467,-13.28219 40.1629,-27.82936 0.3162,-14.54717 127.762,-30.99179 127.762,-30.99179 z"
         style="display:inline;fill:#000000;stroke:#000000;stroke-width:1.00520432px;stroke-linecap:butt;stroke-linejoin:miter;stroke-opacity:1" />
      <path
         inkscape:connector-curvature="0"
         id="path4528"
         d="m 1582.8588,509.44375 44.2537,9.48293 -26.8683,30.81951 -6.3219,96.40977 -49.7854,227.5903 13.4341,-226.80004 22.1269,-100.36101 -2.3708,-37.9317 z"
         style="fill:#cccccc;stroke:#000000;stroke-width:1.00520432px;stroke-linecap:butt;stroke-linejoin:miter;stroke-opacity:1" />
      <path
         sodipodi:nodetypes="ccccccccccccccc"
         inkscape:connector-curvature="0"
         id="path4513"
         d="m 1693.4795,353.90656 -2.8459,-42.37644 34.7866,18.02599 c 0,0 22.1371,35.41905 -25.9318,67.35955 0,0 -7.2736,21.18828 -6.0086,28.46186 0,0 -4.7436,48.06889 -90.4454,75.89825 0,0 -31.9405,-18.02583 -37.3166,-44.90646 l 0.3162,-14.54717 c 1.2473,1.1388 -34.9639,-35.71842 -18.0258,-107.20629 0.7111,2.48869 -13.6382,-15.1591 11.0682,-78.11213 l 59.4539,-30.99161 55.6587,0.94873 30.6756,37.94913 -19.2908,82.53935 z"
         style="fill:#deaa87;stroke:none;stroke-width:1.00520432px;stroke-linecap:butt;stroke-linejoin:miter;stroke-opacity:1" />
      <path
         inkscape:connector-curvature="0"
         id="path4505"
         transform="scale(0.26458333)"
         d="m 6179.9316,784.49219 c -72.065,0.39919 -127.1953,11.66015 -127.1953,11.66015 -206.7779,64.54341 -160.164,173.31055 -160.164,173.31055 93.2292,25.10018 267.7363,-64.54297 267.7363,-64.54297 54.9815,13.14773 87.2539,-26.29492 87.2539,-26.29492 21.5142,-5.97623 129.0859,69.32422 129.0859,69.32422 l -11.9531,11.95312 c -60.9573,16.73348 -41.832,178.09176 -41.832,178.09176 50.2004,52.591 32.2715,117.1329 32.2715,117.1329 -64.5434,107.5723 45.4179,82.4726 45.4179,82.4726 31.0764,-157.7727 120.7207,-92.0332 120.7207,-92.0332 C 6571.4739,1112.8939 6504.541,975.43945 6504.541,975.43945 6467.1896,813.33393 6300.04,783.82687 6179.9316,784.49219 Z"
         style="fill:#cccccc;stroke:none;stroke-width:3.7991972px;stroke-linecap:butt;stroke-linejoin:miter;stroke-opacity:1" />
    </g>
    <g
       aria-label="Zastim"
       style="font-style:normal;font-variant:normal;font-weight:normal;font-stretch:normal;font-size:4.22528267px;line-height:1.25;font-family:'Comic Sans MS';-inkscape-font-specification:'Comic Sans MS, Normal';font-variant-ligatures:normal;font-variant-caps:normal;font-variant-numeric:normal;font-feature-settings:normal;text-align:start;letter-spacing:0px;word-spacing:0px;writing-mode:lr-tb;text-anchor:start;fill:#666666;fill-opacity:1;stroke:none;stroke-width:0.10563108"
       id="text4503">
      <path
         d="m 495.77687,1076.3208 -0.27853,0.1898 q -0.37549,0.2909 -0.85,0.9304 l -0.72416,1.0543 q -0.0516,0.078 -0.1011,0.1444 l 0.80256,-0.031 q 0.5261,-0.025 0.80462,-0.025 0.27233,0 0.40231,0.025 0.16711,0.033 0.1733,0.1691 0.004,0.1011 -0.066,0.161 -0.0619,0.051 -0.15473,0.051 -0.0598,0 -0.17949,-0.01 -0.11967,-0.01 -0.1795,-0.01 -0.31359,0 -0.94284,0.014 -0.6272,0.017 -0.94079,0.017 -0.23726,0 -0.23726,-0.2084 0,-0.1362 0.12791,-0.3425 l 0.22076,-0.3074 0.74479,-1.0357 q 0.46007,-0.6086 0.85619,-0.9449 l -0.72209,0.041 h -0.8335 q -0.0227,0 -0.0681,0 -0.0433,0 -0.064,0 -0.21869,0 -0.21869,-0.2125 0,-0.1403 0.1114,-0.1856 0.0681,-0.029 0.22489,-0.029 0.14235,0 0.42294,0.031 0.28264,0.029 0.425,0.029 0.15886,0 0.47452,-0.021 0.31772,-0.021 0.47864,-0.021 0.53023,0 0.53023,0.2002 0,0.1361 -0.23932,0.3136 z"
         style="font-style:normal;font-variant:normal;font-weight:normal;font-stretch:normal;font-size:4.22528267px;font-family:'Comic Sans MS';-inkscape-font-specification:'Comic Sans MS, Normal';font-variant-ligatures:normal;font-variant-caps:normal;font-variant-numeric:normal;font-feature-settings:normal;text-align:start;writing-mode:lr-tb;text-anchor:start;fill:#666666;stroke-width:0.10563108"
         id="path4506" />
      <path
         d="m 498.00092,1079.0379 q -0.0392,0 -0.14236,-0.091 -0.0928,-0.085 -0.13823,-0.1506 -0.19806,0.1073 -0.34867,0.1609 -0.15061,0.056 -0.2517,0.056 -0.48277,0 -0.70353,-0.2723 -0.20837,-0.2558 -0.20837,-0.784 0,-0.4993 0.34248,-0.8541 0.34454,-0.3549 0.82112,-0.3549 0.17949,0 0.40231,0.093 0.28059,0.1155 0.28059,0.2785 0,0.056 -0.0413,0.099 -0.0206,0.078 -0.033,0.2579 -0.0103,0.1795 -0.0124,0.4601 -0.002,0.2558 0.0351,0.4044 0.0206,0.091 0.12998,0.3631 0.0144,0.037 0.0474,0.1093 l 0.0124,0.035 q 0,0.082 -0.0578,0.1362 -0.0578,0.054 -0.1341,0.054 z m -0.42913,-1.4339 q 0,-0.089 0.0103,-0.1918 0.0124,-0.1053 0.0351,-0.2229 -0.0763,-0.039 -0.13204,-0.058 -0.0536,-0.019 -0.0867,-0.019 -0.31978,0 -0.55292,0.262 -0.23107,0.26 -0.23107,0.6004 0,0.3383 0.11967,0.5075 0.11966,0.1692 0.35898,0.1692 0.19806,0 0.33629,-0.072 0.0743,-0.039 0.20838,-0.1568 -0.066,-0.5467 -0.066,-0.8191 z"
         style="font-style:normal;font-variant:normal;font-weight:normal;font-stretch:normal;font-size:4.22528267px;font-family:'Comic Sans MS';-inkscape-font-specification:'Comic Sans MS, Normal';font-variant-ligatures:normal;font-variant-caps:normal;font-variant-numeric:normal;font-feature-settings:normal;text-align:start;writing-mode:lr-tb;text-anchor:start;fill:#666666;stroke-width:0.10563108"
         id="path4508" />
      <path
         d="m 499.94438,1077.3131 q -0.11347,0 -0.15886,-0.076 -0.031,-0.054 -0.0536,-0.2228 -0.15474,0.039 -0.47658,0.1444 -0.33217,0.132 -0.33423,0.326 0.0619,0.023 0.12172,0.033 0.47452,0.085 0.70559,0.2331 0.33629,0.2166 0.33629,0.6272 0,0.3363 -0.2909,0.5075 -0.24138,0.1403 -0.61068,0.1403 -0.27027,0 -0.51578,-0.091 -0.31773,-0.1155 -0.31773,-0.3218 0,-0.082 0.064,-0.1444 0.066,-0.062 0.14855,-0.062 0.0639,0 0.16505,0.099 0.0495,0.048 0.22281,0.078 0.13823,0.025 0.23314,0.025 0.1733,0 0.30534,-0.041 0.19187,-0.06 0.19187,-0.1898 0,-0.2806 -0.39199,-0.3796 l -0.21457,-0.048 q -0.27439,-0.06 -0.38993,-0.1403 -0.16711,-0.1155 -0.16711,-0.3486 0,-0.4312 0.40643,-0.6148 0.12379,-0.056 0.39612,-0.1321 0.27234,-0.078 0.38993,-0.132 0.0846,-0.037 0.18362,-0.037 0.0887,0 0.14442,0.058 0.0578,0.058 0.0578,0.1506 0,0.06 0.0248,0.1754 0.0268,0.1155 0.0268,0.1754 0,0.093 -0.0578,0.1506 -0.0557,0.058 -0.14442,0.058 z"
         style="font-style:normal;font-variant:normal;font-weight:normal;font-stretch:normal;font-size:4.22528267px;font-family:'Comic Sans MS';-inkscape-font-specification:'Comic Sans MS, Normal';font-variant-ligatures:normal;font-variant-caps:normal;font-variant-numeric:normal;font-feature-settings:normal;text-align:start;writing-mode:lr-tb;text-anchor:start;fill:#666666;stroke-width:0.10563108"
         id="path4510" />
      <path
         d="m 501.98688,1077.1439 q -0.0433,0 -0.10316,-0 -0.0578,-0 -0.10109,-0 -0.0475,0 -0.28059,0.031 l 0.0392,1.2194 0.002,0.091 0.002,0.1052 q 0.008,0.4519 -0.21663,0.4519 -0.0825,0 -0.14442,-0.054 -0.0598,-0.054 -0.0598,-0.1341 0,-0.078 0.006,-0.2352 0.006,-0.1568 0.006,-0.2352 l -0.0413,-1.2048 q -0.15061,-0.01 -0.45802,-0.035 -0.18362,-0.025 -0.18362,-0.2043 0,-0.091 0.0557,-0.1506 0.0557,-0.06 0.14235,-0.06 l 0.43326,0.035 q 0,-0.1052 -0.0103,-0.2806 -0.008,-0.1774 -0.008,-0.2558 0,-0.087 0.0598,-0.1424 0.0598,-0.058 0.14648,-0.058 0.18569,0 0.21663,0.3033 0.006,0.076 0.006,0.1836 l -0.004,0.1197 -0.002,0.1279 q 0.25583,-0.033 0.29297,-0.033 0.21456,0 0.28058,0.021 0.12585,0.041 0.12585,0.194 0,0.091 -0.0578,0.1506 -0.0557,0.058 -0.14441,0.058 z"
         style="font-style:normal;font-variant:normal;font-weight:normal;font-stretch:normal;font-size:4.22528267px;font-family:'Comic Sans MS';-inkscape-font-specification:'Comic Sans MS, Normal';font-variant-ligatures:normal;font-variant-caps:normal;font-variant-numeric:normal;font-feature-settings:normal;text-align:start;writing-mode:lr-tb;text-anchor:start;fill:#666666;stroke-width:0.10563108"
         id="path4512" />
      <path
         d="m 502.98956,1076.2898 q -0.099,0 -0.17124,-0.07 -0.0722,-0.07 -0.0722,-0.1692 0,-0.099 0.0722,-0.1692 0.0722,-0.07 0.17124,-0.07 0.099,0 0.16917,0.07 0.0722,0.07 0.0722,0.1692 0,0.099 -0.0722,0.1692 -0.0701,0.07 -0.16917,0.07 z m 0.0928,1.6753 q 0,0.1238 0.006,0.3713 0.008,0.2455 0.008,0.3693 0,0.091 -0.0557,0.1486 -0.0557,0.058 -0.14648,0.058 -0.0887,0 -0.14648,-0.058 -0.0557,-0.058 -0.0557,-0.1486 0,-0.1238 -0.008,-0.3693 -0.006,-0.2475 -0.006,-0.3713 0,-0.194 0.0206,-0.4828 0.0206,-0.2909 0.0206,-0.4848 0,-0.093 0.0557,-0.1506 0.0578,-0.058 0.14648,-0.058 0.0887,0 0.14442,0.058 0.0578,0.058 0.0578,0.1506 0,0.1939 -0.0206,0.4848 -0.0206,0.2888 -0.0206,0.4828 z"
         style="font-style:normal;font-variant:normal;font-weight:normal;font-stretch:normal;font-size:4.22528267px;font-family:'Comic Sans MS';-inkscape-font-specification:'Comic Sans MS, Normal';font-variant-ligatures:normal;font-variant-caps:normal;font-variant-numeric:normal;font-feature-settings:normal;text-align:start;writing-mode:lr-tb;text-anchor:start;fill:#666666;stroke-width:0.10563108"
         id="path4514" />
      <path
         d="m 506.40403,1079.073 q -0.16918,0 -0.19806,-0.1795 -0.0371,-0.227 -0.0743,-0.6396 l -0.0702,-0.6396 q -0.0206,-0.1423 -0.0702,-0.2785 -0.0701,-0.1857 -0.15267,-0.1857 -0.0763,0 -0.28471,0.13 -0.19806,0.1197 -0.25995,0.1919 -0.002,0.1939 0.0103,0.3879 l 0.0619,0.5508 q 0.0392,0.326 0.0392,0.5385 0,0.091 -0.0578,0.1485 -0.0557,0.06 -0.14442,0.06 -0.0887,0 -0.14648,-0.06 -0.0557,-0.058 -0.0557,-0.1485 0,-0.2497 -0.0516,-0.7366 -0.0495,-0.4889 -0.0495,-0.7386 0,-0.2186 -0.0619,-0.3404 -0.14442,0.066 -0.29297,0.2146 l -0.24345,0.2723 q -0.033,0.05 -0.10522,0.13 0,0.1238 -0.0227,0.3652 -0.0227,0.2414 -0.0227,0.3569 0,0.062 0.0186,0.1733 0.0206,0.1114 0.0206,0.1609 0,0.085 -0.0639,0.1424 -0.0619,0.058 -0.14648,0.058 -0.23314,0 -0.23314,-0.5303 0,-0.1238 0.0227,-0.3693 0.0227,-0.2455 0.0227,-0.3693 0,-0.1093 -0.0206,-0.328 -0.0186,-0.2187 -0.0186,-0.3301 0,-0.4683 0.21044,-0.4683 0.0805,0 0.14648,0.07 0.0681,0.07 0.0681,0.1527 0,0.039 -0.0103,0.1217 -0.0103,0.082 -0.0103,0.1259 l 0.004,0.2166 q 0.10728,-0.2208 0.31566,-0.3982 0.20837,-0.1795 0.35486,-0.1795 0.32391,0 0.44563,0.3219 0.11347,-0.1507 0.27027,-0.2249 0.1568,-0.076 0.35899,-0.076 0.34454,0 0.47039,0.3714 0.0248,0.074 0.0846,0.5797 0.0578,0.3549 0.14854,1.1822 0.006,0.082 -0.0557,0.1403 -0.0619,0.058 -0.15061,0.058 z"
         style="font-style:normal;font-variant:normal;font-weight:normal;font-stretch:normal;font-size:4.22528267px;font-family:'Comic Sans MS';-inkscape-font-specification:'Comic Sans MS, Normal';font-variant-ligatures:normal;font-variant-caps:normal;font-variant-numeric:normal;font-feature-settings:normal;text-align:start;writing-mode:lr-tb;text-anchor:start;fill:#666666;stroke-width:0.10563108"
         id="path4516" />
    </g>
  </g>
</svg>
