<?xml version="1.0" encoding="UTF-8" standalone="no"?>
<!-- Created with Inkscape (http://www.inkscape.org/) -->

<svg
        xmlns:dc="http://purl.org/dc/elements/1.1/"
        xmlns:cc="http://creativecommons.org/ns#"
        xmlns:rdf="http://www.w3.org/1999/02/22-rdf-syntax-ns#"
        xmlns="http://www.w3.org/2000/svg"
        xmlns:sodipodi="http://sodipodi.sourceforge.net/DTD/sodipodi-0.dtd"
        xmlns:inkscape="http://www.inkscape.org/namespaces/inkscape"
        width="1980"
        height="1080"
        viewBox="0 0 523.87499 285.75001"
        version="1.1"
        id="svg8"
        inkscape:version="0.92.1 r15371"
        sodipodi:docname="Comin hawks vetor.svg">
  <defs
     id="defs2">
    <clipPath
       clipPathUnits="userSpaceOnUse"
       id="clipPath4502">
      <path
         id="path4504"
         style="fill:#ffd42a;fill-opacity:1;stroke:none;stroke-width:1.60000002;stroke-miterlimit:4;stroke-dasharray:none;stroke-opacity:1"
         d="M 220.43053,269.18202 293.34112,342.17018 122.0269,513.30233 49.116307,440.31416 Z"
         inkscape:connector-curvature="0" />
    </clipPath>
  </defs>
  <sodipodi:namedview
     id="base"
     pagecolor="#ffffff"
     bordercolor="#666666"
     borderopacity="1.0"
     inkscape:pageopacity="0.0"
     inkscape:pageshadow="2"
     inkscape:zoom="0.35355339"
     inkscape:cx="960.78491"
     inkscape:cy="766.13338"
     inkscape:document-units="mm"
     inkscape:current-layer="layer1"
     showgrid="false"
     units="px"
     inkscape:snap-global="false"
     inkscape:snap-page="true"
     inkscape:object-paths="true"
     inkscape:snap-intersection-paths="true"
     inkscape:window-width="1600"
     inkscape:window-height="838"
     inkscape:window-x="-8"
     inkscape:window-y="-8"
     inkscape:window-maximized="1" />
  <metadata
     id="metadata5">
    <rdf:RDF>
      <cc:Work
         rdf:about="">
        <dc:format>image/svg+xml</dc:format>
        <dc:type
           rdf:resource="http://purl.org/dc/dcmitype/StillImage" />
        <dc:title></dc:title>
      </cc:Work>
    </rdf:RDF>
  </metadata>
  <g
     inkscape:label="Camada 1"
     inkscape:groupmode="layer"
     id="layer1"
     transform="translate(0,-11.249983)">
    <rect
       style="fill:#2a7fff;fill-opacity:1;stroke:none;stroke-width:10.65272713;stroke-miterlimit:4;stroke-dasharray:none;stroke-opacity:1"
       id="rect4723"
       width="523.875"
       height="285.75"
       x="2.220446e-016"
       y="11.249983" />
    <path
       style="fill:#000000;fill-opacity:1;stroke:none;stroke-width:2.15972996;stroke-miterlimit:4;stroke-dasharray:none;stroke-opacity:1"
       d=""
       id="path4562"
       inkscape:connector-curvature="0"
       transform="matrix(0.26458333,0,0,0.26458333,0,11.249983)" />
    <path
       style="fill:#000000;fill-opacity:1;stroke:none;stroke-width:2.15972996;stroke-miterlimit:4;stroke-dasharray:none;stroke-opacity:1"
       d=""
       id="path4590"
       inkscape:connector-curvature="0"
       transform="matrix(0.26458333,0,0,0.26458333,0,11.249983)" />
    <path
       style="fill:#000000;fill-opacity:1;stroke:none;stroke-width:2.15972996;stroke-miterlimit:4;stroke-dasharray:none;stroke-opacity:1"
       d=""
       id="path4592"
       inkscape:connector-curvature="0"
       transform="matrix(0.26458333,0,0,0.26458333,0,11.249983)" />
    <path
       style="fill:#000000;fill-opacity:1;stroke:none;stroke-width:2.15972996;stroke-miterlimit:4;stroke-dasharray:none;stroke-opacity:1"
       d=""
       id="path4594"
       inkscape:connector-curvature="0"
       transform="matrix(0.26458333,0,0,0.26458333,0,11.249983)" />
    <path
       style="fill:#000000;fill-opacity:1;stroke:none;stroke-width:2.15972996;stroke-miterlimit:4;stroke-dasharray:none;stroke-opacity:1"
       d=""
       id="path4624"
       inkscape:connector-curvature="0"
       transform="matrix(0.26458333,0,0,0.26458333,0,11.249983)" />
    <path
       style="fill:#000000;fill-opacity:1;stroke:none;stroke-width:2.15972996;stroke-miterlimit:4;stroke-dasharray:none;stroke-opacity:1"
       d=""
       id="path4626"
       inkscape:connector-curvature="0"
       transform="matrix(0.26458333,0,0,0.26458333,0,11.249983)" />
    <path
       style="fill:#000000;fill-opacity:1;stroke:none;stroke-width:2.15972996;stroke-miterlimit:4;stroke-dasharray:none;stroke-opacity:1"
       d=""
       id="path4628"
       inkscape:connector-curvature="0"
       transform="matrix(0.26458333,0,0,0.26458333,0,11.249983)" />
    <path
       style="fill:#000000;fill-opacity:1;stroke:none;stroke-width:2.15972996;stroke-miterlimit:4;stroke-dasharray:none;stroke-opacity:1"
       d=""
       id="path4630"
       inkscape:connector-curvature="0"
       transform="matrix(0.26458333,0,0,0.26458333,0,11.249983)" />
    <rect
       style="fill:#000000;fill-opacity:1;stroke:none;stroke-width:1.60000002;stroke-miterlimit:4;stroke-dasharray:none;stroke-opacity:1"
       id="rect4680"
       width="14.930058"
       height="10.583333"
       x="409.37457"
       y="257.21915" />
    <path
       style="fill:#ffccaa;stroke:none;stroke-width:0.26458332px;stroke-linecap:butt;stroke-linejoin:miter;stroke-opacity:1"
       d="m 435.92546,47.814756 c 0,0 1.32292,-17.008929 16.25298,-16.441964 0,0 14.17411,0.566964 12.28423,16.630952 0,0 6.23661,0.188988 -1.88988,11.150298 l 3.77976,5.291667 c 0,0 -14.55208,9.071428 -24.19047,4.535714 0,0 -6.99258,-11.906251 -6.23662,-21.166667 z"
       id="path4506"
       inkscape:connector-curvature="0" />
    <path
       style="fill:#000000;stroke-width:0.29886696"
       d="m 428.58631,277.57118 c 0.80522,-1.16607 1.01235,-2.02402 0.82457,-3.41551 -0.19963,-1.47917 -1.14978,-2.48479 -2.21262,-2.34174 -0.40288,0.0542 0.0383,-0.36521 1.14636,-1.08998 5.12289,-3.35064 18.92126,-12.16283 26.63417,-17.00968 l 8.73704,-5.49039 0.83412,0.43349 c 0.45878,0.23842 1.44828,0.64689 2.19893,0.90772 1.31791,0.45795 1.35125,0.45547 0.97044,-0.0717 -0.2169,-0.3003 -0.43209,-0.8256 -0.47822,-1.16734 -0.0994,-0.73661 0.45033,-2.94289 0.68811,-2.76166 0.0908,0.0692 0.006,0.59086 -0.18721,1.15922 -0.49095,1.43987 0.27698,3.19935 1.45402,3.33147 1.94214,0.21796 2.56196,-3.36803 0.81262,-4.70136 l -0.83804,-0.63877 1.21305,-0.72565 c 5.4075,-3.23479 6.56361,-4.32073 6.31981,-5.9364 -0.0548,-0.36375 -0.18232,-0.26583 -0.45957,0.35308 -0.211,0.47103 -0.82325,1.18693 -1.36056,1.59089 -0.86083,0.6472 -10.3989,6.46484 -31.22675,19.04642 -3.45071,2.08449 -10.22599,6.18241 -15.0562,9.1065 -12.14798,7.35409 -11.87836,7.20775 -14.2139,7.71488 -1.72684,0.37497 -2.6947,0.37709 -5.75943,0.0125 -10.25917,-1.2207 -19.63911,-3.67506 -22.90588,-5.99355 -0.59652,-0.42338 -1.13713,-0.76267 -1.20135,-0.75401 -0.0643,0.009 -0.0611,0.42878 0.006,0.93357 0.15008,1.11218 1.19422,1.91325 4.67572,3.5873 5.69563,2.73866 14.01245,4.8766 19.51451,5.01644 3.70046,0.0941 5.33651,-0.13254 8.0082,-1.10908 l 2.14699,-0.78477 1.55133,0.72349 c 2.34007,1.09132 3.53773,1.31206 5.69306,1.04927 1.66507,-0.20304 2.03867,-0.35046 2.4696,-0.97447 z m -4.65539,-1.56297 c -0.12827,-0.95043 -0.0105,-1.52509 0.45569,-2.21451 l 0.62888,-0.93103 -0.40657,1.41195 c -0.49039,1.70305 -0.45937,2.07047 0.26091,3.09043 0.75942,1.07538 0.72414,1.29266 -0.0888,0.54726 -0.44391,-0.40703 -0.73648,-1.06233 -0.85008,-1.9041 z m 2.21538,0.77315 c -1.30534,-0.99494 -1.01904,-3.17983 0.4425,-3.37706 1.62136,-0.2188 2.57033,1.60523 1.56656,3.0111 -0.6762,0.94709 -1.13659,1.03095 -2.00906,0.36596 z m 42.24427,-28.46983 c -0.32712,-0.51984 -0.37747,-0.89294 -0.19984,-1.4809 0.50645,-1.6764 2.4142,-0.65018 2.20793,1.18767 -0.12173,1.08458 -1.39328,1.27025 -2.00809,0.29322 z m -51.88175,26.33111 c 0.70328,-0.31951 6.79758,-3.93273 13.54289,-8.02938 6.7453,-4.09663 14.9626,-9.07362 18.26068,-11.05996 14.88872,-8.96712 26.11859,-15.83471 26.7006,-16.32864 0.34876,-0.296 0.81504,-1.16184 1.03615,-1.92408 0.39895,-1.37531 0.39623,-1.39536 -0.35582,-2.61988 -0.92793,-1.51139 -2.89262,-2.62953 -5.23816,-2.98107 -1.35452,-0.20301 -2.48506,-0.11239 -5.5385,0.44392 -4.98107,0.90752 -8.78287,2.30423 -15.66944,5.75667 -8.13834,4.07999 -36.47376,17.5818 -53.85703,25.66281 -1.80559,0.83938 -4.69066,1.9212 -6.41125,2.40407 -3.4825,0.97735 -4.21668,1.37244 -4.10384,2.20854 0.22092,1.63705 5.26844,3.71444 13.01517,5.35659 9.99378,2.11847 15.65624,2.4562 18.61831,1.11045 z m -0.10189,-9.92889 c -0.62797,-0.57793 -0.25332,-1.36113 0.71345,-1.49159 0.90347,-0.12192 1.41002,0.3748 1.2165,1.19293 -0.13841,0.58514 -1.40559,0.78125 -1.92995,0.29863 z m 1.0862,-0.65497 c -0.0232,-0.1725 -0.1645,-0.2133 -0.31381,-0.0906 -0.14932,0.12262 -0.26354,0.2818 -0.25385,0.35363 0.0105,0.0718 0.1509,0.11262 0.3138,0.0906 0.1629,-0.022 0.27713,-0.18111 0.25386,-0.35363 z m 3.83523,-1.81323 c -0.88043,-0.47783 -0.56682,-1.32422 0.54631,-1.47444 1.11313,-0.15021 1.63988,0.58278 0.91762,1.27689 -0.27215,0.26152 -0.57717,0.48663 -0.67781,0.50021 -0.10063,0.0135 -0.45439,-0.12262 -0.78612,-0.30266 z m -9.337,0.71784 c -0.5831,-0.44444 -0.0888,-1.44969 0.76981,-1.56558 0.85862,-0.11586 1.60171,0.72241 1.15728,1.30552 -0.16252,0.21321 -0.57536,0.42541 -0.91747,0.47157 -0.34207,0.0462 -0.7964,-0.049 -1.00962,-0.21151 z m 4.77503,-2.37461 c -0.27859,-0.12798 -0.39368,-0.44401 -0.31839,-0.87433 0.0938,-0.53632 0.31127,-0.6811 1.06501,-0.70913 0.64495,-0.0241 1.0048,0.13787 1.1279,0.50739 0.28927,0.8684 -0.87352,1.53592 -1.87452,1.07607 z m 1.05571,-0.79645 c -0.0233,-0.17252 -0.1645,-0.21331 -0.31382,-0.0906 -0.14931,0.12262 -0.26353,0.2818 -0.25385,0.35363 0.0105,0.0718 0.15092,0.11261 0.31382,0.0906 0.16289,-0.022 0.27713,-0.18112 0.25385,-0.35363 z m 39.09479,-16.69208 c -0.59392,-0.27261 -0.35864,-1.18373 0.32964,-1.27661 0.80782,-0.10901 1.39705,0.42733 1.06071,0.96553 -0.31518,0.50427 -0.75506,0.60269 -1.39035,0.31108 z m -4.30824,-0.48674 c -0.55221,-0.50821 -0.28481,-1.03029 0.58805,-1.14809 0.94297,-0.12724 1.33719,0.41674 0.72696,1.00317 -0.62256,0.59828 -0.80104,0.61795 -1.315,0.14499 z m 6.27546,-1.46322 c -0.0499,-0.36966 0.13891,-0.65089 0.5022,-0.74804 0.82646,-0.22107 1.50408,0.17221 1.35835,0.7883 -0.18338,0.77525 -1.7551,0.74124 -1.86055,-0.0402 z m -3.68472,0.008 c -0.57079,-0.43506 -0.26494,-1.13381 0.54405,-1.24298 0.82696,-0.11161 1.39218,0.64928 0.8319,1.11987 -0.51155,0.42965 -0.92522,0.46665 -1.37595,0.12311 z"
       id="path4678"
       inkscape:connector-curvature="0"
       sodipodi:nodetypes="csccsccccssccsccccccscccsscsccccccscccccscsccccscccsccccccscssscccscccscssscscsccscsccccccscssscscccscccsccssscs" />
    <path
       style="fill:#666666;stroke-width:0.03623298"
       d="m 435.75702,254.07025 c 0.21659,-0.26636 0.27333,-0.31523 0.47411,-0.40834 0.22618,-0.10496 0.2313,-0.10533 0.62128,-0.0503 l 0.39321,0.0555 0.22806,-0.29676 c 0.21342,-0.27771 0.24865,-0.30772 0.54938,-0.46777 0.17672,-0.0941 0.33302,-0.16883 0.34734,-0.16608 0.0141,0.002 0.0692,0.0685 0.12206,0.14628 0.075,0.11034 0.10767,0.13315 0.14883,0.10392 0.0291,-0.0202 0.10497,-0.0671 0.16883,-0.10347 l 0.11609,-0.0661 -0.0689,-0.174 -0.0689,-0.17397 0.22383,-0.16959 c 0.12311,-0.0932 0.23638,-0.16693 0.25169,-0.16379 0.0152,0.003 0.0784,0.0575 0.14031,0.12078 0.0619,0.0633 0.13218,0.10786 0.15616,0.0991 0.024,-0.009 0.22187,-0.20826 0.43967,-0.44329 0.6707,-0.72374 1.20928,-1.46597 1.19088,-1.64117 -0.012,-0.11389 -0.15521,-0.26986 -0.72562,-0.78964 l -0.43569,-0.39704 -0.0899,-0.47171 c -0.0494,-0.25945 -0.0988,-0.49447 -0.10965,-0.52234 -0.0107,-0.0279 -0.19455,-0.15823 -0.40812,-0.28975 l -0.38829,-0.23912 -0.0528,-0.33259 c -0.13996,-0.88159 -1.17145,-3.16496 -1.52004,-3.36491 -0.059,-0.0339 -0.20947,-0.2037 -0.33422,-0.37736 -0.21664,-0.30158 -0.22479,-0.31877 -0.18181,-0.38309 0.0247,-0.037 0.0597,-0.0791 0.0777,-0.0934 0.0364,-0.029 -2.69574,-3.7475 -2.88038,-3.92029 -0.0734,-0.0687 -0.13641,-0.17535 -0.18947,-0.32045 -0.13741,-0.37579 -0.43208,-0.50893 -0.77062,-0.34818 -0.39465,0.18743 -0.52133,0.41286 -1.08123,1.92469 -0.84974,2.29441 -0.90058,2.40316 -1.34349,2.8732 l -0.20846,0.22122 -0.56216,0.20343 c -0.38642,0.14023 -0.64839,0.21558 -0.83835,0.24171 -0.3002,0.0414 -0.96077,0.0736 -1.05825,0.0515 -0.0513,-0.0116 -0.0636,-0.0734 -0.0805,-0.40468 -0.0269,-0.53045 -0.0813,-0.87814 -0.19857,-1.27085 -0.0685,-0.22933 -0.0903,-0.36301 -0.0713,-0.43689 0.0868,-0.33706 -0.0497,-0.68932 -0.38846,-1.00266 -0.30037,-0.2778 -0.42628,-0.29924 -0.8397,-0.14299 -0.30906,0.1162 -0.50933,0.25428 -1.06488,0.73046 -0.32587,0.27933 -1.11728,1.02962 -1.37374,1.30236 l -0.16532,0.17581 -0.25847,0.009 c -0.21182,0.007 -0.33364,0.0365 -0.67536,0.16273 -0.36067,0.13295 -0.46131,0.18625 -0.74542,0.39261 -0.38872,0.2823 -0.8644,0.69977 -1.07257,0.94131 -0.23169,0.26881 -0.56161,0.79258 -0.65089,1.03328 -0.0768,0.20708 -0.0942,0.22653 -0.34227,0.3828 -0.5203,0.32778 -0.84311,0.62628 -1.33469,1.23422 -0.16013,0.19805 -0.58316,0.6443 -0.94008,0.99169 -0.35691,0.3474 -0.84209,0.85042 -1.07813,1.11782 -0.61301,0.69439 -0.81956,0.89415 -1.09397,1.058 -0.13327,0.0795 -0.3028,0.20932 -0.37682,0.28833 -0.074,0.079 -0.24784,0.21364 -0.38632,0.29914 -0.13847,0.0856 -0.53395,0.38086 -0.87881,0.65635 -0.5919,0.47281 -0.63164,0.51187 -0.70956,0.69712 -0.0559,0.13295 -0.13106,0.23384 -0.23286,0.31275 -0.0827,0.064 -0.88101,0.61075 -1.77409,1.21485 -0.89308,0.6041 -1.77314,1.21217 -1.95569,1.35127 -0.48912,0.37274 -0.69865,0.50334 -1.06866,0.66607 -0.28477,0.12521 -0.34241,0.14075 -0.39939,0.1076 -0.0883,-0.0514 -0.20203,-0.006 -0.49468,0.19855 -0.13368,0.0934 -0.33007,0.20705 -0.43638,0.25263 -0.22071,0.0946 -0.54003,0.39643 -0.74469,0.70407 -0.15366,0.23098 -0.33877,0.7762 -0.35689,1.05123 -0.007,0.11302 -0.0505,0.31886 -0.0956,0.45741 l -0.0821,0.2519 0.11579,0.12302 c 0.1685,0.17894 0.38604,0.61531 0.3425,0.68711 -0.0587,0.0967 0.0657,0.3382 0.15712,0.30479 0.0557,-0.0204 0.10084,0.0201 0.31281,0.28014 0.15564,0.19093 0.16132,0.20386 0.12741,0.28756 -0.0281,0.0695 -0.0189,0.11814 0.045,0.23521 0.0879,0.16111 0.11237,0.16609 0.205,0.0417 0.0604,-0.0809 0.0663,-0.0798 0.26085,0.0493 0.41182,0.27343 0.40008,0.25919 0.33523,0.40702 l -0.057,0.12981 0.19005,0.071 0.19005,0.071 0.0702,-0.14519 0.0702,-0.14517 0.31178,0.0476 c 0.34464,0.0526 0.37649,0.0711 0.49467,0.28772 0.0999,0.18333 0.10959,0.18324 0.63467,-0.005 0.31417,-0.11275 0.43832,-0.14058 0.62368,-0.14074 0.24029,-1.3e-4 0.25775,0.0102 0.67517,0.39927 0.008,0.009 0.21146,-0.0688 0.44996,-0.17093 0.55953,-0.24047 0.8039,-0.28649 0.9804,-0.1853 0.0704,0.0404 0.24032,0.13264 0.37772,0.20502 l 0.24982,0.13161 0.50827,-0.28519 c 0.68555,-0.38471 0.71806,-0.39054 1.46879,-0.26326 l 0.60415,0.10242 0.46604,-0.28809 c 0.68846,-0.42562 0.81857,-0.46319 1.52471,-0.44018 l 0.57309,0.0187 0.53721,-0.34764 c 0.72614,-0.4699 0.75425,-0.47863 1.44233,-0.44829 l 0.56489,0.0249 0.48145,-0.40749 c 0.64404,-0.54512 0.69398,-0.56334 1.34115,-0.48933 l 0.48459,0.0555 0.32128,-0.33093 c 0.29393,-0.30273 0.34123,-0.33821 0.55516,-0.41643 l 0.23385,-0.0855 0.0789,0.14475 c 0.0777,0.14246 0.081,0.144 0.20875,0.0973 0.0714,-0.0261 0.17412,-0.0745 0.22835,-0.10756 0.0864,-0.0528 0.0935,-0.0739 0.0576,-0.17222 -0.0731,-0.20001 -0.0586,-0.22765 0.16151,-0.30816 l 0.20054,-0.0733 0.056,0.15313 0.056,0.15313 0.16146,-0.0596 c 0.28601,-0.10531 0.30776,-0.13426 0.24046,-0.31833 -0.0587,-0.16044 -0.0585,-0.16212 0.0608,-0.22947 0.0659,-0.0372 0.18687,-0.0924 0.26869,-0.12264 l 0.14882,-0.0548 0.0469,0.18029 0.047,0.18026 0.14558,-0.0771 c 0.0801,-0.0424 0.19624,-0.0956 0.25815,-0.11825 0.11182,-0.0409 0.1123,-0.0421 0.0575,-0.22358 l -0.0551,-0.18239 0.22603,-0.094 0.22602,-0.094 0.0628,0.1717 c 0.0626,0.17111 0.0632,0.17156 0.17324,0.13089 0.0608,-0.0225 0.16371,-0.0709 0.22881,-0.10773 0.11694,-0.0661 0.11772,-0.069 0.0647,-0.24507 l -0.0537,-0.17813 0.24307,-0.10017 0.24308,-0.10017 0.0766,0.20964 c 0.0734,0.20079 0.0792,0.20774 0.1457,0.16113 0.038,-0.0267 0.14172,-0.0753 0.23055,-0.10805 l 0.16148,-0.0596 -0.0797,-0.21785 -0.0797,-0.21784 0.19418,-0.0977 0.19421,-0.0976 0.41908,0.0818 c 0.23049,0.045 0.43399,0.0764 0.4522,0.0697 0.0182,-0.007 0.14818,-0.13446 0.28883,-0.28395 0.25096,-0.26681 0.26023,-0.27303 0.50092,-0.33651 0.23216,-0.0613 0.26392,-0.0588 0.59587,0.0443 0.19287,0.0599 0.37009,0.11464 0.39384,0.12156 0.0237,0.007 0.18651,-0.11771 0.36167,-0.27699 0.31118,-0.28293 0.32521,-0.29156 0.61153,-0.37585 0.28376,-0.0835 0.3079,-0.0836 0.7591,-0.004 l 0.46603,0.082 0.27948,-0.26986 c 0.19599,-0.18925 0.34316,-0.29994 0.4927,-0.37059 0.2118,-0.10013 0.21617,-0.10035 0.66555,-0.0374 0.24879,0.0349 0.47316,0.055 0.49858,0.0447 0.0255,-0.01 0.15697,-0.15482 0.29228,-0.32129 z"
       id="path4531"
       inkscape:connector-curvature="0"
       sodipodi:nodetypes="ccscccccccccccccsscccscccccccscsccccccccccsccccccccccscccccsccssccccscccccscccccccccccsccsccccccsccccsccscccsccscssccccsccccccsccccsccccccscccccccsscccccccccccccc" />
    <rect
       style="fill:#808080;fill-opacity:1;stroke:none;stroke-width:1.60000002;stroke-miterlimit:4;stroke-dasharray:none;stroke-opacity:1"
       id="rect4537"
       width="12.695303"
       height="8.5526247"
       x="435.21365"
       y="241.30147" />
    <path
       sodipodi:nodetypes="ccscccccccccccccsscccscccccccscsccccccccccsccccccccccscccccsccssccccscccccscccccccccccsccsccccccsccccsccscccsccscssccccsccccccsccccsccccccscccccccsscccccccccccccc"
       inkscape:connector-curvature="0"
       id="path4533"
       d="m 450.19098,255.32968 c 0.20319,-0.27671 0.25745,-0.32832 0.4534,-0.43122 0.22072,-0.11599 0.22582,-0.11661 0.61804,-0.0809 l 0.39547,0.036 0.21314,-0.30764 c 0.19947,-0.2879 0.23317,-0.31961 0.52564,-0.4943 0.17187,-0.1027 0.32429,-0.18505 0.33873,-0.18301 0.0142,0.001 0.0725,0.065 0.12913,0.14008 0.0804,0.10651 0.1141,0.12768 0.15377,0.0965 0.0281,-0.0216 0.10153,-0.0722 0.16352,-0.11167 l 0.11269,-0.0718 -0.0774,-0.17039 -0.0774,-0.17036 0.21519,-0.18042 c 0.11836,-0.0992 0.22786,-0.17839 0.2433,-0.17601 0.0153,0.002 0.0811,0.0536 0.1461,0.11372 0.065,0.0602 0.13734,0.10121 0.16086,0.0913 0.0235,-0.0102 0.21133,-0.21895 0.41727,-0.46443 0.63419,-0.75594 1.13551,-1.52383 1.10849,-1.69791 -0.0176,-0.11316 -0.16833,-0.26188 -0.76369,-0.75289 l -0.45474,-0.37507 -0.11305,-0.4667 c -0.0621,-0.2567 -0.12307,-0.489 -0.13528,-0.5163 -0.0121,-0.0273 -0.20212,-0.14844 -0.42192,-0.26926 l -0.39961,-0.21968 -0.0691,-0.32958 c -0.18327,-0.87362 -1.32612,-3.10334 -1.68415,-3.28585 -0.0606,-0.0309 -0.21926,-0.19312 -0.35242,-0.36042 -0.23125,-0.29052 -0.24024,-0.30729 -0.20049,-0.37365 0.0229,-0.0382 0.0557,-0.0819 0.073,-0.0971 0.0349,-0.0308 -2.87729,-3.60998 -3.07022,-3.77346 -0.0767,-0.065 -0.14489,-0.16841 -0.20505,-0.31071 -0.15577,-0.36856 -0.45665,-0.487 -0.78685,-0.30975 -0.38493,0.20666 -0.50033,0.43807 -0.98499,1.97567 -0.73554,2.33353 -0.78096,2.44466 -1.20014,2.93597 l -0.1973,0.23123 -0.55144,0.23091 c -0.37904,0.15912 -0.63697,0.2473 -0.82541,0.28276 -0.29779,0.0562 -0.95597,0.1209 -1.05442,0.10363 -0.0518,-0.009 -0.0671,-0.0702 -0.10036,-0.40021 -0.053,-0.52848 -0.12452,-0.87306 -0.26101,-1.25951 -0.0797,-0.22568 -0.1081,-0.35812 -0.0928,-0.43284 0.0701,-0.34094 -0.0836,-0.68603 -0.43744,-0.98229 -0.31371,-0.26264 -0.44052,-0.27785 -0.84573,-0.1014 -0.30296,0.13131 -0.49617,0.27909 -1.02756,0.7821 -0.3117,0.29506 -1.06514,1.08347 -1.30783,1.36852 l -0.15645,0.18375 -0.25771,0.0217 c -0.21122,0.0174 -0.33144,0.0529 -0.66652,0.19584 -0.35367,0.15058 -0.45156,0.20878 -0.72515,0.4289 -0.37432,0.30113 -0.82883,0.74155 -1.02483,0.99306 -0.21815,0.27991 -0.52184,0.81932 -0.59914,1.06413 -0.0665,0.21061 -0.0829,0.2309 -0.32297,0.39921 -0.5035,0.35305 -0.8112,0.6671 -1.2722,1.29855 -0.15016,0.20571 -0.55067,0.67228 -0.89002,1.03685 -0.33934,0.36458 -0.79912,0.89092 -1.02169,1.16963 -0.57801,0.72378 -0.77446,0.93348 -1.04045,1.11067 -0.12919,0.086 -0.29211,0.224 -0.36214,0.30656 -0.07,0.0826 -0.23701,0.22561 -0.3711,0.31783 -0.13408,0.0923 -0.51452,0.40673 -0.84537,0.6989 -0.56786,0.50143 -0.60563,0.5424 -0.67431,0.73127 -0.0493,0.13554 -0.11937,0.24002 -0.21716,0.32385 -0.0794,0.068 -0.84981,0.65346 -1.71201,1.30087 -0.8622,0.64741 -1.7112,1.29815 -1.88666,1.44608 -0.47014,0.39641 -0.67298,0.53719 -1.03451,0.71797 -0.27825,0.1391 -0.33505,0.15747 -0.3936,0.12717 -0.0907,-0.047 -0.20208,0.004 -0.48428,0.2227 -0.12891,0.0999 -0.31946,0.22308 -0.42339,0.27385 -0.21578,0.10537 -0.51982,0.42258 -0.70906,0.73994 -0.14208,0.23828 -0.30008,0.79196 -0.30461,1.06755 -10e-4,0.11323 -0.0347,0.32097 -0.0729,0.46157 l -0.0696,0.25564 0.12172,0.11716 c 0.17712,0.17041 0.41592,0.59552 0.37597,0.66938 -0.0539,0.0995 0.0823,0.33455 0.17196,0.29667 0.0546,-0.0231 0.10171,0.0151 0.32625,0.26438 0.16486,0.18302 0.17117,0.19565 0.14143,0.28092 -0.0246,0.0708 -0.013,0.11893 0.0566,0.23271 0.0957,0.15657 0.12043,0.16034 0.20681,0.0315 0.0563,-0.0838 0.0623,-0.083 0.26296,0.0364 0.42481,0.25278 0.41238,0.23914 0.3549,0.38999 l -0.0505,0.13246 0.19332,0.0615 0.19332,0.0615 0.063,-0.14847 0.063,-0.14846 0.31375,0.0322 c 0.34681,0.0355 0.37954,0.0524 0.50826,0.26297 0.10882,0.17818 0.11849,0.17761 0.63365,-0.0363 0.30822,-0.12811 0.43085,-0.16202 0.61598,-0.17133 0.23999,-0.012 0.25794,-0.003 0.69404,0.36549 0.008,0.009 0.20781,-0.0792 0.44098,-0.19292 0.54699,-0.26777 0.78879,-0.32579 0.97007,-0.23343 0.0723,0.0369 0.24657,0.12063 0.38737,0.18615 l 0.25601,0.11912 0.49358,-0.30991 c 0.66574,-0.41805 0.69793,-0.42548 1.45402,-0.33538 l 0.60847,0.0725 0.45126,-0.31072 c 0.66663,-0.45906 0.79473,-0.503 1.50114,-0.51485 l 0.57332,-0.01 0.51941,-0.37371 c 0.70208,-0.50514 0.72973,-0.51525 1.41846,-0.51888 l 0.56543,-0.003 0.46077,-0.43074 c 0.61637,-0.57622 0.66535,-0.59688 1.31538,-0.55488 l 0.48674,0.0315 0.30457,-0.34637 c 0.27864,-0.31686 0.32413,-0.35463 0.53395,-0.44331 l 0.22934,-0.0969 0.0859,0.14069 c 0.0846,0.13845 0.088,0.13982 0.21329,0.0869 0.07,-0.0296 0.17024,-0.083 0.22277,-0.11869 0.0837,-0.057 0.0897,-0.0784 0.049,-0.17485 -0.0829,-0.19616 -0.0697,-0.22448 0.14612,-0.31575 l 0.19668,-0.0831 0.0635,0.15018 0.0635,0.15018 0.15832,-0.0675 c 0.28047,-0.11929 0.30077,-0.14928 0.22447,-0.3298 -0.0665,-0.15735 -0.0664,-0.15904 0.0494,-0.23219 0.064,-0.0404 0.18208,-0.10151 0.26231,-0.13575 l 0.14594,-0.0621 0.0557,0.17776 0.0558,0.17772 0.1416,-0.0842 c 0.0779,-0.0463 0.19128,-0.10516 0.252,-0.13083 0.10967,-0.0464 0.11009,-0.0476 0.0464,-0.22615 l -0.064,-0.17945 0.22111,-0.10503 0.22111,-0.10503 0.0712,0.16839 c 0.071,0.16781 0.0716,0.16823 0.17949,0.12219 0.0596,-0.0255 0.16001,-0.0789 0.22322,-0.11889 0.11354,-0.0718 0.11417,-0.0747 0.0525,-0.24796 l -0.0624,-0.17527 0.23784,-0.11203 0.23784,-0.11204 0.0868,0.20561 c 0.0832,0.19692 0.0894,0.20358 0.15347,0.15375 0.0366,-0.0285 0.13783,-0.0822 0.22494,-0.11929 l 0.15834,-0.0675 -0.0904,-0.21365 -0.0903,-0.21364 0.18912,-0.10716 0.18916,-0.10706 0.4226,0.061 c 0.23243,0.0336 0.43723,0.0549 0.45509,0.0473 0.0178,-0.008 0.14137,-0.1416 0.27448,-0.29785 0.23749,-0.27886 0.24644,-0.28553 0.48371,-0.3608 0.22885,-0.0727 0.2607,-0.0717 0.59733,0.0149 0.19559,0.0503 0.37529,0.0962 0.39935,0.10199 0.024,0.006 0.18048,-0.12677 0.34757,-0.29449 0.29685,-0.29793 0.31044,-0.30725 0.59225,-0.40555 0.2793,-0.0974 0.3034,-0.0987 0.75798,-0.0414 l 0.46951,0.0589 0.26583,-0.28332 c 0.18642,-0.19869 0.32795,-0.3165 0.47382,-0.39444 0.2066,-0.11045 0.21096,-0.11089 0.6629,-0.0702 0.2502,0.0226 0.47529,0.0316 0.50017,0.0201 0.025,-0.0113 0.14915,-0.16238 0.27608,-0.33532 z"
       style="fill:#666666;stroke-width:0.03623298" />
    <path
       style="fill:#4d4d4d;stroke:none;stroke-width:0.26458332px;stroke-linecap:butt;stroke-linejoin:miter;stroke-opacity:1"
       d="m 407.18408,164.08326 c 5.51941,-0.58222 7.83514,5.77774 8.00728,10.2815 -0.86839,5.83919 -0.33756,11.70121 1.22587,17.44946 1.07952,6.24124 -0.20977,12.52728 -1.4407,18.59004 -0.0808,6.77248 -0.27975,13.78998 -3.34047,19.98116 -1.27221,5.69691 2.07515,11.22839 1.2506,16.87437 3.01135,4.84899 9.88773,1.83969 14.4587,1.61578 5.5554,-1.71183 9.86081,-6.10254 16.18524,-4.65703 7.35016,0.11748 7.20317,-8.4416 8.14795,-13.66796 1.39114,-7.12833 3.15109,-14.32955 6.92173,-20.6257 2.37339,-7.72586 6.75003,-14.637 9.58557,-22.19005 2.67633,-5.77585 5.31053,-12.0278 10.46301,-16.05764 1.45015,-5.60405 2.02136,-11.51875 1.82949,-17.26216 -1.79609,-2.82594 -6.04073,-2.31784 -8.29973,-4.97781 -4.77127,-3.47772 -9.54255,-6.95544 -14.31382,-10.43316 -8.36884,0.0657 -16.73955,-0.13104 -25.10696,0.0977 -5.74322,2.23603 -11.48643,4.47206 -17.22965,6.70809 -2.6874,6.13407 -5.65672,12.13936 -8.34411,18.27341 z"
       id="path4516"
       inkscape:connector-curvature="0" />
    <path
       style="fill:#ffccaa;stroke-width:0.14742349"
       d="m 468.69669,152.38137 c -1.18106,1.89924 -1.41129,2.35639 -1.77699,3.52871 -0.67651,2.1687 -1.83514,4.5587 -3.31903,6.84645 -0.17557,0.27077 -0.31512,0.49313 -0.45253,0.7124 -0.0548,0.0749 -0.10693,0.15207 -0.15621,0.23108 -0.0468,0.0764 -0.0907,0.1544 -0.13173,0.23374 -0.37405,0.62207 -0.3618,1.29248 -0.31707,1.39028 -0.0679,-0.90551 -0.0137,1.21655 0.6457,1.65481 0.34784,0.21435 0.78375,0.26598 1.24401,0.14569 0.59073,-0.0239 1.30754,-0.29473 1.77531,-0.68527 l 0.43045,-0.3596 -0.005,0.52341 c -0.006,0.62592 0.56668,1.3445 1.29867,1.62917 0.63929,0.2486 1.54119,0.11816 1.928,-0.2787 0.29823,-0.30599 0.30577,-0.30438 0.56457,0.11614 0.33297,0.54103 1.29803,1.01674 1.95529,0.96366 0.78004,-0.063 1.23894,-0.42739 1.5302,-1.21476 l 0.24999,-0.67628 0.48536,0.30183 c 0.85945,0.53447 2.085,0.4051 2.92349,-0.30863 0.38342,-0.32636 0.49251,-0.34474 0.82425,-0.13844 0.51322,0.31915 1.40433,0.30288 1.96854,-0.0358 0.69356,-0.41633 1.23547,-1.56084 1.57144,-3.31813 0.43707,-2.28604 0.46797,-2.60124 0.31398,-3.20326 l -0.14381,-0.5621 -0.0106,0.0519 c -0.0643,-0.46914 -0.19048,-0.93564 -0.37556,-1.38841 -0.1238,-0.88525 -0.53603,-2.67891 -0.82343,-3.44569 -0.44225,-1.17997 -0.60663,-1.31101 -2.49324,-1.98788 -0.70258,-0.25212 -2.79779,-1.00922 -4.65613,-1.68262 -1.85835,-0.67344 -3.4491,-1.22463 -3.53503,-1.22485 -0.086,-2.5e-4 -0.76681,0.98119 -1.51309,2.18122 z"
       id="path4714"
       inkscape:connector-curvature="0"
       sodipodi:nodetypes="ccccccccccccscccccscscccccccsccsc" />
    <path
       style="fill:#ffccaa;stroke-width:0.10356048"
       d="m 414.10842,174.16936 c -0.12281,-0.0766 -0.58496,-0.95601 -1.07823,-2.05185 -0.47484,-1.05483 -0.91184,-1.93607 -0.97113,-1.95832 -0.2754,-0.10332 -1.39367,-1.27552 -2.27045,-2.37996 -1.20376,-1.51628 -2.26544,-3.07816 -2.80735,-4.12995 -0.22827,-0.44306 -0.76336,-1.22182 -1.18906,-1.73057 -0.42571,-0.50876 -0.8675,-1.12226 -0.98175,-1.36335 -0.11424,-0.24109 -0.54298,-0.8685 -0.95275,-1.39423 -0.40978,-0.52574 -0.78481,-1.09294 -0.83341,-1.26042 -0.10397,-0.35831 0.24216,-1.58841 1.52878,-5.43299 l 0.82177,-2.45559 1.09073,-1.62184 c 1.88308,-2.8 1.7955,-2.58409 2.32366,-5.72733 0.25001,-1.48791 0.6361,-3.7322 0.85798,-4.98733 0.22186,-1.25513 0.40952,-2.36685 0.41703,-2.47049 0.0128,-0.17775 0.29667,-0.0823 5.00008,1.68227 l 4.98645,1.87072 -0.4392,1.3561 c -0.24156,0.74585 -0.92039,2.71855 -1.50851,4.38379 -0.58812,1.66523 -1.08562,3.17495 -1.10552,3.35492 -0.0199,0.17997 0.19061,1.35398 0.46783,2.6089 0.56234,2.54563 0.71314,3.87391 0.60227,5.30495 -0.1174,1.51531 -0.37768,2.67686 -1.05172,4.69343 l -0.62417,1.8674 0.0614,1.27152 c 0.0337,0.69934 0.19271,2.29613 0.35317,3.54841 0.16046,1.25228 0.26436,2.49642 0.23088,2.76475 -0.0334,0.26831 7.9e-4,0.68513 0.0758,0.92623 0.32463,1.04171 0.21239,1.79581 -0.32133,2.15884 -0.42825,0.29131 -0.4688,0.33062 -0.75563,0.73259 -0.49673,0.69616 -1.24285,0.86624 -1.92761,0.4394 z"
       id="path4701"
       inkscape:connector-curvature="0"
       sodipodi:nodetypes="cssccccccccscscscccccsccccccccc" />
    <path
       style="fill:#5599ff;stroke:none;stroke-width:0.26458332px;stroke-linecap:butt;stroke-linejoin:miter;stroke-opacity:1"
       d="m 442.16209,68.981422 c 8.06348,-1.511905 16.12697,-3.02381 24.19045,-4.535715 5.11324,3.689936 10.71115,7.404706 13.7821,13.076722 0.6581,3.839837 2.64132,7.359259 3.72849,11.138134 2.83522,9.185217 5.8967,19.000567 3.89424,28.666157 -2.94254,3.89618 -0.46052,7.49527 0.23613,11.78064 1.48536,5.1083 -1.5923,9.54306 -2.56759,14.20543 -0.91747,3.95934 -1.32865,8.84496 -4.83982,11.43462 -2.18791,0.36602 -4.41384,-0.77255 -6.61817,-1.05644 -3.10527,-0.88603 -6.55506,-0.87554 -9.25159,-2.81888 -6.17268,-3.16669 -12.68373,-6.77942 -19.81778,-6.66636 -4.14362,1.02058 -7.7716,3.59228 -11.83981,4.95126 -5.92871,2.16579 -12.26423,4.6795 -18.67791,3.54616 -0.063,-2.14187 -0.12599,-4.28373 -0.18899,-6.4256 -3.12629,-0.0558 -11.76092,2.13534 -9.7839,-3.45548 2.32131,-11.70759 4.22347,-23.58222 8.05225,-34.91522 1.83379,-3.56831 1.31443,-7.93529 3.06838,-11.64539 4.281,-12.533965 14.60166,-22.19088 26.63351,-27.280037 z"
       id="path4508"
       inkscape:connector-curvature="0" />
    <rect
       style="fill:#000000;fill-opacity:1;stroke:none;stroke-width:1.60000002;stroke-miterlimit:4;stroke-dasharray:none;stroke-opacity:1"
       id="rect4682"
       width="9.260417"
       height="5.2916665"
       x="451.99136"
       y="238.41481" />
    <ellipse
       style="fill:#000000;fill-opacity:1;stroke:none;stroke-width:1.60000002;stroke-miterlimit:4;stroke-dasharray:none;stroke-opacity:1"
       id="path4684"
       cx="425.58029"
       cy="275.55096"
       rx="3.5907738"
       ry="2.8348215" />
    <ellipse
       style="fill:#000000;fill-opacity:1;stroke:none;stroke-width:1.98164606;stroke-miterlimit:4;stroke-dasharray:none;stroke-opacity:1"
       id="path4686"
       cx="468.50421"
       cy="247.58073"
       rx="2.2914808"
       ry="2.4095981" />
    <path
       style="fill:#f9f9f9;stroke:none;stroke-width:0.26458332px;stroke-linecap:butt;stroke-linejoin:miter;stroke-opacity:1"
       d="m 417.40079,82.970869 c 0,0 33.07291,-8.73125 71.4375,0 v -7.937498 c 0,0 -59.26667,-6.879167 -71.96667,2.116667 z"
       id="path4985"
       inkscape:connector-curvature="0" />
    <path
       inkscape:connector-curvature="0"
       id="path4989"
       d="m 414.08539,104.26141 c 0,0 33.74167,-8.731275 72.88201,0 v -7.937523 c 0,0 -60.46508,-6.879167 -73.42188,2.116667 z"
       style="fill:#f9f9f9;stroke:none;stroke-width:0.26724494px;stroke-linecap:butt;stroke-linejoin:miter;stroke-opacity:1" />
    <path
       style="fill:#f9f9f9;stroke:none;stroke-width:0.28724891px;stroke-linecap:butt;stroke-linejoin:miter;stroke-opacity:1"
       d="m 408.00472,125.55191 c 0,0 38.98201,-8.73125 84.20117,0 v -7.93749 c 0,0 -69.85579,-6.87917 -84.82489,2.11666 z"
       id="path4991"
       inkscape:connector-curvature="0" />
    <path
       inkscape:connector-curvature="0"
       id="path4993"
       d="m 403.75745,146.84244 c 0,0 39.04281,-8.73125 84.33249,0 v -7.93749 c 0,0 -69.96474,-6.87917 -84.95718,2.11666 z"
       style="fill:#f9f9f9;stroke:none;stroke-width:0.28747281px;stroke-linecap:butt;stroke-linejoin:miter;stroke-opacity:1" />
    <path
       style="fill:#2a7fff;fill-opacity:1;stroke:none;stroke-width:10.65272713;stroke-miterlimit:4;stroke-dasharray:none;stroke-opacity:1"
       clip-path="none"
       d="M 0.52916666,11.514566 V 297.26456 H 524.40415 V 11.514566 Z M 452.01225,31.622896 c 0.2265,4e-4 0.4565,0.005 0.6898,0.014 0,-2e-5 14.1743,0.56701 12.2846,16.63102 0,0 6.2366,0.18889 -1.8899,11.15023 l 3.7797,5.29167 c 5.1132,3.68991 10.7111,7.40466 13.7821,13.07671 0.6581,3.83985 2.6412,7.35894 3.7284,11.13782 2.8352,9.18523 5.8968,19.000864 3.8943,28.666464 -2.9423,3.89617 -0.4604,7.4953 0.2362,11.78068 1.4854,5.10828 -1.5925,9.54296 -2.5678,14.20532 -0.9058,3.90906 -1.3204,8.71932 -4.7098,11.33316 0.059,0.13253 0.1184,0.27731 0.1824,0.44958 0.2875,0.76679 0.6994,2.56053 0.8232,3.4458 0.1851,0.45276 0.3117,0.91887 0.3757,1.38803 l 0.011,-0.0517 0.1437,0.56224 c 0.1539,0.60204 0.1229,0.91689 -0.3142,3.20292 -0.336,1.75728 -0.878,2.90181 -1.5715,3.31814 -0.2173,0.13044 -0.4831,0.21198 -0.7571,0.24598 -0.2617,1.50558 -0.5803,2.99855 -0.9612,4.47003 -5.1524,4.02981 -7.7866,10.28208 -10.4629,16.05793 -2.8356,7.55303 -7.212,14.46395 -9.5854,22.18984 -3.7706,6.29613 -5.5305,13.49729 -6.9216,20.62562 -0.3556,1.9671 -0.5567,4.4061 -1.0609,6.67713 6.0221,-2.95013 9.6665,-4.23998 14.2989,-5.08394 3.0534,-0.55632 4.1836,-0.64691 5.5381,-0.4439 2.3455,0.35153 4.3105,1.46979 5.2385,2.98122 0.7521,1.2245 0.7549,1.24418 0.356,2.61946 -0.2211,0.76226 -0.6873,1.62843 -1.0361,1.92444 -0.4822,0.40924 -8.4609,5.30218 -19.5864,12.03079 0.01,0.003 0.01,0.008 0.01,0.0114 0.018,0.11814 -0.2173,0.51784 -0.5622,0.99372 12.9,-7.81142 19.331,-11.75059 20.0138,-12.26383 0.5373,-0.40397 1.1496,-1.12011 1.3606,-1.59113 0.2773,-0.61891 0.4044,-0.7167 0.4594,-0.35295 0.2438,1.61568 -0.912,2.70179 -6.3195,5.93659 l -1.2134,0.72554 0.8382,0.6387 c 1.7492,1.33334 1.1293,4.91951 -0.8129,4.70154 -0.121,-0.0136 -0.2363,-0.0482 -0.3477,-0.0941 a 2.2914808,2.4095981 0 0 1 -0.3437,0.029 2.2914808,2.4095981 0 0 1 -0.6253,-0.0935 c -0.1171,0.0165 -0.4531,-0.096 -1.1301,-0.33126 -0.7506,-0.26083 -1.7401,-0.66955 -2.1989,-0.90794 l -0.834,-0.43358 -8.7375,5.49064 c -7.7129,4.84685 -21.5111,13.65864 -26.634,17.00929 -1.1081,0.72478 -1.5491,1.14456 -1.1462,1.09038 1.0627,-0.14306 2.0127,0.86227 2.2123,2.34145 0.1878,1.39147 -0.019,2.24973 -0.8243,3.4158 -0.4311,0.62402 -0.8045,0.77158 -2.4696,0.97462 -2.1554,0.26278 -3.3526,0.0418 -5.6927,-1.04955 l -1.5513,-0.72348 -2.1471,0.78497 c -2.6717,0.97655 -4.3079,1.20309 -8.0083,1.10897 -5.5021,-0.13983 -13.819,-2.27756 -19.5146,-5.01621 -3.4815,-1.67407 -4.5256,-2.47522 -4.6757,-3.58737 -0.071,-0.5048 -0.074,-0.9248 -0.01,-0.9338 0.064,-0.009 0.605,0.33057 1.2015,0.75396 3.2667,2.31849 12.6463,4.77324 22.9055,5.99395 3.0647,0.36459 4.0326,0.36205 5.7594,-0.0129 2.3355,-0.50713 2.0661,-0.36068 14.2141,-7.71477 4.8302,-2.92407 11.6052,-7.02191 15.0559,-9.10641 2.1663,-1.30863 3.7103,-2.24451 5.6353,-3.40857 -0.314,-0.0266 -0.3561,-0.0174 -0.5384,0.0801 -0.1459,0.0779 -0.2874,0.19611 -0.4739,0.39481 l -0.2656,0.28318 -0.4698,-0.0589 c -0.246,-0.0306 -0.3651,-0.0426 -0.4676,-0.0336 -0.2685,0.162 -0.7377,0.44629 -1.0434,0.63097 -0.094,0.084 -0.1715,0.14817 -0.1865,0.14418 0,0 -0.037,-0.008 -0.037,-0.009 -3.9546,2.38879 -10.0898,6.10465 -15.7582,9.54723 -6.7453,4.09665 -12.8396,7.70998 -13.5429,8.02949 -2.9621,1.34575 -8.6247,1.00793 -18.6185,-1.11053 -7.7467,-1.64217 -12.7943,-3.71973 -13.0152,-5.35678 -0.1128,-0.83611 0.6216,-1.2313 4.1041,-2.20867 1.7206,-0.48286 4.6053,-1.56458 6.411,-2.40397 3.131,-1.45553 6.6772,-3.11793 10.3369,-4.83847 v -0.004 l 0.082,-0.25165 c 0.045,-0.13856 0.086,-0.34432 0.096,-0.45735 0.018,-0.27504 0.2034,-0.82064 0.3571,-1.05162 0.2046,-0.30765 0.524,-0.60923 0.7447,-0.70382 0.1064,-0.0456 0.3024,-0.1593 0.4361,-0.2527 0.2927,-0.20444 0.4066,-0.24984 0.4946,-0.19844 0.057,0.0332 0.1146,0.0172 0.3994,-0.108 0.37,-0.16272 0.5795,-0.29287 1.0687,-0.66558 0.1825,-0.1391 1.0629,-0.74727 1.9559,-1.35136 0.8931,-0.6041 1.6911,-1.15092 1.7741,-1.21489 0.1018,-0.0789 0.1765,-0.17973 0.2325,-0.31266 0.078,-0.18526 0.1181,-0.22431 0.7101,-0.69712 0.3448,-0.27549 0.74,-0.57121 0.8785,-0.65681 0.1384,-0.0855 0.3125,-0.21968 0.3865,-0.29868 0.074,-0.079 0.2434,-0.20887 0.3767,-0.28835 0.1707,-0.10189 0.3258,-0.23278 0.5581,-0.47283 -1.3484,-0.35044 -2.526,-1.09218 -3.3868,-2.47841 0.8245,-5.64597 -2.5228,-11.17751 -1.2506,-16.87444 3.0607,-6.19117 3.2594,-13.20871 3.3404,-19.9812 1.231,-6.06274 2.5202,-12.34881 1.4407,-18.59007 -1.5635,-5.74823 -2.0942,-11.61042 -1.2258,-17.44959 -0.011,-0.27644 -0.03,-0.56012 -0.057,-0.84852 -0.046,0.0598 -0.094,0.12563 -0.1571,0.21394 -0.4967,0.69618 -1.2427,0.86607 -1.9275,0.43924 -0.1229,-0.0766 -0.5848,-0.9562 -1.078,-2.05206 -0.4749,-1.05484 -0.9125,-1.93571 -0.9715,-1.95802 -0.2754,-0.10332 -1.3934,-1.27577 -2.2702,-2.38022 -1.2038,-1.51627 -2.2655,-3.07821 -2.8075,-4.12998 -0.2282,-0.44307 -0.7634,-1.22188 -1.1891,-1.73064 -0.4257,-0.50874 -0.8671,-1.12213 -0.9814,-1.36322 -0.1142,-0.24111 -0.5431,-0.86852 -0.9529,-1.39424 -0.4098,-0.52576 -0.7845,-1.09292 -0.8335,-1.2604 -0.104,-0.3583 0.2424,-1.58816 1.5291,-5.43274 l 0.8216,-2.45565 1.0909,-1.62214 c 0.5587,-0.83074 0.931,-1.38424 1.2103,-1.85052 -1.8819,-0.29607 -3.084,-1.24539 -2.2097,-3.71761 2.3213,-11.7076 4.2234,-23.58218 8.0522,-34.91518 1.8338,-3.56833 1.314,-7.93519 3.068,-11.645264 4.2812,-12.53397 14.6018,-22.19081 26.6336,-27.27999 0,0 -6.9923,-11.90625 -6.2363,-21.16667 0,0 1.2815,-16.48156 15.5628,-16.45584 z"
       id="rect4775"
       inkscape:connector-curvature="0" />
  </g>
</svg>
