<?xml version="1.0" encoding="UTF-8" standalone="no"?>
<!-- Created with Inkscape (http://www.inkscape.org/) -->

<svg
        xmlns:dc="http://purl.org/dc/elements/1.1/"
        xmlns:cc="http://creativecommons.org/ns#"
        xmlns:rdf="http://www.w3.org/1999/02/22-rdf-syntax-ns#"
        xmlns="http://www.w3.org/2000/svg"
        xmlns:sodipodi="http://sodipodi.sourceforge.net/DTD/sodipodi-0.dtd"
        xmlns:inkscape="http://www.inkscape.org/namespaces/inkscape"
        version="1.1"
        id="svg4485"
        width="1920"
        height="1080"
        viewBox="0 0 1920 1080"
        sodipodi:docname="flash.svg"
        inkscape:version="0.92.1 r15371"
        inkscape:export-filename="C:\Users\modsc\flash.png"
        inkscape:export-xdpi="96.00177"
        inkscape:export-ydpi="96.00177">
  <metadata
     id="metadata4491">
    <rdf:RDF>
      <cc:Work
         rdf:about="">
        <dc:format>image/svg+xml</dc:format>
        <dc:type
           rdf:resource="http://purl.org/dc/dcmitype/StillImage" />
        <dc:title />
      </cc:Work>
    </rdf:RDF>
  </metadata>
  <defs
     id="defs4489" />
  <sodipodi:namedview
     pagecolor="#ffffff"
     bordercolor="#666666"
     borderopacity="1"
     objecttolerance="10"
     gridtolerance="10"
     guidetolerance="10"
     inkscape:pageopacity="0"
     inkscape:pageshadow="2"
     inkscape:window-width="1366"
     inkscape:window-height="705"
     id="namedview4487"
     showgrid="false"
     inkscape:zoom="0.35355339"
     inkscape:cx="1078.2865"
     inkscape:cy="514.00445"
     inkscape:window-x="-8"
     inkscape:window-y="-8"
     inkscape:window-maximized="1"
     inkscape:current-layer="svg4485"
     showguides="true"
     inkscape:guide-bbox="true"
     inkscape:snap-global="true">
    <sodipodi:guide
       position="0,1080"
       orientation="0,1"
       id="guide4621"
       inkscape:locked="false"
       inkscape:label=""
       inkscape:color="rgb(0,0,255)" />
    <sodipodi:guide
       position="1920,0"
       orientation="1,0"
       id="guide4623"
       inkscape:locked="false"
       inkscape:label=""
       inkscape:color="rgb(0,0,255)" />
  </sodipodi:namedview>
  <rect
     style="opacity:1;fill:#7e7e98;fill-opacity:1;stroke:none"
     id="rect4625"
     width="1920"
     height="1080"
     x="0"
     y="0" />
  <g
     id="g4619"
     transform="matrix(2.114709,0,0,2.114709,766.0905,-1202.8693)">
    <path
       inkscape:connector-curvature="0"
       id="path4551"
       d="m 484.71587,833.48129 c -0.12303,-4.51427 -2.24049,-9.69855 -5.58445,-13.67261 -3.35593,-3.9883 -11.47924,-6.93087 -34.01442,-12.32132 -9.9,-2.3681 -18.11062,-4.35758 -18.24583,-4.42107 -0.13521,-0.0635 1.32585,-3.22983 3.2468,-7.03629 14.10631,-27.95238 4.44156,-50.39327 -24.93259,-57.89179 -19.0532,-4.86383 -49.7951,-1.50353 -74.59809,8.15407 l -7.52972,2.93187 -2.97028,-3.96953 c -1.63366,-2.18324 -3.39677,-4.53797 -3.91802,-5.23273 -1.58605,-2.11402 2.3484,-8.23318 10.94773,-17.02677 7.9831,-8.16343 8.02195,-8.18752 18.39204,-11.40511 18.67284,-5.79374 31.99852,-8.10393 50.10796,-8.68693 18.9251,-0.60925 27.20784,0.37338 40.49132,4.8037 28.03966,9.35182 47.16606,31.71661 53.78563,62.89236 3.78367,17.81968 2.28693,43.19642 -3.6574,62.01003 l -1.42181,4.5 -0.0989,-3.62788 z"
       style="opacity:1;fill:#4c4239;fill-opacity:1;stroke:none" />
    <path
       inkscape:connector-curvature="0"
       id="path4553"
       d="m 425.617,852.91519 c -1.925,-0.84197 -4.51457,-1.91991 -5.75461,-2.39543 l -2.25461,-0.8646 3.98039,-7.73524 c 5.08507,-9.88201 6.70604,-16.82382 5.33131,-22.8314 -0.86092,-3.76225 -0.78617,-4.47935 0.46692,-4.47935 1.99327,0 21.37356,2.98449 23.05921,3.55102 0.89251,0.29997 -0.17303,2.16315 -3.24618,5.67623 -5.07306,5.79926 -10.18587,15.01599 -13.60354,24.52275 -1.23578,3.4375 -2.74907,6.21329 -3.36288,6.16843 -0.6138,-0.0449 -2.69101,-0.77045 -4.61601,-1.61241 z"
       style="opacity:1;fill:#4c4239;fill-opacity:1;stroke:none" />
    <path
       id="path4555"
       d="m 359.10352,794.53516 c -8.10877,0.0299 -15.61041,1.67479 -24.16016,5.01757 l -7.61719,2.97852 -8.98828,-0.91602 c -4.94363,-0.50404 -10.45283,-0.71623 -12.24414,-0.4707 -4.35789,0.59731 -9.60955,3.34799 -12.34961,6.46875 -1.98318,2.25872 -2.19047,2.88816 -1.81641,5.52539 0.63572,4.48206 3.93042,23.45984 4.10352,23.63672 0.0831,0.0849 2.83938,0.761 6.125,1.50195 l 5.97461,1.34766 4.45508,-4.68359 c 5.21861,-5.48627 8.52233,-11.66307 10.75,-20.09571 l 1.59179,-6.02343 2.91407,-0.33008 c 2.4828,-0.28005 3.15927,-0.0536 4.54882,1.52539 2.04943,2.32877 5.35728,8.71507 6.50977,12.5664 l 0.87695,2.93164 5.74414,0.93165 c 12.08132,1.95912 29.66211,0.39649 32.99024,-2.93165 1.42255,-1.42254 3.01492,-6.18832 4.34375,-12.99609 0.46211,-2.36746 1.04542,-4.55049 1.29492,-4.85156 0.2495,-0.30107 3.92857,0.12794 8.17773,0.95312 4.24917,0.82519 12.87739,2.36994 19.17188,3.4336 l 14.29883,2.32031 c 2.22557,0.47032 7.59029,1.39934 13.79101,2.375 16.87422,2.65509 15.55469,2.47698 15.55469,2.10547 0,-0.45859 2.62419,-1.80974 5.20313,-2.67969 l 2.36914,-0.80078 -2.22461,-0.4375 c -1.22387,-0.24078 -9.54658,-2.25496 -18.4961,-4.47656 -8.94952,-2.2216 -16.58203,-3.84766 -16.58203,-3.84766 0,0 -2.16691,-0.72035 -6.08398,-1.48437 -12.32872,-2.40474 -20.45098,-3.61831 -26.94922,-4.0293 -3.9463,-0.24959 -9.5617,-1.03358 -12.47852,-1.74023 -7.81824,-1.89414 -14.49201,-2.84745 -20.79882,-2.82422 z"
       style="opacity:1;fill:#333333;fill-opacity:1;stroke:none;stroke-width:0.35355338"
       inkscape:connector-curvature="0" />
    <path
       inkscape:connector-curvature="0"
       id="path4559"
       d="m 432.13618,1064.0502 c 19.81192,-47.288 51.13186,-84.06535 87.2176,-102.41493 9.40698,-4.78344 10.64948,-4.91048 17.2485,-1.76363 4.12553,1.96733 5.15384,3.40928 6.30333,8.83883 2.30271,10.87676 3.43013,50.21193 2.32565,81.14093 l -1.04601,29.2918 h -59.18624 -59.18624 z"
       style="opacity:1;fill:#e1e1ed;fill-opacity:1;stroke:none;stroke-width:1.41421354" />
    <path
       inkscape:connector-curvature="0"
       id="path4561"
       d="m 405.90347,1063.4872 c -16.50039,-12.9051 -31.81693,-27.0794 -37.01462,-34.2543 -6.08314,-8.3971 0.0169,-14.6953 23.72029,-24.4908 18.8337,-7.78311 47.99159,-27.61546 75.16127,-51.12251 l 8.83393,-7.64307 6.72242,2.1804 c 3.69733,1.19922 12.76818,3.16995 20.15745,4.37939 22.26608,3.64443 21.44116,3.17498 13.36386,7.60518 -14.66157,8.0415 -25.86137,16.67091 -39.54966,30.47286 -20.24548,20.41365 -35.16054,43.36595 -47.82734,73.60025 -2.58868,6.1789 -5.29112,11.4049 -6.00542,11.6134 -0.7143,0.2084 -8.61728,-5.3449 -17.56218,-12.3408 z"
       style="opacity:1;fill:#e1e1ed;fill-opacity:1;stroke:none;stroke-width:1.41421354" />
    <path
       inkscape:connector-curvature="0"
       id="path4563"
       d="m 399.32956,989.95791 c -10.0033,-5.23709 -17.58083,-12.34062 -21.95037,-20.57728 -3.14657,-5.93135 -3.43637,-6.10796 -8.93067,-5.44265 -4.96813,0.60159 -4.52853,0.26853 3.51382,-2.66221 25.71944,-9.37251 60.4573,-30.98453 81.31728,-50.59123 l 5.65686,-5.31699 8.42171,19.20256 8.4217,19.20255 -5.59328,4.81863 c -15.85224,13.65676 -58.96941,45.69906 -61.49415,45.69906 -0.59816,0 -4.81146,-1.9496 -9.3629,-4.33244 z"
       style="opacity:1;fill:#e1e1ed;fill-opacity:1;stroke:none;stroke-width:1.41421354" />
    <path
       inkscape:connector-curvature="0"
       id="path4565"
       d="m 319.09761,963.17765 c 0.50335,-4.27799 1.35731,-8.41457 1.8977,-9.19238 0.54038,-0.77782 2.08801,-4.40744 3.43916,-8.06583 1.35115,-3.65839 4.64271,-8.57101 7.31459,-10.91695 2.67187,-2.34593 4.90102,-5.39847 4.95366,-6.78341 0.0761,-2.00134 0.42128,-1.84125 1.68216,0.78005 1.17976,2.45268 1.15523,5.81279 -0.0957,13.10773 -0.92518,5.39527 -1.68215,11.9369 -1.68215,14.53697 0,4.27058 -0.33912,4.66256 -3.50941,4.05652 -5.89089,-1.12611 -10.13518,0.77539 -12.58772,5.63949 l -2.32745,4.61599 z"
       style="opacity:1;fill:#e1e1ed;fill-opacity:1;stroke:none;stroke-width:1.41421354" />
    <path
       inkscape:connector-curvature="0"
       id="path4567"
       d="m 299.26522,1069.7087 c -12.96577,-17.5276 -14.04244,-20.3053 -14.71868,-37.9723 l -0.60287,-15.7499 4.58855,-1.9007 c 8.18765,-3.3914 21.21132,-14.05 25.52995,-20.89363 3.77674,-5.98494 12.91333,-14.45817 15.5901,-14.45817 0.56467,0 7.61076,9.69898 15.65797,21.5533 25.04462,36.8931 35.8074,48.3262 66.52569,70.6688 5.29314,3.8499 9.62389,7.2669 9.62389,7.5934 0,0.3265 -25.93314,0.5807 -57.6292,0.5648 l -57.62921,-0.029 z"
       style="opacity:1;fill:#e1e1ed;fill-opacity:1;stroke:none;stroke-width:1.41421354" />
    <path
       inkscape:connector-curvature="0"
       id="path4569"
       d="m 120.40799,1072.4517 c 0.0966,-3.709 0.57391,-11.032 1.06066,-16.2735 l 0.885,-9.53 7.80528,6.2036 c 14.47291,11.503 32.71426,18.8239 42.18402,16.9299 6.47532,-1.2951 11.72467,-7.6769 12.58374,-15.2985 0.85039,-7.5447 2.64903,-7.0028 6.71975,2.0244 l 2.55455,5.665 -4.25784,8.1317 -4.25784,8.1318 -32.72649,0.3796 -32.72649,0.3796 z"
       style="opacity:1;fill:#e1e1ed;fill-opacity:1;stroke:none;stroke-width:1.41421354" />
    <path
       inkscape:connector-curvature="0"
       id="path4573"
       d="m 191.75995,1071.6127 c 2.19278,-4.3488 3.98686,-8.6516 3.98686,-9.562 0,-2.8651 -5.01451,-12.3976 -7.58551,-14.4199 -2.27786,-1.7918 -2.38817,-2.2648 -1.46347,-6.2746 0.55005,-2.3853 1.01109,-5.8281 1.02454,-7.6507 0.0216,-2.9327 2.46858,-5.8906 21.27444,-25.7164 20.08565,-21.17514 21.45066,-22.40448 24.9121,-22.43618 3.48196,-0.0319 3.69434,0.15725 4.31737,3.8449 l 0.65525,3.87844 21.18264,11.37514 21.18264,11.3751 0.70215,13.4965 c 0.38619,7.423 1.20782,15.5187 1.82585,17.9904 1.30577,5.2222 5.7937,12.8949 14.07742,24.0672 l 5.88627,7.9388 h -57.9827 -57.98271 z"
       style="opacity:1;fill:#e1e1ed;fill-opacity:1;stroke:none" />
    <path
       inkscape:connector-curvature="0"
       id="path4575"
       d="m 313.73319,983.00013 c -2.36409,-3.18152 -12.65973,-22.22534 -12.24168,-22.64339 0.11667,-0.11668 3.23526,-0.67899 6.9302,-1.24958 3.69494,-0.5706 7.25834,-1.26065 7.91866,-1.53346 l 1.20059,-0.49601 -0.30755,4.14872 c -0.16915,2.2818 -0.58528,8.47997 -0.92475,13.77372 -0.33946,5.29375 -0.78613,9.625 -0.99259,9.625 -0.20647,0 -0.91876,-0.73125 -1.58288,-1.625 z"
       style="opacity:1;fill:#e1e1ed;fill-opacity:1;stroke:none;stroke-width:0.5" />
    <path
       inkscape:connector-curvature="0"
       id="path4577"
       d="m 340.8379,989.52434 c -4.90533,-7.52979 -9.59488,-12.77033 -11.42767,-12.77033 -0.98065,0 -3.69238,1.38314 -6.02606,3.07365 -2.33368,1.69051 -4.52461,2.79209 -4.86874,2.44797 -1.01956,-1.01956 2.63095,-13.45901 4.87423,-16.60942 1.13865,-1.59908 3.18491,-3.18718 4.54725,-3.52911 4.32469,-1.08542 11.43949,2.41337 17.00795,8.36388 l 5.11772,5.46884 1.63228,-2.33041 c 0.89776,-1.28173 1.63229,-1.85324 1.63229,-1.27002 0,1.09666 -8.35794,20.07588 -9.2209,20.93884 -0.26753,0.26754 -1.73829,-1.43521 -3.26835,-3.78389 z"
       style="opacity:1;fill:#9f9fb2;fill-opacity:1;stroke:none" />
    <path
       inkscape:connector-curvature="0"
       id="path4579"
       d="m 356.12346,1012.0389 c -4.13665,-5.9317 -8.25849,-11.944 -9.15965,-13.36074 -1.5914,-2.50185 -1.45889,-2.98167 4.61243,-16.70256 l 6.25091,-14.12671 3.75,-0.54744 c 12.44293,-1.81648 10.92864,-2.23655 14.12261,3.91765 3.92835,7.56919 13.44012,16.21586 23.07557,20.97682 l 7.83303,3.87038 -3.39061,1.72695 c -1.86483,0.94982 -8.1156,3.64195 -13.8906,5.98245 -13.06846,5.2964 -20.80987,10.3091 -23.57216,15.2632 l -2.11035,3.7849 z"
       style="opacity:1;fill:#9f9fb2;fill-opacity:1;stroke:none" />
    <path
       inkscape:connector-curvature="0"
       id="path4581"
       d="m 457.65756,883.94839 c 0.10783,-2.87546 0.56593,-4.85656 1.79659,-7.76947 1.78868,-4.23374 4.39832,-8.14233 10.94692,-16.39578 6.61883,-8.34195 8.96181,-11.68383 10.99554,-15.68336 2.16597,-4.2596 3.02492,-7.69644 2.84226,-11.37244 -0.058,-1.16672 -0.14353,-2.39974 -0.19011,-2.74004 -0.0486,-0.35514 0.0293,-0.20453 0.18299,0.35356 0.15762,0.5725 0.31058,2.1534 0.37201,3.84489 0.0574,1.57994 0.15636,2.87262 0.21997,2.87262 0.13839,0 2.25216,-6.84945 3.00047,-9.72272 4.33767,-16.65516 5.41793,-37.78343 2.73862,-53.56333 -0.23937,-1.4098 -0.47787,-2.70248 -0.53,-2.87263 -0.0623,-0.20336 1.5e-4,-0.30935 0.18229,-0.30935 0.1524,0 0.27708,0.0612 0.27708,0.13593 0,0.0748 0.23444,1.52669 0.52097,3.22651 5.4655,32.42332 -3.21213,69.11737 -23.55638,99.60998 -3.46811,5.19812 -9.25079,12.81631 -9.72837,12.81631 -0.0947,0 -0.12415,-1.00955 -0.0709,-2.43068 z"
       style="opacity:1;fill:#4c4239;fill-opacity:1;stroke:none;stroke-width:0.17677669" />
    <path
       inkscape:connector-curvature="0"
       id="path4585"
       d="m 344.59574,966.4772 c -5.905,-6.04727 -6.51369,-10.40724 -3.70479,-26.53711 1.92114,-11.03203 -0.45226,-16.71305 -8.34341,-19.971 -7.42354,-3.06489 -9.98508,-5.7812 -10.9477,-11.60917 -0.46413,-2.81003 -1.99884,-7.97293 -3.41045,-11.47311 -2.97497,-7.37661 -5.16534,-20.11479 -7.03185,-40.89392 l -1.32323,-14.73096 5.49109,-6.23821 c 3.3435,-3.79841 6.67324,-9.79057 8.51368,-15.32107 1.66242,-4.99558 3.8521,-9.08287 4.86595,-9.08287 2.23396,0 5.34314,4.56506 7.84584,11.51967 2.12272,5.89867 5.0404,6.82273 21.6273,6.84954 19.01125,0.0308 23.51546,-2.53957 25.80114,-14.72333 0.52533,-2.80023 1.46105,-5.404 2.07939,-5.78615 0.61833,-0.38215 9.20155,0.70642 19.07382,2.41905 16.64236,2.8871 18.04977,3.37656 19.32525,6.72085 2.06216,5.40694 0.22205,13.85769 -5.22881,24.0134 -2.68417,5.00099 -4.72939,9.18375 -4.54493,9.29502 0.18446,0.11127 3.22043,1.26982 6.74662,2.57455 10.72118,3.96697 11.50296,3.57799 15.86996,-7.89614 6.95503,-18.27409 17.53726,-29.36826 27.92338,-29.2742 13.64373,0.12356 21.01194,14.04703 14.3493,27.11542 -1.44169,2.82779 -5.82416,9.16722 -9.7388,14.0876 -3.91464,4.92039 -8.51786,11.6335 -10.22936,14.91803 -3.57113,6.8533 -5.40664,23.92995 -3.04621,28.34043 1.30597,2.44022 0.0872,3.98356 -9.83476,12.45498 -24.98533,21.33235 -61.87554,42.6575 -83.37265,48.19529 -8.414,2.1675 -9.97883,3.0732 -11.15901,6.45867 -0.75497,2.16571 -1.59483,3.93767 -1.86634,3.93767 -0.27151,0 -2.8502,-2.41332 -5.73042,-5.36293 z"
       style="opacity:1;fill:#ebb2a5;fill-opacity:1;stroke:none;stroke-width:1.41421354" />
    <path
       inkscape:connector-curvature="0"
       id="path4587"
       d="m 416.43362,800.66356 c -2.33345,-0.68594 -11.5612,-2.19178 -20.5061,-3.34629 -8.9449,-1.15452 -20.40003,-2.82723 -25.45584,-3.71714 -11.73723,-2.06595 -22.74603,-0.94658 -34.61048,3.51919 -7.8171,2.94235 -10.84708,3.3886 -17.96013,2.64514 l -8.55659,-0.89434 0.94934,-8.39102 c 1.31661,-11.63729 5.92239,-26.01849 10.79214,-33.69761 3.77863,-5.95855 5.00851,-6.76102 15.7817,-10.29731 17.79492,-5.84117 30.02648,-7.93942 46.33194,-7.94795 23.51088,-0.0123 38.64857,5.62432 46.34716,17.25767 3.40052,5.13854 3.85742,7.18126 3.85742,17.24594 0,9.85712 -0.57966,12.57631 -4.24264,19.90227 -4.45606,8.91212 -5.83393,9.74801 -12.72792,7.72145 z"
       style="opacity:1;fill:#ebb2a5;fill-opacity:1;stroke:none;stroke-width:1.41421354" />
    <path
       inkscape:connector-curvature="0"
       id="path4589"
       d="m 261.57723,1003.0477 c -17.79177,-9.67714 -20.67357,-11.73195 -21.77133,-15.52368 -1.13484,-3.91975 -1.83311,-4.37018 -6.77478,-4.37018 -3.35275,0 -7.05881,-1.14543 -9.46716,-2.92599 -5.25651,-3.88631 -12.72783,-5.48466 -25.82858,-5.52556 -12.12298,-0.0378 -13.3552,-1.02327 -10.31646,-8.25029 2.50016,-5.94614 6.64664,-7.33979 21.83782,-7.33979 h 12.54921 l 0.72867,-6.01041 c 0.40077,-3.30573 1.09185,-9.75584 1.53572,-14.33358 0.44388,-4.57774 1.09838,-8.79455 1.45445,-9.37069 0.35608,-0.57614 5.42014,-2.55828 11.25348,-4.40475 11.66853,-3.69354 12.24329,-4.6009 8.53551,-13.47486 -1.16673,-2.79237 -2.12487,-7.3858 -2.12921,-10.20763 -0.0125,-8.1054 -2.6618,-15.56798 -6.39539,-18.01432 -2.68632,-1.76014 -5.29766,-2.03415 -11.98692,-1.25777 -9.21063,1.069 -12.7225,-0.32759 -12.7225,-5.05946 0,-3.36574 7.23753,-4.79205 17.6897,-3.48614 7.16923,0.89574 8.47704,1.68185 17.32467,10.41378 6.81053,6.72146 11.65775,13.31889 16.81019,22.87992 6.96891,12.93175 7.43592,13.45172 12.4666,13.88055 4.52153,0.38542 5.51837,1.14842 7.3906,5.65685 6.29199,15.15153 18.38372,40.47689 23.95713,50.1767 3.76747,6.55678 6.0164,12.02619 5.54966,13.49676 -1.25221,3.94537 -12.07344,13.76164 -21.20229,19.23334 -4.62115,2.7698 -8.75772,5.0213 -9.19239,5.0033 -0.43466,-0.018 -10.01804,-5.0517 -21.2964,-11.1861 z"
       style="opacity:1;fill:#ebb2a5;fill-opacity:1;stroke:none;stroke-width:1.41421354" />
    <path
       inkscape:connector-curvature="0"
       id="path4591"
       d="m 158.97196,1066.0222 c -9.0618,-2.8382 -22.09783,-10.3031 -29.87868,-17.1096 -6.08003,-5.3187 -8.32329,-8.8592 -14.97355,-23.633 -4.30217,-9.5573 -9.81162,-23.2748 -12.24321,-30.48325 -4.759354,-14.05422 -3.592485,-14.60818 -1.877392,-21.50131 -3.872409,-1.99608 -6.382282,-12.10277 0.174512,-18.7065 1.93033,-1.35417 2.79145,-4.17001 3.25988,-10.65976 0.48787,-6.75923 1.41673,-9.6499 3.97624,-12.37437 1.83681,-1.9552 4.12738,-3.5549 5.09015,-3.5549 0.96278,0 2.19659,-2.70469 2.74181,-6.01041 1.07444,-6.5144 2.8502,-9.54594 5.59164,-9.54594 1.29309,0 1.9357,6.63839 2.47986,25.61753 0.55876,19.48883 1.19936,25.93782 2.67766,26.95634 1.87911,1.29468 26.08355,0.60114 41.8555,-1.19931 6.96959,-0.79561 7.60374,-0.59427 11.26321,3.57614 9.59044,10.92947 10.82316,24.22916 6.15744,66.43194 -2.86446,25.9098 -4.33229,30.3594 -10.82996,32.8298 -4.58199,1.742 -8.37729,1.5866 -15.46511,-0.6334 z"
       style="opacity:1;fill:#ebb2a5;fill-opacity:1;stroke:none;stroke-width:1.41421354"
       sodipodi:nodetypes="ccccccccsssscssscc" />
    <path
       inkscape:connector-curvature="0"
       id="path4593"
       d="m 179.52071,964.1063 c -3.43607,-3.42409 -3.748,-3.46534 -16.23132,-2.14644 -7.00036,0.7396 -17.9353,1.35604 -24.29988,1.36986 -9.81673,0.0213 -11.69177,-0.35236 -12.36184,-2.46356 -1.53821,-4.84647 -1.57714,-65.18651 -0.043,-66.72596 0.81344,-0.81629 7.8138,-2.40568 15.55635,-3.53198 22.15383,-3.2227 87.64508,-7.30413 92.49634,-5.7644 3.14084,0.99686 5.53809,7.39336 7.37458,19.67733 2.43682,16.29954 3.11062,14.82213 -8.71893,19.11756 l -10.6066,3.85138 -1.19757,14.21436 -1.19757,14.21436 -14.04037,0.67609 c -12.22174,0.58852 -14.49377,1.10204 -17.54076,3.96454 -1.92521,1.80864 -3.50039,4.1321 -3.50039,5.16324 0,2.79033 -1.77215,2.28682 -5.68899,-1.61638 z"
       style="opacity:1;fill:#43434f;fill-opacity:1;stroke:none;stroke-width:1.41421354" />
  </g>
</svg>
