<?xml version="1.0" encoding="UTF-8" standalone="no"?>
<!-- Created with Inkscape (http://www.inkscape.org/) -->

<svg
        xmlns:dc="http://purl.org/dc/elements/1.1/"
        xmlns:cc="http://creativecommons.org/ns#"
        xmlns:rdf="http://www.w3.org/1999/02/22-rdf-syntax-ns#"
        xmlns="http://www.w3.org/2000/svg"
        xmlns:sodipodi="http://sodipodi.sourceforge.net/DTD/sodipodi-0.dtd"
        xmlns:inkscape="http://www.inkscape.org/namespaces/inkscape"
        width="1920"
        height="1080"
        viewBox="0 0 507.99999 285.75001"
        version="1.1"
        id="svg8"
        inkscape:version="0.92.1 r15371"
        sodipodi:docname="khalil.svg">
  <defs
     id="defs2" />
  <sodipodi:namedview
     id="base"
     pagecolor="#ffffff"
     bordercolor="#666666"
     borderopacity="1.0"
     inkscape:pageopacity="0.0"
     inkscape:pageshadow="2"
     inkscape:zoom="0.24748737"
     inkscape:cx="810.85618"
     inkscape:cy="782.2653"
     inkscape:document-units="mm"
     inkscape:current-layer="layer1"
     showgrid="false"
     units="px"
     inkscape:snap-to-guides="false"
     inkscape:snap-grids="false"
     inkscape:snap-page="true"
     inkscape:snap-global="false"
     showguides="false"
     inkscape:window-width="1366"
     inkscape:window-height="705"
     inkscape:window-x="-8"
     inkscape:window-y="-8"
     inkscape:window-maximized="1" />
  <metadata
     id="metadata5">
    <rdf:RDF>
      <cc:Work
         rdf:about="">
        <dc:format>image/svg+xml</dc:format>
        <dc:type
           rdf:resource="http://purl.org/dc/dcmitype/StillImage" />
        <dc:title />
      </cc:Work>
    </rdf:RDF>
  </metadata>
  <g
     inkscape:label="Camada 1"
     inkscape:groupmode="layer"
     id="layer1"
     transform="translate(0,-11.249983)">
    <rect
       style="fill:#37abc8;fill-opacity:1;stroke:none;stroke-width:0.3003819"
       id="rect4601"
       width="508"
       height="285.75"
       x="0"
       y="11.249983" />
    <path
       style="fill:#37abc8;fill-opacity:1;stroke:none;stroke-width:0.3003819"
       d="M 0,11.249983 V 296.99997 H 507.99999 V 11.249983 Z m 317.12225,48.38051 c 0,0 -0.11051,6.52278 -0.14057,8.3225 l 0.14004,-0.007 -0.25992,7.10033 c -0.61683,36.660187 -2.83189,166.397057 -3.75531,191.752107 l -9.0873,-0.93586 0.39737,-23.49521 -157.00591,-23.98715 -11.71713,-131.157367 0.18862,-10.21178 10.77249,-1.12757 z"
       id="rect4711"
       inkscape:connector-curvature="0" />
    <g
       id="g4590">
      <path
         inkscape:connector-curvature="0"
         id="path4568"
         d="m 40.491333,259.31498 c 0,0 -2.138156,23.78699 -0.400905,29.93419 0,0 -1.870886,7.75081 -1.336346,7.75081 h 93.811608 c 0,0 1.04889,-5.95312 -0.17953,-7.27604 0,0 -0.49647,-8.22455 -2.89407,-11.29382 l -23.92063,7.87908 -20.312481,-2.67269 -13.898015,-8.15172 -11.626225,-6.94901 -6.681738,-6.01357 -2.271791,-12.29439 z"
         style="fill:#1a1a1a;stroke:none;stroke-width:0.26458332px;stroke-linecap:butt;stroke-linejoin:miter;stroke-opacity:1" />
      <path
         sodipodi:nodetypes="ccccccccccccccsccccccccc"
         inkscape:connector-curvature="0"
         id="path4520"
         d="m 114.525,128.09101 c 0,0 -2.07708,-1.14252 -3.49449,-0.67005 0,0 -7.46503,5.19717 -7.9375,7.18155 0,0 -22.26424,-2.47977 -23.587157,-1.62932 0,0 -4.001175,1.76574 -4.001175,2.71068 0,0 -4.943334,-0.90858 -9.105006,3.94304 0,0 -4.049814,0.64524 -8.26962,4.56813 0,0 -3.474504,1.06908 -6.269032,3.92962 0,0 -6.051553,-0.27677 -9.547833,3.59748 0,0 -12.632559,4.35623 -17.073779,9.36442 0,0 15.418742,29.14052 25.907581,27.72311 0,0 7.250333,-9.32249 9.896166,-8.37755 0,0 -5.317458,39.06507 -4.782919,41.73776 0,0 -10.824416,13.89802 -8.95353,20.98066 0,0 -7.908382,7.21299 -5.92097,16.54563 1.505774,7.07091 12.300517,16.15551 18.349003,19.66939 0,0 58.799301,24.05426 69.757351,-0.93544 0,0 3.20723,-14.83346 1.46998,-17.77342 0,0 3.20723,-5.07812 3.0736,-13.09621 0,0 3.14042,-29.80055 10.62397,-38.62044 0,0 7.41672,2.60587 19.17658,-3.40769 0,0 -3.60814,-51.51621 -8.55262,-54.5898 0,0 -6.1472,-6.54811 -11.49259,-6.68174 z"
         style="fill:#550044;stroke:none;stroke-width:0.26458332px;stroke-linecap:butt;stroke-linejoin:miter;stroke-opacity:1" />
      <path
         inkscape:connector-curvature="0"
         id="path4502"
         d="m 115.1878,123.00215 c 0,0 -2.27179,3.34087 -2.27179,-1.60362 0,0 -3.0736,-8.15171 1.73725,-10.82441 0,0 2.53906,10.95805 0.53454,12.42803 z"
         style="fill:#ffb380;stroke:none;stroke-width:0.26458332px;stroke-linecap:butt;stroke-linejoin:miter;stroke-opacity:1" />
      <path
         inkscape:connector-curvature="0"
         id="path4508"
         d="m 119.9372,144.72317 c 0,0 0.26727,6.41447 3.80859,7.81763 0,0 4.2095,5.7463 3.67496,6.68174 0,0 1.06908,-3.54132 5.41221,-4.20949 0,0 5.07812,-4.00905 4.74403,-6.54811 z"
         style="fill:#ffb380;stroke:none;stroke-width:0.26458332px;stroke-linecap:butt;stroke-linejoin:miter;stroke-opacity:1" />
      <path
         sodipodi:nodetypes="ccccccccc"
         inkscape:connector-curvature="0"
         id="path4500"
         d="m 114.12409,110.04495 c 0,0 -2.00453,-14.566192 9.08716,-18.040695 0,0 15.10073,-15.501632 31.00327,6.147199 0,0 3.97563,7.617176 -0.0334,14.332326 l -1.83748,14.66642 c 0,0 2.6727,1.46998 -4.40995,9.6217 0,0 -1.33634,14.16529 -17.23888,12.2944 0,0 -26.19241,-6.1472 -16.16981,-20.44612 z"
         style="fill:#1a1a1a;stroke:none;stroke-width:0.26458332px;stroke-linecap:butt;stroke-linejoin:miter;stroke-opacity:1" />
      <path
         sodipodi:nodetypes="ccccccccc"
         inkscape:connector-curvature="0"
         id="path3691"
         d="m 116.26224,111.7822 1.73726,-7.34991 c 0,0 4.67721,2.67269 4.81085,-7.483549 0,0 3.60814,-9.888972 15.23436,-6.013564 0,0 14.03165,0.801809 12.42803,15.902533 0,0 3.35708,4.40045 2.95618,10.41402 0,0 6.59953,-2.14209 -1.08529,9.89847 0,0 -4.00904,14.96709 -20.71339,11.89349 0,0 -21.91611,-3.60814 -15.368,-27.26149 z"
         style="fill:#ffb380;stroke:none;stroke-width:0.26458332px;stroke-linecap:butt;stroke-linejoin:miter;stroke-opacity:1" />
      <path
         sodipodi:nodetypes="cccccc"
         inkscape:connector-curvature="0"
         id="path4506"
         d="m 153.41271,114.98944 -1.13995,12.50058 0.47975,1.41987 0.62134,-7.20258 0.43976,-4.81358 z"
         style="fill:#1a1a1a;stroke:none;stroke-width:0.26458332px;stroke-linecap:butt;stroke-linejoin:miter;stroke-opacity:1" />
      <path
         sodipodi:nodetypes="ccccccccccccccccccccccc"
         inkscape:connector-curvature="0"
         id="path4522"
         d="m 26.174851,162.25147 c 0,0 -15.40253,8.12649 -15.308036,15.49702 0,0 -2.3141901,29.98347 13.721982,70.0739 0,0 5.93278,11.19099 8.200638,13.26985 0,0 6.772045,16.49052 9.82738,15.875 0,0 3.965884,0.0215 -1.795386,-8.59895 l -3.203243,-7.38288 c 0,0 0.819989,-6.05745 4.378913,1.52059 0,0 8.249572,14.5824 10.588181,12.6447 0,0 2.840314,-0.88108 -0.467722,-6.01357 0,0 -7.043897,-11.63566 -6.854909,-12.39161 0,0 0.04725,-1.6064 1.464658,0.85045 0,0 10.914063,15.73325 13.418154,13.93787 0,0 2.309797,-1.71568 0.257452,-4.60168 0,0 -7.817633,-11.62622 -10.089424,-13.02939 0,0 -0.801809,-2.80633 2.204973,0.60136 0,0 10.557147,9.75534 12.494851,7.14946 0,0 2.80633,-2.33861 -2.405426,-6.01357 0,0 -8.753077,-7.81763 -11.292138,-9.02034 0,0 -4.810851,-6.81538 -12.962572,-11.22532 0,0 -9.722913,-35.90584 -5.179331,-49.93749 0,0 1.72874,-0.49818 6.138687,-3.70541 z"
         style="fill:#ffb380;stroke:none;stroke-width:0.26458332px;stroke-linecap:butt;stroke-linejoin:miter;stroke-opacity:1" />
      <path
         sodipodi:nodetypes="cccccscsccccscscccccccccccc"
         inkscape:connector-curvature="0"
         id="path4524"
         d="m 155.6845,208.40013 c 0,0 2.00453,13.49711 0.80181,14.69982 0,0 2.00453,4.40996 0,8.28536 0,0 1.33635,7.08265 -0.13363,13.09621 0,0 -2.04477,18.20608 -5.44562,19.65267 0,0 -0.96577,0.29273 -1.60451,-0.29584 -0.64907,-0.59807 -0.98385,-2.31676 -0.45401,-4.06106 0,0 -0.53541,1.46459 -0.55903,1.54124 -0.25386,0.82371 -1.73443,5.72396 -4.24144,6.02653 0,0 -4.29947,-1.03943 -1.22842,-5.57514 0,0 2.69309,-5.76414 2.45685,-6.47285 0,0 -4.63021,13.18192 -7.37054,11.9535 0,0 -2.65343,-0.12839 -1.97267,-3.15496 0.0345,-0.15345 2.95967,-6.05486 3.01211,-6.22357 0,0 -2.69186,5.30016 -4.06778,6.45898 -1.25307,1.05535 -3.77555,-0.66385 -1.60187,-5.91564 0.75389,-1.83324 2.04995,-8.20363 2.17337,-8.19094 0,0 1.5119,-5.88867 1.6064,-5.93592 0,0 0.80319,-4.06325 0.33072,-4.48847 0,0 -0.85044,10.29985 -9.40215,9.30766 0,0 -4.58296,-1.37016 -3.2128,-3.16555 0,0 1.41741,-0.89769 3.9215,-1.13393 0,0 2.59859,-1.84263 4.53572,-6.61458 0,0 2.94532,-6.47425 6.82073,-11.15147 0,0 -2.53906,-2.53906 -1.26953,-5.34539 0,0 4.34313,-12.96257 6.01357,-12.89575 z"
         style="fill:#ffb380;stroke:none;stroke-width:0.26458332px;stroke-linecap:butt;stroke-linejoin:miter;stroke-opacity:1" />
    </g>
  </g>
</svg>
