<?xml version="1.0" encoding="UTF-8" standalone="no"?>
<!-- Created with Inkscape (http://www.inkscape.org/) -->

<svg
        xmlns:dc="http://purl.org/dc/elements/1.1/"
        xmlns:cc="http://creativecommons.org/ns#"
        xmlns:rdf="http://www.w3.org/1999/02/22-rdf-syntax-ns#"
        xmlns="http://www.w3.org/2000/svg"
        xmlns:sodipodi="http://sodipodi.sourceforge.net/DTD/sodipodi-0.dtd"
        xmlns:inkscape="http://www.inkscape.org/namespaces/inkscape"
        width="61.111996mm"
        height="57.514874mm"
        viewBox="0 0 61.111996 57.514874"
        version="1.1"
        id="svg8"
        inkscape:version="0.92.1 r15371"
        sodipodi:docname="mail_black.svg">
  <defs
     id="defs2" />
  <sodipodi:namedview
     id="base"
     pagecolor="#ffffff"
     bordercolor="#666666"
     borderopacity="1.0"
     inkscape:pageopacity="0.0"
     inkscape:pageshadow="2"
     inkscape:zoom="0.7"
     inkscape:cx="716.9362"
     inkscape:cy="210.55567"
     inkscape:document-units="mm"
     inkscape:current-layer="layer1"
     showgrid="false"
     inkscape:window-width="1600"
     inkscape:window-height="838"
     inkscape:window-x="-8"
     inkscape:window-y="-8"
     inkscape:window-maximized="1"
     fit-margin-top="0"
     fit-margin-left="0"
     fit-margin-right="0"
     fit-margin-bottom="0" />
  <metadata
     id="metadata5">
    <rdf:RDF>
      <cc:Work
         rdf:about="">
        <dc:format>image/svg+xml</dc:format>
        <dc:type
           rdf:resource="http://purl.org/dc/dcmitype/StillImage" />
        <dc:title></dc:title>
      </cc:Work>
    </rdf:RDF>
  </metadata>
  <g
     inkscape:label="Camada 1"
     inkscape:groupmode="layer"
     id="layer1"
     transform="translate(229.42734,-126.90806)">
    <path
       style="fill:#000000;stroke-width:0.99999994"
       d="m -751.62305,479.6582 c -1.08839,0.0678 -2.41058,0.74513 -4.77734,2.2461 -4.77483,3.02808 -99.14182,72.81509 -106.47656,78.74218 l -4.25,3.4336 v 65.07422 c 0,60.80133 0.11486,65.15915 1.75,66.40039 2.59404,1.96917 224.90592,1.96917 227.5,0 1.6357,-1.24177 1.75094,-5.59476 1.7207,-66.71875 l -0.0312,-65.38867 -40.71875,-30.17774 c -48.18709,-35.71264 -69.93906,-51.57802 -72.83398,-53.12109 -0.66035,-0.35198 -1.22978,-0.53091 -1.88282,-0.49024 z m -0.0156,10.28907 c 0.37595,0 13.80719,9.73944 29.84765,21.64257 16.04047,11.90313 38.02611,28.21564 48.85547,36.25 l 19.68946,14.60743 -15.08008,0.27734 c -8.29383,0.1522 -15.32856,0.0269 -15.63281,-0.27734 -0.30437,-0.30441 -0.74658,-4.592 -0.98243,-9.52735 l -0.42968,-8.97265 h -66.37696 -66.3789 l -0.01,5.75 c -0.006,3.16248 -0.28994,7.43751 -0.63086,9.5 l -0.62109,3.75 h -15.52344 -15.52344 l 10.4043,-7.81641 c 31.44363,-23.62182 87.80377,-65.18359 88.39258,-65.18359 z m -93.93945,83 h 13.0957 13.09375 l 0.62109,3.75 c 0.34076,2.06248 0.61766,5.77501 0.61524,8.25 -0.008,7.94702 -0.51447,7.86004 -14.52344,-2.47852 z m 174.79296,0 h 13.10938 l -12.87305,9.5 c -7.08,5.225 -12.9774,9.5 -13.10742,9.5 -1.30628,0 -1.94037,-12.64336 -0.83984,-16.75 0.58643,-2.18839 0.96176,-2.25 13.71093,-2.25 z m 25.15821,3 c 0.27568,0 0.5,24.97498 0.5,55.5 v 55.5 h -106.5 -106.5 v -54.94141 c 0,-30.21751 0.3375,-55.13002 0.75,-55.36133 0.41249,-0.23138 23.025,16.1491 50.25,36.40235 27.22499,20.25324 50.91126,37.591 52.63476,38.52734 l 3.13281,1.70117 8.36719,-5.84961 c 4.6015,-3.21778 28.27848,-20.61625 52.61524,-38.66406 24.33675,-18.04785 44.47447,-32.81445 44.75,-32.81445 z"
       transform="scale(0.26458333)"
       id="path3691"
       inkscape:connector-curvature="0" />
    <g
       id="g5083"
       transform="matrix(0.4708892,0,0,0.4708892,-206.27199,24.24996)"
       style="fill:#f9f9f9">
      <path
         inkscape:connector-curvature="0"
         style="opacity:0.98999999;fill:#f9f9f9;fill-opacity:0;fill-rule:evenodd;stroke:#2d2d2d;stroke-width:2.13890076;stroke-linecap:round;stroke-linejoin:round;stroke-miterlimit:4;stroke-dasharray:none;stroke-opacity:1;paint-order:markers fill stroke"
         d="m 15.127274,264.42441 a 14.670124,14.670124 0 0 0 -0.111947,0.0101 14.670124,14.670124 0 0 0 -1.047507,0.0965 14.670124,14.670124 0 0 0 -0.360897,0.0394 14.670124,14.670124 0 0 0 -1.360427,0.26388 14.670124,14.670124 0 0 0 -0.01866,0.004 14.670124,14.670124 0 0 0 -0.0075,0.002 14.670124,14.670124 0 0 0 -9.395581,7.19769 l 0.00213,0.11088 a 14.670124,14.670124 0 0 0 -1.7554383,6.67846 14.670124,14.670124 0 0 0 2.0033244,7.62681 l 0.00213,0.11355 a 14.670124,14.670124 0 0 0 7.2579189,6.15177 14.670124,14.670124 0 0 0 0.02079,0.009 14.670124,14.670124 0 0 0 1.266604,0.4286 14.670124,14.670124 0 0 0 0.113547,0.0384 14.670124,14.670124 0 0 0 0.19724,0.0528 14.670124,14.670124 0 0 0 1.179712,0.25695 14.670124,14.670124 0 0 0 0.315585,0.0592 14.670124,14.670124 0 0 0 0.977141,0.11301 14.670124,14.670124 0 0 0 0.548008,0.0464 14.670124,14.670124 0 0 0 0.762842,0.0112 14.670124,14.670124 0 0 0 0.763374,-0.0112 14.670124,14.670124 0 0 0 0.54641,-0.0464 14.670124,14.670124 0 0 0 0.978739,-0.11301 14.670124,14.670124 0 0 0 0.316651,-0.0592 14.670124,14.670124 0 0 0 1.177047,-0.25695 14.670124,14.670124 0 0 0 0.198307,-0.0528 14.670124,14.670124 0 0 0 0.111947,-0.0379 14.670124,14.670124 0 0 0 1.268736,-0.42913 14.670124,14.670124 0 0 0 0.02079,-0.009 14.670124,14.670124 0 0 0 7.257919,-6.15177 l 0.0022,-0.11462 a 14.670124,14.670124 0 0 0 2.002791,-7.62574 14.670124,14.670124 0 0 0 -1.755441,-6.67953 l 0.0022,-0.10981 a 14.670124,14.670124 0 0 0 -9.393013,-7.19715 14.670124,14.670124 0 0 0 -0.0096,-0.003 14.670124,14.670124 0 0 0 -0.02399,-0.005 14.670124,14.670124 0 0 0 -1.356162,-0.26281 14.670124,14.670124 0 0 0 -0.358232,-0.0389 14.670124,14.670124 0 0 0 -1.049639,-0.097 14.670124,14.670124 0 0 0 -0.701004,-0.005 14.670124,14.670124 0 0 0 -0.589056,-0.005 z"
         id="path4594" />
      <path
         d="m 27.841557,293.00223 c -0.473523,0.14412 -0.957394,0.21621 -1.451473,0.21621 -0.700028,0 -1.503008,-0.14412 -2.408841,-0.43239 -0.597097,-0.18529 -1.46179,-0.51472 -2.594128,-0.98824 -1.544114,-0.65882 -2.995616,-1.86323 -4.354447,-3.61324 -1.23529,-1.62651 -2.460297,-3.25298 -3.675031,-4.8794 -0.205889,0 -0.391176,0.15439 -0.555905,0.46323 -0.226417,0.45293 -0.391147,0.89552 -0.494104,1.32791 -0.08235,0.41179 -0.12354,0.85444 -0.12354,1.32794 0,0.37062 0.02062,0.9162 0.06177,1.63678 0.06177,0.7206 0.09265,1.19416 0.09265,1.42058 0,0.24707 0.07209,0.71033 0.21621,1.38972 0.08234,0.39121 0.123482,0.64855 0.123482,0.7721 0,0.41177 -0.16467,0.65879 -0.494104,0.74114 -0.329377,0.0823 -0.597039,0.12354 -0.80293,0.12354 -0.247023,0 -0.514688,-0.0308 -0.802954,-0.0926 -0.288244,-0.0823 -0.6691241,-0.18532 -1.1426262,-0.3088 -0.45297,-0.14412 -0.9368111,-0.29853 -1.4514723,-0.46323 -0.494159,-0.22651 -0.8132711,-0.58681 -0.9573946,-1.08088 -0.4529447,-1.62653 -0.7926361,-3.6133 -1.0191122,-5.96034 -0.2058851,-2.36766 -0.3087943,-4.82797 -0.3087943,-7.38091 0,-3.33532 0.1543857,-6.31038 0.4632356,-8.92508 0.3087951,-2.61468 0.774681,-3.95353 0.988237,-4.10734 0.3705667,-0.12354 0.6485193,-0.20594 0.8338285,-0.24708 0.4117293,-0.10296 0.8131933,-0.15444 1.2043949,-0.15444 0.9470736,0 1.8426476,0.32943 2.6867936,0.98823 0.226498,0.16471 0.38088,0.44267 0.463206,0.83387 0.0824,0.3912 0.123541,0.8853 0.123541,1.48239 0,0.76172 -0.09265,1.96613 -0.277953,3.61318 -0.185287,1.64711 -0.277923,2.71767 -0.277923,3.2118 0,0.76176 0.133803,1.14265 0.401464,1.14265 0.123565,0 0.288266,-0.0823 0.494103,-0.24705 0.535326,-0.43237 1.27651,-1.56473 2.223557,-3.39708 0.802961,-1.58528 1.636786,-3.17058 2.501515,-4.75588 0.864696,-1.60592 1.592829,-2.38881 1.881018,-2.40939 0.288271,-0.0412 0.363091,-0.10243 0.527792,-0.12303 0.164728,-0.0206 0.329436,-0.031 0.494107,-0.031 0.452973,0 0.895573,0.0515 1.327964,0.15445 0.452967,0.0823 1.17352,0.30879 2.161786,0.67938 0.658808,0.22651 1.327933,0.44265 2.007349,0.64855 0.679416,0.28822 1.019116,0.7412 1.019116,1.3588 0,0.47354 -0.669103,1.43092 -2.007357,2.87209 -1.338223,1.42062 -2.676473,2.85147 -4.014696,4.29266 -1.647077,1.85297 -2.727954,3.37648 -3.242696,4.57064 -0.04119,0.12354 -0.06177,0.22645 -0.06177,0.3088 0,0.7824 1.091197,2.30588 3.273538,4.57062 1.955897,1.89407 3.91182,3.78827 5.867718,5.68236 0.846854,1.42333 3.420073,3.19947 1.080883,3.76767 z"
         style="font-style:normal;font-variant:normal;font-weight:500;font-stretch:normal;font-size:1090.89562988px;line-height:1.25;font-family:Cartoon;-inkscape-font-specification:'Cartoon, Medium';text-align:start;letter-spacing:0px;word-spacing:0px;writing-mode:lr-tb;text-anchor:start;fill:#f9f9f9;fill-opacity:1;stroke:none;stroke-width:0.04246397"
         id="path4600"
         inkscape:connector-curvature="0"
         sodipodi:nodetypes="csccccccscscscscccccscccsccssssccccsscccscccsccc" />
    </g>
    <g
       style="fill:#f9f9f9"
       transform="matrix(0.4708892,0,0,0.4708892,-206.27199,24.24996)"
       id="g3718">
      <path
         id="path3714"
         d="m 15.127274,264.42441 a 14.670124,14.670124 0 0 0 -0.111947,0.0101 14.670124,14.670124 0 0 0 -1.047507,0.0965 14.670124,14.670124 0 0 0 -0.360897,0.0394 14.670124,14.670124 0 0 0 -1.360427,0.26388 14.670124,14.670124 0 0 0 -0.01866,0.004 14.670124,14.670124 0 0 0 -0.0075,0.002 14.670124,14.670124 0 0 0 -9.395581,7.19769 l 0.00213,0.11088 a 14.670124,14.670124 0 0 0 -1.7554383,6.67846 14.670124,14.670124 0 0 0 2.0033244,7.62681 l 0.00213,0.11355 a 14.670124,14.670124 0 0 0 7.2579189,6.15177 14.670124,14.670124 0 0 0 0.02079,0.009 14.670124,14.670124 0 0 0 1.266604,0.4286 14.670124,14.670124 0 0 0 0.113547,0.0384 14.670124,14.670124 0 0 0 0.19724,0.0528 14.670124,14.670124 0 0 0 1.179712,0.25695 14.670124,14.670124 0 0 0 0.315585,0.0592 14.670124,14.670124 0 0 0 0.977141,0.11301 14.670124,14.670124 0 0 0 0.548008,0.0464 14.670124,14.670124 0 0 0 0.762842,0.0112 14.670124,14.670124 0 0 0 0.763374,-0.0112 14.670124,14.670124 0 0 0 0.54641,-0.0464 14.670124,14.670124 0 0 0 0.978739,-0.11301 14.670124,14.670124 0 0 0 0.316651,-0.0592 14.670124,14.670124 0 0 0 1.177047,-0.25695 14.670124,14.670124 0 0 0 0.198307,-0.0528 14.670124,14.670124 0 0 0 0.111947,-0.0379 14.670124,14.670124 0 0 0 1.268736,-0.42913 14.670124,14.670124 0 0 0 0.02079,-0.009 14.670124,14.670124 0 0 0 7.257919,-6.15177 l 0.0022,-0.11462 a 14.670124,14.670124 0 0 0 2.002791,-7.62574 14.670124,14.670124 0 0 0 -1.755441,-6.67953 l 0.0022,-0.10981 a 14.670124,14.670124 0 0 0 -9.393013,-7.19715 14.670124,14.670124 0 0 0 -0.0096,-0.003 14.670124,14.670124 0 0 0 -0.02399,-0.005 14.670124,14.670124 0 0 0 -1.356162,-0.26281 14.670124,14.670124 0 0 0 -0.358232,-0.0389 14.670124,14.670124 0 0 0 -1.049639,-0.097 14.670124,14.670124 0 0 0 -0.701004,-0.005 14.670124,14.670124 0 0 0 -0.589056,-0.005 z"
         style="opacity:0.98999999;fill:#f9f9f9;fill-opacity:0;fill-rule:evenodd;stroke:#2d2d2d;stroke-width:2.13890076;stroke-linecap:round;stroke-linejoin:round;stroke-miterlimit:4;stroke-dasharray:none;stroke-opacity:1;paint-order:markers fill stroke"
         inkscape:connector-curvature="0" />
      <path
         sodipodi:nodetypes="csccccccscscscscccccscccsccssssccccsscccscccsccc"
         inkscape:connector-curvature="0"
         id="path3716"
         style="font-style:normal;font-variant:normal;font-weight:500;font-stretch:normal;font-size:1090.89562988px;line-height:1.25;font-family:Cartoon;-inkscape-font-specification:'Cartoon, Medium';text-align:start;letter-spacing:0px;word-spacing:0px;writing-mode:lr-tb;text-anchor:start;fill:#f9f9f9;fill-opacity:1;stroke:none;stroke-width:0.04246397"
         d="m 27.841557,293.00223 c -0.473523,0.14412 -0.957394,0.21621 -1.451473,0.21621 -0.700028,0 -1.503008,-0.14412 -2.408841,-0.43239 -0.597097,-0.18529 -1.46179,-0.51472 -2.594128,-0.98824 -1.544114,-0.65882 -2.995616,-1.86323 -4.354447,-3.61324 -1.23529,-1.62651 -2.460297,-3.25298 -3.675031,-4.8794 -0.205889,0 -0.391176,0.15439 -0.555905,0.46323 -0.226417,0.45293 -0.391147,0.89552 -0.494104,1.32791 -0.08235,0.41179 -0.12354,0.85444 -0.12354,1.32794 0,0.37062 0.02062,0.9162 0.06177,1.63678 0.06177,0.7206 0.09265,1.19416 0.09265,1.42058 0,0.24707 0.07209,0.71033 0.21621,1.38972 0.08234,0.39121 0.123482,0.64855 0.123482,0.7721 0,0.41177 -0.16467,0.65879 -0.494104,0.74114 -0.329377,0.0823 -0.597039,0.12354 -0.80293,0.12354 -0.247023,0 -0.514688,-0.0308 -0.802954,-0.0926 -0.288244,-0.0823 -0.6691241,-0.18532 -1.1426262,-0.3088 -0.45297,-0.14412 -0.9368111,-0.29853 -1.4514723,-0.46323 -0.494159,-0.22651 -0.8132711,-0.58681 -0.9573946,-1.08088 -0.4529447,-1.62653 -0.7926361,-3.6133 -1.0191122,-5.96034 -0.2058851,-2.36766 -0.3087943,-4.82797 -0.3087943,-7.38091 0,-3.33532 0.1543857,-6.31038 0.4632356,-8.92508 0.3087951,-2.61468 0.774681,-3.95353 0.988237,-4.10734 0.3705667,-0.12354 0.6485193,-0.20594 0.8338285,-0.24708 0.4117293,-0.10296 0.8131933,-0.15444 1.2043949,-0.15444 0.9470736,0 1.8426476,0.32943 2.6867936,0.98823 0.226498,0.16471 0.38088,0.44267 0.463206,0.83387 0.0824,0.3912 0.123541,0.8853 0.123541,1.48239 0,0.76172 -0.09265,1.96613 -0.277953,3.61318 -0.185287,1.64711 -0.277923,2.71767 -0.277923,3.2118 0,0.76176 0.133803,1.14265 0.401464,1.14265 0.123565,0 0.288266,-0.0823 0.494103,-0.24705 0.535326,-0.43237 1.27651,-1.56473 2.223557,-3.39708 0.802961,-1.58528 1.636786,-3.17058 2.501515,-4.75588 0.864696,-1.60592 1.592829,-2.38881 1.881018,-2.40939 0.288271,-0.0412 0.363091,-0.10243 0.527792,-0.12303 0.164728,-0.0206 0.329436,-0.031 0.494107,-0.031 0.452973,0 0.895573,0.0515 1.327964,0.15445 0.452967,0.0823 1.17352,0.30879 2.161786,0.67938 0.658808,0.22651 1.327933,0.44265 2.007349,0.64855 0.679416,0.28822 1.019116,0.7412 1.019116,1.3588 0,0.47354 -0.669103,1.43092 -2.007357,2.87209 -1.338223,1.42062 -2.676473,2.85147 -4.014696,4.29266 -1.647077,1.85297 -2.727954,3.37648 -3.242696,4.57064 -0.04119,0.12354 -0.06177,0.22645 -0.06177,0.3088 0,0.7824 1.091197,2.30588 3.273538,4.57062 1.955897,1.89407 3.91182,3.78827 5.867718,5.68236 0.846854,1.42333 3.420073,3.19947 1.080883,3.76767 z" />
    </g>
  </g>
</svg>
