<?xml version="1.0" encoding="UTF-8" standalone="no"?>
<!-- Created with Inkscape (http://www.inkscape.org/) -->

<svg
        xmlns:dc="http://purl.org/dc/elements/1.1/"
        xmlns:cc="http://creativecommons.org/ns#"
        xmlns:rdf="http://www.w3.org/1999/02/22-rdf-syntax-ns#"
        xmlns="http://www.w3.org/2000/svg"
        xmlns:sodipodi="http://sodipodi.sourceforge.net/DTD/sodipodi-0.dtd"
        xmlns:inkscape="http://www.inkscape.org/namespaces/inkscape"
        width="76.389999mm"
        height="71.893593mm"
        viewBox="0 0 61.112001 57.514873"
        version="1.1"
        id="svg3755"
        inkscape:version="0.92.1 r15371"
        sodipodi:docname="mail_white.svg">
  <defs
     id="defs3749" />
  <sodipodi:namedview
     id="base"
     pagecolor="#ffffff"
     bordercolor="#666666"
     borderopacity="1.0"
     inkscape:pageopacity="0.0"
     inkscape:pageshadow="2"
     inkscape:zoom="0.49497475"
     inkscape:cx="702.78671"
     inkscape:cy="33.438797"
     inkscape:document-units="mm"
     inkscape:current-layer="layer1"
     showgrid="false"
     scale-x="0.8"
     fit-margin-top="0"
     fit-margin-left="0"
     fit-margin-right="0"
     fit-margin-bottom="0"
     inkscape:window-width="1600"
     inkscape:window-height="838"
     inkscape:window-x="-8"
     inkscape:window-y="-8"
     inkscape:window-maximized="1" />
  <metadata
     id="metadata3752">
    <rdf:RDF>
      <cc:Work
         rdf:about="">
        <dc:format>image/svg+xml</dc:format>
        <dc:type
           rdf:resource="http://purl.org/dc/dcmitype/StillImage" />
        <dc:title></dc:title>
      </cc:Work>
    </rdf:RDF>
  </metadata>
  <g
     inkscape:label="Camada 1"
     inkscape:groupmode="layer"
     id="layer1"
     transform="translate(151.50838,23.555055)">
    <path
       id="path3720"
       d="m -120.94797,-23.553551 c -0.28797,0.0179 -0.6378,0.19715 -1.264,0.59428 -1.26334,0.80118 -26.23128,19.26566 -28.17193,20.83387 l -1.12448,0.90847 V 16.00063 c 0,16.08701 0.0304,17.240019 0.46302,17.568428 0.68634,0.521012 59.506361,0.521012 60.192712,0 0.432779,-0.328549 0.463269,-1.480277 0.455268,-17.652669 l -0.0083,-17.30075 -10.7735,-7.98453 c -12.74951,-9.44896 -18.50471,-13.64668 -19.27066,-14.05495 -0.17472,-0.0931 -0.32538,-0.14047 -0.49816,-0.12971 z m -0.004,2.72232 c 0.0995,0 3.65315,2.57689 7.89719,5.72626 4.24404,3.14937 10.06108,7.46539 12.92634,9.59115 l 5.209507,3.86488 -3.989938,0.0734 c -2.194409,0.0403 -4.055679,0.007 -4.136179,-0.0734 -0.0805,-0.0805 -0.19753,-1.21497 -0.25994,-2.52078 l -0.11368,-2.37401 h -17.56224 -17.56275 l -0.003,1.52135 c -0.002,0.83674 -0.0767,1.96784 -0.16691,2.51354 l -0.16434,0.99219 h -4.10724 -4.10724 l 2.7528,-2.06809 c 8.31947,-6.24994 23.23142,-17.24649 23.38721,-17.24649 z m -24.85482,21.96041 h 3.46491 3.46438 l 0.16434,0.99219 c 0.0901,0.5457 0.16342,1.527971 0.16278,2.182809 -0.002,2.102652 -0.13612,2.079641 -3.84266,-0.65577 z m 46.24731,0 h 3.468523 l -3.405994,2.513541 c -1.873249,1.382448 -3.433599,2.51355 -3.468009,2.51355 -0.34562,0 -0.51339,-3.345231 -0.2222,-4.431771 0.15516,-0.57902 0.25446,-0.59532 3.62768,-0.59532 z m 6.656443,0.79375 c 0.07294,0 0.132291,6.607971 0.132291,14.68438 V 31.291678 H -120.94897 -149.1271 V 16.7551 c 0,-7.99505 0.0893,-14.586481 0.19844,-14.647681 0.10914,-0.0612 6.09203,4.272781 13.29531,9.63145 7.20328,5.35867 13.47028,9.94595 13.92629,10.19369 l 0.82888,0.450101 2.21382,-1.547701 c 1.21748,-0.851379 7.48202,-5.454719 13.92112,-10.229869 6.439097,-4.77516 11.767202,-8.682161 11.840103,-8.682161 z"
       style="fill:#f9f9f9;stroke-width:0.26458332"
       inkscape:connector-curvature="0" />
    <g
       style="fill:#f9f9f9"
       transform="matrix(0.4708892,0,0,0.4708892,-128.35303,-126.21316)"
       id="g3726">
      <path
         id="path3722"
         d="m 15.127274,264.42441 a 14.670124,14.670124 0 0 0 -0.111947,0.0101 14.670124,14.670124 0 0 0 -1.047507,0.0965 14.670124,14.670124 0 0 0 -0.360897,0.0394 14.670124,14.670124 0 0 0 -1.360427,0.26388 14.670124,14.670124 0 0 0 -0.01866,0.004 14.670124,14.670124 0 0 0 -0.0075,0.002 14.670124,14.670124 0 0 0 -9.395581,7.19769 l 0.00213,0.11088 a 14.670124,14.670124 0 0 0 -1.7554383,6.67846 14.670124,14.670124 0 0 0 2.0033244,7.62681 l 0.00213,0.11355 a 14.670124,14.670124 0 0 0 7.2579189,6.15177 14.670124,14.670124 0 0 0 0.02079,0.009 14.670124,14.670124 0 0 0 1.266604,0.4286 14.670124,14.670124 0 0 0 0.113547,0.0384 14.670124,14.670124 0 0 0 0.19724,0.0528 14.670124,14.670124 0 0 0 1.179712,0.25695 14.670124,14.670124 0 0 0 0.315585,0.0592 14.670124,14.670124 0 0 0 0.977141,0.11301 14.670124,14.670124 0 0 0 0.548008,0.0464 14.670124,14.670124 0 0 0 0.762842,0.0112 14.670124,14.670124 0 0 0 0.763374,-0.0112 14.670124,14.670124 0 0 0 0.54641,-0.0464 14.670124,14.670124 0 0 0 0.978739,-0.11301 14.670124,14.670124 0 0 0 0.316651,-0.0592 14.670124,14.670124 0 0 0 1.177047,-0.25695 14.670124,14.670124 0 0 0 0.198307,-0.0528 14.670124,14.670124 0 0 0 0.111947,-0.0379 14.670124,14.670124 0 0 0 1.268736,-0.42913 14.670124,14.670124 0 0 0 0.02079,-0.009 14.670124,14.670124 0 0 0 7.257919,-6.15177 l 0.0022,-0.11462 a 14.670124,14.670124 0 0 0 2.002791,-7.62574 14.670124,14.670124 0 0 0 -1.755441,-6.67953 l 0.0022,-0.10981 a 14.670124,14.670124 0 0 0 -9.393013,-7.19715 14.670124,14.670124 0 0 0 -0.0096,-0.003 14.670124,14.670124 0 0 0 -0.02399,-0.005 14.670124,14.670124 0 0 0 -1.356162,-0.26281 14.670124,14.670124 0 0 0 -0.358232,-0.0389 14.670124,14.670124 0 0 0 -1.049639,-0.097 14.670124,14.670124 0 0 0 -0.701004,-0.005 14.670124,14.670124 0 0 0 -0.589056,-0.005 z"
         style="opacity:0.98999999;fill:#f9f9f9;fill-opacity:0;fill-rule:evenodd;stroke:#2d2d2d;stroke-width:2.13890076;stroke-linecap:round;stroke-linejoin:round;stroke-miterlimit:4;stroke-dasharray:none;stroke-opacity:1;paint-order:markers fill stroke"
         inkscape:connector-curvature="0" />
      <path
         sodipodi:nodetypes="csccccccscscscscccccscccsccssssccccsscccscccsccc"
         inkscape:connector-curvature="0"
         id="path3724"
         style="font-style:normal;font-variant:normal;font-weight:500;font-stretch:normal;font-size:1090.89562988px;line-height:1.25;font-family:Cartoon;-inkscape-font-specification:'Cartoon, Medium';text-align:start;letter-spacing:0px;word-spacing:0px;writing-mode:lr-tb;text-anchor:start;fill:#f9f9f9;fill-opacity:1;stroke:none;stroke-width:0.04246397"
         d="m 27.841557,293.00223 c -0.473523,0.14412 -0.957394,0.21621 -1.451473,0.21621 -0.700028,0 -1.503008,-0.14412 -2.408841,-0.43239 -0.597097,-0.18529 -1.46179,-0.51472 -2.594128,-0.98824 -1.544114,-0.65882 -2.995616,-1.86323 -4.354447,-3.61324 -1.23529,-1.62651 -2.460297,-3.25298 -3.675031,-4.8794 -0.205889,0 -0.391176,0.15439 -0.555905,0.46323 -0.226417,0.45293 -0.391147,0.89552 -0.494104,1.32791 -0.08235,0.41179 -0.12354,0.85444 -0.12354,1.32794 0,0.37062 0.02062,0.9162 0.06177,1.63678 0.06177,0.7206 0.09265,1.19416 0.09265,1.42058 0,0.24707 0.07209,0.71033 0.21621,1.38972 0.08234,0.39121 0.123482,0.64855 0.123482,0.7721 0,0.41177 -0.16467,0.65879 -0.494104,0.74114 -0.329377,0.0823 -0.597039,0.12354 -0.80293,0.12354 -0.247023,0 -0.514688,-0.0308 -0.802954,-0.0926 -0.288244,-0.0823 -0.6691241,-0.18532 -1.1426262,-0.3088 -0.45297,-0.14412 -0.9368111,-0.29853 -1.4514723,-0.46323 -0.494159,-0.22651 -0.8132711,-0.58681 -0.9573946,-1.08088 -0.4529447,-1.62653 -0.7926361,-3.6133 -1.0191122,-5.96034 -0.2058851,-2.36766 -0.3087943,-4.82797 -0.3087943,-7.38091 0,-3.33532 0.1543857,-6.31038 0.4632356,-8.92508 0.3087951,-2.61468 0.774681,-3.95353 0.988237,-4.10734 0.3705667,-0.12354 0.6485193,-0.20594 0.8338285,-0.24708 0.4117293,-0.10296 0.8131933,-0.15444 1.2043949,-0.15444 0.9470736,0 1.8426476,0.32943 2.6867936,0.98823 0.226498,0.16471 0.38088,0.44267 0.463206,0.83387 0.0824,0.3912 0.123541,0.8853 0.123541,1.48239 0,0.76172 -0.09265,1.96613 -0.277953,3.61318 -0.185287,1.64711 -0.277923,2.71767 -0.277923,3.2118 0,0.76176 0.133803,1.14265 0.401464,1.14265 0.123565,0 0.288266,-0.0823 0.494103,-0.24705 0.535326,-0.43237 1.27651,-1.56473 2.223557,-3.39708 0.802961,-1.58528 1.636786,-3.17058 2.501515,-4.75588 0.864696,-1.60592 1.592829,-2.38881 1.881018,-2.40939 0.288271,-0.0412 0.363091,-0.10243 0.527792,-0.12303 0.164728,-0.0206 0.329436,-0.031 0.494107,-0.031 0.452973,0 0.895573,0.0515 1.327964,0.15445 0.452967,0.0823 1.17352,0.30879 2.161786,0.67938 0.658808,0.22651 1.327933,0.44265 2.007349,0.64855 0.679416,0.28822 1.019116,0.7412 1.019116,1.3588 0,0.47354 -0.669103,1.43092 -2.007357,2.87209 -1.338223,1.42062 -2.676473,2.85147 -4.014696,4.29266 -1.647077,1.85297 -2.727954,3.37648 -3.242696,4.57064 -0.04119,0.12354 -0.06177,0.22645 -0.06177,0.3088 0,0.7824 1.091197,2.30588 3.273538,4.57062 1.955897,1.89407 3.91182,3.78827 5.867718,5.68236 0.846854,1.42333 3.420073,3.19947 1.080883,3.76767 z" />
    </g>
    <g
       id="g3732"
       transform="matrix(0.4708892,0,0,0.4708892,-128.35303,-126.21316)"
       style="fill:#000000">
      <path
         inkscape:connector-curvature="0"
         style="opacity:0.98999999;fill:#000000;fill-opacity:0;fill-rule:evenodd;stroke:#2d2d2d;stroke-width:2.13890076;stroke-linecap:round;stroke-linejoin:round;stroke-miterlimit:4;stroke-dasharray:none;stroke-opacity:1;paint-order:markers fill stroke"
         d="m 15.127274,264.42441 a 14.670124,14.670124 0 0 0 -0.111947,0.0101 14.670124,14.670124 0 0 0 -1.047507,0.0965 14.670124,14.670124 0 0 0 -0.360897,0.0394 14.670124,14.670124 0 0 0 -1.360427,0.26388 14.670124,14.670124 0 0 0 -0.01866,0.004 14.670124,14.670124 0 0 0 -0.0075,0.002 14.670124,14.670124 0 0 0 -9.395581,7.19769 l 0.00213,0.11088 a 14.670124,14.670124 0 0 0 -1.7554383,6.67846 14.670124,14.670124 0 0 0 2.0033244,7.62681 l 0.00213,0.11355 a 14.670124,14.670124 0 0 0 7.2579189,6.15177 14.670124,14.670124 0 0 0 0.02079,0.009 14.670124,14.670124 0 0 0 1.266604,0.4286 14.670124,14.670124 0 0 0 0.113547,0.0384 14.670124,14.670124 0 0 0 0.19724,0.0528 14.670124,14.670124 0 0 0 1.179712,0.25695 14.670124,14.670124 0 0 0 0.315585,0.0592 14.670124,14.670124 0 0 0 0.977141,0.11301 14.670124,14.670124 0 0 0 0.548008,0.0464 14.670124,14.670124 0 0 0 0.762842,0.0112 14.670124,14.670124 0 0 0 0.763374,-0.0112 14.670124,14.670124 0 0 0 0.54641,-0.0464 14.670124,14.670124 0 0 0 0.978739,-0.11301 14.670124,14.670124 0 0 0 0.316651,-0.0592 14.670124,14.670124 0 0 0 1.177047,-0.25695 14.670124,14.670124 0 0 0 0.198307,-0.0528 14.670124,14.670124 0 0 0 0.111947,-0.0379 14.670124,14.670124 0 0 0 1.268736,-0.42913 14.670124,14.670124 0 0 0 0.02079,-0.009 14.670124,14.670124 0 0 0 7.257919,-6.15177 l 0.0022,-0.11462 a 14.670124,14.670124 0 0 0 2.002791,-7.62574 14.670124,14.670124 0 0 0 -1.755441,-6.67953 l 0.0022,-0.10981 a 14.670124,14.670124 0 0 0 -9.393013,-7.19715 14.670124,14.670124 0 0 0 -0.0096,-0.003 14.670124,14.670124 0 0 0 -0.02399,-0.005 14.670124,14.670124 0 0 0 -1.356162,-0.26281 14.670124,14.670124 0 0 0 -0.358232,-0.0389 14.670124,14.670124 0 0 0 -1.049639,-0.097 14.670124,14.670124 0 0 0 -0.701004,-0.005 14.670124,14.670124 0 0 0 -0.589056,-0.005 z"
         id="path3728" />
      <path
         d="m 27.841557,293.00223 c -0.473523,0.14412 -0.957394,0.21621 -1.451473,0.21621 -0.700028,0 -1.503008,-0.14412 -2.408841,-0.43239 -0.597097,-0.18529 -1.46179,-0.51472 -2.594128,-0.98824 -1.544114,-0.65882 -2.995616,-1.86323 -4.354447,-3.61324 -1.23529,-1.62651 -2.460297,-3.25298 -3.675031,-4.8794 -0.205889,0 -0.391176,0.15439 -0.555905,0.46323 -0.226417,0.45293 -0.391147,0.89552 -0.494104,1.32791 -0.08235,0.41179 -0.12354,0.85444 -0.12354,1.32794 0,0.37062 0.02062,0.9162 0.06177,1.63678 0.06177,0.7206 0.09265,1.19416 0.09265,1.42058 0,0.24707 0.07209,0.71033 0.21621,1.38972 0.08234,0.39121 0.123482,0.64855 0.123482,0.7721 0,0.41177 -0.16467,0.65879 -0.494104,0.74114 -0.329377,0.0823 -0.597039,0.12354 -0.80293,0.12354 -0.247023,0 -0.514688,-0.0308 -0.802954,-0.0926 -0.288244,-0.0823 -0.6691241,-0.18532 -1.1426262,-0.3088 -0.45297,-0.14412 -0.9368111,-0.29853 -1.4514723,-0.46323 -0.494159,-0.22651 -0.8132711,-0.58681 -0.9573946,-1.08088 -0.4529447,-1.62653 -0.7926361,-3.6133 -1.0191122,-5.96034 -0.2058851,-2.36766 -0.3087943,-4.82797 -0.3087943,-7.38091 0,-3.33532 0.1543857,-6.31038 0.4632356,-8.92508 0.3087951,-2.61468 0.774681,-3.95353 0.988237,-4.10734 0.3705667,-0.12354 0.6485193,-0.20594 0.8338285,-0.24708 0.4117293,-0.10296 0.8131933,-0.15444 1.2043949,-0.15444 0.9470736,0 1.8426476,0.32943 2.6867936,0.98823 0.226498,0.16471 0.38088,0.44267 0.463206,0.83387 0.0824,0.3912 0.123541,0.8853 0.123541,1.48239 0,0.76172 -0.09265,1.96613 -0.277953,3.61318 -0.185287,1.64711 -0.277923,2.71767 -0.277923,3.2118 0,0.76176 0.133803,1.14265 0.401464,1.14265 0.123565,0 0.288266,-0.0823 0.494103,-0.24705 0.535326,-0.43237 1.27651,-1.56473 2.223557,-3.39708 0.802961,-1.58528 1.636786,-3.17058 2.501515,-4.75588 0.864696,-1.60592 1.592829,-2.38881 1.881018,-2.40939 0.288271,-0.0412 0.363091,-0.10243 0.527792,-0.12303 0.164728,-0.0206 0.329436,-0.031 0.494107,-0.031 0.452973,0 0.895573,0.0515 1.327964,0.15445 0.452967,0.0823 1.17352,0.30879 2.161786,0.67938 0.658808,0.22651 1.327933,0.44265 2.007349,0.64855 0.679416,0.28822 1.019116,0.7412 1.019116,1.3588 0,0.47354 -0.669103,1.43092 -2.007357,2.87209 -1.338223,1.42062 -2.676473,2.85147 -4.014696,4.29266 -1.647077,1.85297 -2.727954,3.37648 -3.242696,4.57064 -0.04119,0.12354 -0.06177,0.22645 -0.06177,0.3088 0,0.7824 1.091197,2.30588 3.273538,4.57062 1.955897,1.89407 3.91182,3.78827 5.867718,5.68236 0.846854,1.42333 3.420073,3.19947 1.080883,3.76767 z"
         style="font-style:normal;font-variant:normal;font-weight:500;font-stretch:normal;font-size:1090.89562988px;line-height:1.25;font-family:Cartoon;-inkscape-font-specification:'Cartoon, Medium';text-align:start;letter-spacing:0px;word-spacing:0px;writing-mode:lr-tb;text-anchor:start;fill:#000000;fill-opacity:1;stroke:none;stroke-width:0.04246397"
         id="path3730"
         inkscape:connector-curvature="0"
         sodipodi:nodetypes="csccccccscscscscccccscccsccssssccccsscccscccsccc" />
    </g>
  </g>
</svg>
