<?xml version="1.0" encoding="UTF-8" standalone="no"?>
<!-- Created with Inkscape (http://www.inkscape.org/) -->

<svg
        xmlns:dc="http://purl.org/dc/elements/1.1/"
        xmlns:cc="http://creativecommons.org/ns#"
        xmlns:rdf="http://www.w3.org/1999/02/22-rdf-syntax-ns#"
        xmlns="http://www.w3.org/2000/svg"
        xmlns:sodipodi="http://sodipodi.sourceforge.net/DTD/sodipodi-0.dtd"
        xmlns:inkscape="http://www.inkscape.org/namespaces/inkscape"
        width="420"
        height="420"
        viewBox="0 0 420 420"
        id="svg2"
        version="1.1"
        inkscape:version="0.91 r13725"
        sodipodi:docname="moon.svg">
  <defs
     id="defs4" />
  <sodipodi:namedview
     id="base"
     pagecolor="#ffffff"
     bordercolor="#666666"
     borderopacity="1.0"
     inkscape:pageopacity="0.0"
     inkscape:pageshadow="2"
     inkscape:zoom="0.7"
     inkscape:cx="501.58821"
     inkscape:cy="155.95786"
     inkscape:document-units="px"
     inkscape:current-layer="layer1"
     showgrid="false"
     inkscape:window-width="1535"
     inkscape:window-height="876"
     inkscape:window-x="65"
     inkscape:window-y="24"
     inkscape:window-maximized="1"
     fit-margin-top="0"
     fit-margin-left="0"
     fit-margin-right="0"
     fit-margin-bottom="0"
     units="px" />
  <metadata
     id="metadata7">
    <rdf:RDF>
      <cc:Work
         rdf:about="">
        <dc:format>image/svg+xml</dc:format>
        <dc:type
           rdf:resource="http://purl.org/dc/dcmitype/StillImage" />
        <dc:title></dc:title>
      </cc:Work>
    </rdf:RDF>
  </metadata>
  <g
     inkscape:label="Camada 1"
     inkscape:groupmode="layer"
     id="layer1"
     transform="translate(1077.1428,-398.07647)">
    <path
       style="fill:#000000"
       d="m -881.86675,789.96107 c -7.67427,-7.67425 -7.68065,-54.25936 -0.008,-62.84586 17.01464,-19.04269 30.8782,-4.00577 30.14956,32.70129 -0.69048,34.78456 -13.09499,47.19056 -30.14095,30.14457 z m -116.06871,-46.87351 c -24.23274,-12.15394 18.29486,-70.61531 42.85069,-58.90545 15.85486,7.56066 13.87975,20.24263 -6.43365,41.30984 -19.61288,20.3407 -25.38408,23.12918 -36.41704,17.59561 z m 241.68402,0.56295 c -30.69777,-13.7019 -46.82599,-55.09309 -23.72627,-60.89075 10.23019,-2.56763 43.99344,25.16044 48.35244,39.7094 4.5187,15.08189 -10.1072,27.66184 -24.62617,21.18135 z m -132.047,-64.28439 c -55.66599,-14.96943 -74.4809,-84.663 -33.83042,-125.3135 44.88447,-44.88447 122.16533,-16.31464 127.47793,47.12708 4.25418,50.80266 -44.40517,91.42843 -93.64751,78.18642 z m 34.3534,-37.55531 c 27.11732,-12.4395 30.49304,-48.94014 6.15064,-66.50489 -10.43014,-7.52608 -31.16861,-7.84103 -42.05218,-0.63862 -38.22834,25.29832 -5.6596,86.2088 35.90154,67.14351 z m -196.03246,-19.7945 c -6.136,-4.29782 -9.1821,-13.18169 -6.8954,-20.11044 6.2657,-18.98509 66.08436,-18.98509 72.35001,0 5.56065,16.84898 -3.9482,22.85713 -36.17501,22.85713 -20.7178,0 -26.0758,-0.50263 -29.2796,-2.74669 z m 301.03857,-2.05448 c -18.79319,-16.79171 -4.55741,-30.57065 31.58416,-30.57065 34.5191,0 47.3432,11.94515 31.9968,29.80369 -6.6297,7.71487 -55.1498,8.30017 -63.58096,0.76696 z m -221.22782,-90.16097 c -31.13315,-14.30078 -47.36435,-56.4917 -23.45827,-60.97651 14.91064,-2.79725 51.89774,33.68824 48.73754,48.07657 -2.33778,10.64379 -15.53253,17.37703 -25.27927,12.89994 z m 186.37837,-0.53398 c -19.34347,-9.53072 6.55453,-57.38108 32.74364,-60.49872 25.02777,-2.97937 26.77487,18.93555 3.42243,42.92827 -19.58024,20.11707 -25.329,22.90998 -36.16607,17.57045 z m -92.25849,-38.30524 c -17.48333,-7.60917 -16.04554,-65.77303 1.77125,-71.65311 16.84898,-5.56065 22.85714,3.94822 22.85714,36.17503 0,28.29398 -0.93929,31.29829 -11.11445,35.54975 -6.74874,2.81981 -6.87179,2.81915 -13.51394,-0.0718 z"
       id="path3353"
       inkscape:connector-curvature="0" />
  </g>
</svg>
