<?xml version="1.0" encoding="UTF-8" standalone="no"?>
<!-- Created with Inkscape (http://www.inkscape.org/) -->

<svg
        xmlns:dc="http://purl.org/dc/elements/1.1/"
        xmlns:cc="http://creativecommons.org/ns#"
        xmlns:rdf="http://www.w3.org/1999/02/22-rdf-syntax-ns#"
        xmlns="http://www.w3.org/2000/svg"
        xmlns:sodipodi="http://sodipodi.sourceforge.net/DTD/sodipodi-0.dtd"
        xmlns:inkscape="http://www.inkscape.org/namespaces/inkscape"
        width="3.5489933mm"
        height="3.0324044mm"
        viewBox="0 0 3.5489933 3.0324044"
        version="1.1"
        id="svg6651"
        inkscape:version="0.92.1 r15371"
        sodipodi:docname="cart_dark.svg">
  <defs
     id="defs6645" />
  <sodipodi:namedview
     id="base"
     pagecolor="#ffffff"
     bordercolor="#666666"
     borderopacity="1.0"
     inkscape:pageopacity="0.0"
     inkscape:pageshadow="2"
     inkscape:zoom="31.678384"
     inkscape:cx="9.992452"
     inkscape:cy="4.0915172"
     inkscape:document-units="mm"
     inkscape:current-layer="layer1"
     showgrid="false"
     fit-margin-top="0"
     fit-margin-left="0"
     fit-margin-right="0"
     fit-margin-bottom="0"
     inkscape:window-width="1600"
     inkscape:window-height="848"
     inkscape:window-x="-8"
     inkscape:window-y="-8"
     inkscape:window-maximized="1" />
  <metadata
     id="metadata6648">
    <rdf:RDF>
      <cc:Work
         rdf:about="">
        <dc:format>image/svg+xml</dc:format>
        <dc:type
           rdf:resource="http://purl.org/dc/dcmitype/StillImage" />
        <dc:title></dc:title>
      </cc:Work>
    </rdf:RDF>
  </metadata>
  <g
     inkscape:label="Camada 1"
     inkscape:groupmode="layer"
     id="layer1"
     transform="translate(-53.410027,-114.05523)">
    <path
       sodipodi:nodetypes="ccccccccsccsccccsccccccccccscssscccccccccccccccssccc"
       style="fill:#c6c6c6;fill-opacity:1;stroke-width:0.01887115"
       d="m 54.601847,117.06222 c -0.22577,-0.0705 -0.34858,-0.3494 -0.24966,-0.56717 0.0478,-0.10527 0.173,-0.20792 0.28688,-0.23525 0.25167,-0.0603 0.50624,0.14131 0.50745,0.40202 7.91e-4,0.18144 -0.12196,0.35093 -0.29048,0.40099 -0.1119,0.0332 -0.14599,0.0332 -0.25419,-6.1e-4 z m 0.22406,-0.20747 c 0.0784,-0.0405 0.11343,-0.10055 0.11343,-0.19447 0,-0.13294 -0.12939,-0.23509 -0.25717,-0.20301 -0.0273,0.007 -0.074,0.0369 -0.1038,0.0666 -0.0434,0.0434 -0.0542,0.0709 -0.0542,0.13803 0,0.17021 0.15451,0.26894 0.30174,0.19281 z m 1.28779,0.21824 c -0.0859,-0.0217 -0.19374,-0.10096 -0.24968,-0.18363 -0.0407,-0.0601 -0.0472,-0.0906 -0.0472,-0.22366 0,-0.13952 0.005,-0.16145 0.0553,-0.23374 0.16685,-0.24076 0.50257,-0.24404 0.68337,-0.007 0.10739,0.14097 0.10712,0.34069 -5.29e-4,0.48218 -0.10439,0.13705 -0.28525,0.20492 -0.44115,0.16554 z m 0.20137,-0.21738 c 0.21345,-0.11037 0.0999,-0.44346 -0.13605,-0.39919 -0.0347,0.007 -0.0879,0.0378 -0.11826,0.0695 -0.16187,0.16896 0.0454,0.43775 0.25431,0.32974 z m -2.15536,-0.72166 c -0.11433,-0.63656 -0.2967,-1.70433 -0.2967,-1.75937 0,-0.0106 -0.0208,-0.0402 -0.0464,-0.0656 -0.0408,-0.0407 -0.0629,-0.0463 -0.18451,-0.0463 -0.16135,0 -0.22207,-0.0302 -0.22207,-0.11051 0,-0.0284 0.0102,-0.062 0.0226,-0.0745 0.0285,-0.0285 0.33152,-0.0306 0.40545,-0.002 0.11383,0.0431 0.20526,0.16532 0.22943,0.30689 l 0.0135,0.0787 1.34877,0.009 c 0.97227,0.007 1.35931,0.0155 1.38651,0.0313 0.0676,0.0391 0.12549,0.11458 0.14109,0.18371 0.0176,0.0779 -0.11086,0.90857 -0.16144,1.04444 -0.041,0.10997 -0.15703,0.20571 -0.27933,0.23038 -0.0532,0.0107 -0.55512,0.0583 -1.11552,0.10604 -0.5604,0.0476 -1.02205,0.0897 -1.02587,0.0934 z m 1.16831,-0.26697 c 0.47607,-0.0413 0.92927,-0.0807 1.00711,-0.0873 0.15215,-0.013 0.23307,-0.0435 0.26298,-0.0994 0.0364,-0.0681 0.17068,-0.93017 0.15067,-0.96754 -0.0179,-0.0334 -0.0733,-0.0349 -1.32012,-0.0349 -1.16106,0 -1.30145,0.003 -1.30145,0.0292 0,0.034 0.18744,1.17672 0.19875,1.21163 0.0109,0.0335 0.0405,0.032 1.00206,-0.0517 z"
       id="path6182-5-1-1-2-3-8"
       inkscape:connector-curvature="0" />
  </g>
</svg>
