<?xml version="1.0" encoding="UTF-8" standalone="no"?>
<!-- Created with Inkscape (http://www.inkscape.org/) -->

<svg
        xmlns:dc="http://purl.org/dc/elements/1.1/"
        xmlns:cc="http://creativecommons.org/ns#"
        xmlns:rdf="http://www.w3.org/1999/02/22-rdf-syntax-ns#"
        xmlns="http://www.w3.org/2000/svg"
        xmlns:sodipodi="http://sodipodi.sourceforge.net/DTD/sodipodi-0.dtd"
        xmlns:inkscape="http://www.inkscape.org/namespaces/inkscape"
        width="3.5489933mm"
        height="3.0324044mm"
        viewBox="0 0 3.5489933 3.0324044"
        version="1.1"
        id="svg6651"
        inkscape:version="0.92.1 r15371"
        sodipodi:docname="cart_fill.svg">
  <defs
     id="defs6645" />
  <sodipodi:namedview
     id="base"
     pagecolor="#ffffff"
     bordercolor="#666666"
     borderopacity="1.0"
     inkscape:pageopacity="0.0"
     inkscape:pageshadow="2"
     inkscape:zoom="128"
     inkscape:cx="8.371366"
     inkscape:cy="6.7784817"
     inkscape:document-units="mm"
     inkscape:current-layer="layer1"
     showgrid="false"
     fit-margin-top="0"
     fit-margin-left="0"
     fit-margin-right="0"
     fit-margin-bottom="0"
     inkscape:window-width="1366"
     inkscape:window-height="705"
     inkscape:window-x="-8"
     inkscape:window-y="-8"
     inkscape:window-maximized="1" />
  <metadata
     id="metadata6648">
    <rdf:RDF>
      <cc:Work
         rdf:about="">
        <dc:format>image/svg+xml</dc:format>
        <dc:type
           rdf:resource="http://purl.org/dc/dcmitype/StillImage" />
        <dc:title></dc:title>
      </cc:Work>
    </rdf:RDF>
  </metadata>
  <g
     inkscape:label="Camada 1"
     inkscape:groupmode="layer"
     id="layer1"
     transform="translate(-53.410027,-114.05523)">
    <path
       sodipodi:nodetypes="ccccccccsccsccccsccccccccccscssscccccccccccccccssccc"
       style="fill:#2d2d2d;fill-opacity:1;stroke-width:0.01887115"
       d="m 54.601847,117.06222 c -0.22577,-0.0705 -0.34858,-0.3494 -0.24966,-0.56717 0.0478,-0.10527 0.173,-0.20792 0.28688,-0.23525 0.25167,-0.0603 0.50624,0.14131 0.50745,0.40202 7.91e-4,0.18144 -0.12196,0.35093 -0.29048,0.40099 -0.1119,0.0332 -0.14599,0.0332 -0.25419,-6.1e-4 z m 0.22406,-0.20747 c 0.0784,-0.0405 0.11343,-0.10055 0.11343,-0.19447 0,-0.13294 -0.12939,-0.23509 -0.25717,-0.20301 -0.0273,0.007 -0.074,0.0369 -0.1038,0.0666 -0.0434,0.0434 -0.0542,0.0709 -0.0542,0.13803 0,0.17021 0.15451,0.26894 0.30174,0.19281 z m 1.28779,0.21824 c -0.0859,-0.0217 -0.19374,-0.10096 -0.24968,-0.18363 -0.0407,-0.0601 -0.0472,-0.0906 -0.0472,-0.22366 0,-0.13952 0.005,-0.16145 0.0553,-0.23374 0.16685,-0.24076 0.50257,-0.24404 0.68337,-0.007 0.10739,0.14097 0.10712,0.34069 -5.29e-4,0.48218 -0.10439,0.13705 -0.28525,0.20492 -0.44115,0.16554 z m 0.20137,-0.21738 c 0.21345,-0.11037 0.0999,-0.44346 -0.13605,-0.39919 -0.0347,0.007 -0.0879,0.0378 -0.11826,0.0695 -0.16187,0.16896 0.0454,0.43775 0.25431,0.32974 z m -2.15536,-0.72166 c -0.11433,-0.63656 -0.2967,-1.70433 -0.2967,-1.75937 0,-0.0106 -0.0208,-0.0402 -0.0464,-0.0656 -0.0408,-0.0407 -0.0629,-0.0463 -0.18451,-0.0463 -0.16135,0 -0.22207,-0.0302 -0.22207,-0.11051 0,-0.0284 0.0102,-0.062 0.0226,-0.0745 0.0285,-0.0285 0.33152,-0.0306 0.40545,-0.002 0.11383,0.0431 0.20526,0.16532 0.22943,0.30689 l 0.0135,0.0787 1.34877,0.009 c 0.97227,0.007 1.35931,0.0155 1.38651,0.0313 0.0676,0.0391 0.12549,0.11458 0.14109,0.18371 0.0176,0.0779 -0.11086,0.90857 -0.16144,1.04444 -0.041,0.10997 -0.15703,0.20571 -0.27933,0.23038 -0.0532,0.0107 -0.55512,0.0583 -1.11552,0.10604 -0.5604,0.0476 -1.02205,0.0897 -1.02587,0.0934 z m 1.16831,-0.26697 c 0.47607,-0.0413 0.92927,-0.0807 1.00711,-0.0873 0.15215,-0.013 0.23307,-0.0435 0.26298,-0.0994 0.0364,-0.0681 0.17068,-0.93017 0.15067,-0.96754 -0.0179,-0.0334 -0.0733,-0.0349 -1.32012,-0.0349 -1.16106,0 -1.30145,0.003 -1.30145,0.0292 0,0.034 0.18744,1.17672 0.19875,1.21163 0.0109,0.0335 0.0405,0.032 1.00206,-0.0517 z"
       id="path6182-5-1-1-2-3-8"
       inkscape:connector-curvature="0" />
    <path
       style="opacity:0.98999999;fill:#000000;fill-opacity:0;fill-rule:evenodd;stroke:#2d2d2d;stroke-width:0.27090442;stroke-linecap:round;stroke-linejoin:round;stroke-miterlimit:4;stroke-dasharray:none;stroke-opacity:1;paint-order:markers fill stroke"
       d="M 7.4609375 2.8007812 A 1.8580581 1.8580581 0 0 0 7.390625 2.8085938 A 1.8580581 1.8580581 0 0 0 7.2773438 2.8222656 A 1.8580581 1.8580581 0 0 0 7.1210938 2.8515625 A 1.8580581 1.8580581 0 0 0 7.0996094 2.8574219 A 1.8580581 1.8580581 0 0 0 7.0957031 2.859375 A 1.8580581 1.8580581 0 0 0 6.921875 2.9140625 A 1.8580581 1.8580581 0 0 0 6.9179688 2.9160156 A 1.8580581 1.8580581 0 0 0 5.9394531 3.7636719 A 1.8580581 1.8580581 0 0 0 5.7070312 4.625 A 1.8580581 1.8580581 0 0 0 6.3242188 6.0351562 A 1.8580581 1.8580581 0 0 0 6.4667969 6.1523438 A 1.8580581 1.8580581 0 0 0 6.6230469 6.2539062 A 1.8580581 1.8580581 0 0 0 6.7734375 6.3339844 A 1.8580581 1.8580581 0 0 0 6.8046875 6.3476562 A 1.8580581 1.8580581 0 0 0 6.9589844 6.4101562 A 1.8580581 1.8580581 0 0 0 7.0585938 6.4433594 A 1.8580581 1.8580581 0 0 0 7.1308594 6.4609375 A 1.8580581 1.8580581 0 0 0 7.1503906 6.4648438 A 1.8580581 1.8580581 0 0 0 7.2988281 6.4941406 A 1.8580581 1.8580581 0 0 0 7.3964844 6.5039062 A 1.8580581 1.8580581 0 0 0 7.4453125 6.5097656 A 1.8580581 1.8580581 0 0 0 7.4609375 6.5097656 A 1.8580581 1.8580581 0 0 0 7.5664062 6.5117188 A 1.8580581 1.8580581 0 0 0 7.6738281 6.5097656 A 1.8580581 1.8580581 0 0 0 7.6894531 6.5097656 A 1.8580581 1.8580581 0 0 0 7.7382812 6.5039062 A 1.8580581 1.8580581 0 0 0 7.8359375 6.4941406 A 1.8580581 1.8580581 0 0 0 7.984375 6.4648438 A 1.8580581 1.8580581 0 0 0 8.0039062 6.4609375 A 1.8580581 1.8580581 0 0 0 8.0761719 6.4433594 A 1.8580581 1.8580581 0 0 0 8.1757812 6.4101562 A 1.8580581 1.8580581 0 0 0 8.3203125 6.3535156 A 1.8580581 1.8580581 0 0 0 8.375 6.328125 A 1.8580581 1.8580581 0 0 0 8.5136719 6.2539062 A 1.8580581 1.8580581 0 0 0 8.6679688 6.1523438 A 1.8580581 1.8580581 0 0 0 8.8027344 6.0429688 A 1.8580581 1.8580581 0 0 0 8.8183594 6.0292969 A 1.8580581 1.8580581 0 0 0 9.4277344 4.625 A 1.8580581 1.8580581 0 0 0 8.2167969 2.9160156 A 1.8580581 1.8580581 0 0 0 8.0351562 2.8574219 A 1.8580581 1.8580581 0 0 0 8.015625 2.8515625 A 1.8580581 1.8580581 0 0 0 7.8574219 2.8222656 A 1.8580581 1.8580581 0 0 0 7.7441406 2.8085938 A 1.8580581 1.8580581 0 0 0 7.6464844 2.8007812 A 1.8580581 1.8580581 0 0 0 7.4882812 2.8007812 A 1.8580581 1.8580581 0 0 0 7.4609375 2.8007812 z "
       transform="matrix(0.26458333,0,0,0.26458333,53.410027,114.05523)"
       id="path4594-4-5-9" />
    <path
       d="m 55.81718,115.75373 c -0.01587,0.005 -0.03208,0.007 -0.04864,0.007 -0.02346,0 -0.05037,-0.005 -0.08072,-0.0145 -0.02001,-0.006 -0.04899,-0.0173 -0.08693,-0.0331 -0.05174,-0.0221 -0.100386,-0.0624 -0.145922,-0.12108 -0.0414,-0.0545 -0.08245,-0.10902 -0.123153,-0.16352 -0.0069,0 -0.01311,0.005 -0.01863,0.0155 -0.0076,0.0152 -0.01311,0.03 -0.01656,0.0445 -0.0028,0.0138 -0.0041,0.0286 -0.0041,0.0445 0,0.0124 6.89e-4,0.0307 0.0021,0.0549 0.0021,0.0241 0.0031,0.04 0.0031,0.0476 0,0.008 0.0024,0.0238 0.0072,0.0466 0.0028,0.0131 0.0041,0.0217 0.0041,0.0259 0,0.0138 -0.0055,0.0221 -0.01656,0.0248 -0.01104,0.003 -0.02001,0.004 -0.02691,0.004 -0.0083,0 -0.01725,-9.8e-4 -0.02691,-0.003 -0.0097,-0.003 -0.02242,-0.006 -0.03829,-0.0103 -0.01518,-0.005 -0.03139,-0.01 -0.04864,-0.0155 -0.01656,-0.008 -0.02725,-0.0196 -0.03208,-0.0362 -0.01518,-0.0545 -0.02656,-0.12108 -0.03415,-0.19973 -0.0069,-0.0793 -0.01035,-0.16179 -0.01035,-0.24735 0,-0.11177 0.0052,-0.21146 0.01552,-0.29909 0.01035,-0.0876 0.02596,-0.13248 0.03312,-0.13764 0.01242,-0.004 0.02173,-0.007 0.02794,-0.008 0.0138,-0.003 0.02725,-0.005 0.04036,-0.005 0.03174,0 0.06175,0.011 0.09004,0.0331 0.0076,0.006 0.01276,0.0148 0.01553,0.0279 0.0028,0.0131 0.0041,0.0297 0.0041,0.0497 0,0.0255 -0.0031,0.0659 -0.0093,0.12109 -0.0062,0.0552 -0.0093,0.0911 -0.0093,0.10763 0,0.0255 0.0045,0.0383 0.01346,0.0383 0.0041,0 0.0097,-0.003 0.01656,-0.008 0.01794,-0.0145 0.04278,-0.0524 0.07451,-0.11384 0.02691,-0.0531 0.05485,-0.10625 0.08383,-0.15938 0.02898,-0.0538 0.05338,-0.08 0.06304,-0.0807 0.0097,-10e-4 0.01217,-0.003 0.01769,-0.004 0.0055,-7.9e-4 0.01104,-9.9e-4 0.01656,-9.9e-4 0.01518,0 0.03001,0.002 0.0445,0.005 0.01518,0.003 0.03933,0.0104 0.07244,0.0228 0.02208,0.008 0.0445,0.0148 0.06727,0.0217 0.02277,0.01 0.03415,0.0248 0.03415,0.0455 0,0.0159 -0.02242,0.048 -0.06727,0.0962 -0.04485,0.0476 -0.08969,0.0956 -0.134538,0.14386 -0.05519,0.0621 -0.09142,0.11315 -0.108665,0.15316 -0.0014,0.004 -0.0021,0.008 -0.0021,0.0103 0,0.0262 0.03657,0.0773 0.1097,0.15317 0.06554,0.0635 0.131088,0.12695 0.196632,0.19042 0.02838,0.0477 0.114611,0.10722 0.03622,0.12626 z"
       style="font-style:normal;font-variant:normal;font-weight:500;font-stretch:normal;font-size:1090.89562988px;line-height:1.25;font-family:Cartoon;-inkscape-font-specification:'Cartoon, Medium';text-align:start;letter-spacing:0px;word-spacing:0px;writing-mode:lr-tb;text-anchor:start;fill:#0fa0fa;fill-opacity:1;stroke:none;stroke-width:0.00142301"
       id="path4600-3-3-5"
       inkscape:connector-curvature="0"
       sodipodi:nodetypes="csccccccscscscscccccscccsccssssccccsscccscccsccc" />
  </g>
</svg>
