<?xml version="1.0" encoding="UTF-8" standalone="no"?>
<!-- Created with Inkscape (http://www.inkscape.org/) -->

<svg
        xmlns:dc="http://purl.org/dc/elements/1.1/"
        xmlns:cc="http://creativecommons.org/ns#"
        xmlns:rdf="http://www.w3.org/1999/02/22-rdf-syntax-ns#"
        xmlns="http://www.w3.org/2000/svg"
        xmlns:sodipodi="http://sodipodi.sourceforge.net/DTD/sodipodi-0.dtd"
        xmlns:inkscape="http://www.inkscape.org/namespaces/inkscape"
        width="156.90308mm"
        height="85.768654mm"
        viewBox="0 0 156.90308 85.768654"
        version="1.1"
        id="svg8"
        inkscape:version="0.92.1 r15371"
        sodipodi:docname="logo.svg">
  <defs
     id="defs2" />
  <sodipodi:namedview
     id="base"
     pagecolor="#ffffff"
     bordercolor="#666666"
     borderopacity="1.0"
     inkscape:pageopacity="0.0"
     inkscape:pageshadow="2"
     inkscape:zoom="0.7"
     inkscape:cx="348.83263"
     inkscape:cy="133.7585"
     inkscape:document-units="mm"
     inkscape:current-layer="layer1-8"
     showgrid="false"
     fit-margin-top="0"
     fit-margin-left="0"
     fit-margin-right="0"
     fit-margin-bottom="0"
     inkscape:window-width="1600"
     inkscape:window-height="848"
     inkscape:window-x="-8"
     inkscape:window-y="-8"
     inkscape:window-maximized="1" />
  <metadata
     id="metadata5">
    <rdf:RDF>
      <cc:Work
         rdf:about="">
        <dc:format>image/svg+xml</dc:format>
        <dc:type
           rdf:resource="http://purl.org/dc/dcmitype/StillImage" />
        <dc:title></dc:title>
      </cc:Work>
    </rdf:RDF>
  </metadata>
  <g
     inkscape:label="Camada 1"
     inkscape:groupmode="layer"
     id="layer1"
     transform="translate(209.98725,-55.216274)">
    <g
       id="layer1-8"
       inkscape:label="Camada 1"
       transform="translate(-236.35911,32.044053)">
      <path
         style="opacity:0.98999999;fill:#000000;fill-opacity:0;fill-rule:evenodd;stroke:#c6c6c6;stroke-width:5.82749748;stroke-linecap:round;stroke-linejoin:round;stroke-miterlimit:4;stroke-dasharray:none;stroke-opacity:1;paint-order:markers fill stroke"
         d="M 103.62888,86.452021 A 39.969185,39.969185 0 0 1 58.34667,104.50862 39.969185,39.969185 0 0 1 29.291664,65.363631 39.969185,39.969185 0 0 1 59.686608,27.249715 39.969185,39.969185 0 0 1 104.31535,46.865651"
         id="path4594"
         inkscape:connector-curvature="0" />
      <path
         inkscape:connector-curvature="0"
         id="path4518"
         style="font-style:normal;font-variant:normal;font-weight:normal;font-stretch:normal;font-size:417.9624939px;line-height:50%;font-family:'Typo Hoop Demo';-inkscape-font-specification:'Typo Hoop Demo, Normal';text-align:center;letter-spacing:0px;word-spacing:0px;writing-mode:lr-tb;text-anchor:middle;fill:#c6c6c6;fill-opacity:1;stroke:none;stroke-width:0.087454;stroke-linecap:butt;stroke-linejoin:miter;stroke-miterlimit:4;stroke-dasharray:none;stroke-opacity:1"
         d="m 118.29668,77.969401 q 0,1.51106 -1.08299,2.56888 -1.05787,1.05787 -2.54375,1.05787 -1.51123,0 -2.56888,-1.05787 -1.05781,-1.05782 -1.05781,-2.56888 v -10.98088 q 0,-3.04741 -2.16592,-5.21325 -2.16599,-2.16599 -5.2134,-2.16599 -3.04747,0 -5.188132,2.16599 -2.16599,2.16584 -2.16599,5.21325 v 10.98088 q 0,1.51106 -1.057872,2.56888 -1.057663,1.05787 -2.56874,1.05787 -1.511211,0 -2.56902,-1.05787 -1.057813,-1.05782 -1.057813,-2.56888 v -10.98088 q 0,-6.06961 4.281612,-10.35108 4.281463,-4.28153 10.325955,-4.28153 6.06969,0 10.35122,4.28153 4.28153,4.28147 4.28153,10.35108 z" />
      <path
         inkscape:connector-curvature="0"
         id="path4520"
         style="font-style:normal;font-variant:normal;font-weight:normal;font-stretch:normal;font-size:417.9624939px;line-height:50%;font-family:'Typo Hoop Demo';-inkscape-font-specification:'Typo Hoop Demo, Normal';text-align:center;letter-spacing:0px;word-spacing:0px;writing-mode:lr-tb;text-anchor:middle;fill:#c6c6c6;fill-opacity:1;stroke:none;stroke-width:0.087454;stroke-linecap:butt;stroke-linejoin:miter;stroke-miterlimit:4;stroke-dasharray:none;stroke-opacity:1"
         d="m 136.15302,59.609281 q -3.04747,0 -5.18812,2.16599 -2.16601,2.16584 -2.16601,5.21325 0,3.04747 2.16601,5.21347 2.14065,2.14073 5.18812,2.14073 3.04748,0 5.2134,-2.14073 2.16599,-2.166 2.16599,-5.21347 0,-3.04741 -2.16599,-5.21325 -2.16592,-2.16599 -5.2134,-2.16599 z m -10.32595,-2.97184 q 4.28153,-4.28153 10.32595,-4.28153 6.06969,0 10.35115,4.28153 4.28168,4.28147 4.28168,10.35108 0,6.04457 -4.28168,10.3261 -4.28146,4.28153 -10.35115,4.28153 -6.04442,0 -10.32595,-4.28153 -4.28154,-4.28153 -4.28154,-10.3261 0,-6.06961 4.28154,-10.35108 z" />
      <path
         inkscape:connector-curvature="0"
         id="path4522"
         style="font-style:normal;font-variant:normal;font-weight:normal;font-stretch:normal;font-size:417.9624939px;line-height:50%;font-family:'Typo Hoop Demo';-inkscape-font-specification:'Typo Hoop Demo, Normal';text-align:center;letter-spacing:0px;word-spacing:0px;writing-mode:lr-tb;text-anchor:middle;fill:#c6c6c6;fill-opacity:1;stroke:none;stroke-width:0.087454;stroke-linecap:butt;stroke-linejoin:miter;stroke-miterlimit:4;stroke-dasharray:none;stroke-opacity:1"
         d="m 161.28806,89.579871 q 0,1.51108 -1.05774,2.56895 -1.05779,1.05767 -2.56893,1.05767 -1.51123,0 -2.56897,-1.05767 -1.05772,-1.05787 -1.05772,-2.56895 v -22.61648 q 0,-6.04448 4.28144,-10.32595 4.28155,-4.28153 10.32604,-4.28153 6.0697,0 10.35122,4.28153 4.28153,4.28147 4.28153,10.32595 0,6.0697 -4.28153,10.35123 -4.28152,4.28153 -10.35122,4.28153 -3.95414,0 -7.35412,-1.98973 z m 7.35412,-29.97059 q -3.04754,0 -5.18821,2.14066 -2.16591,2.16606 -2.16591,5.21345 0,3.04741 2.16591,5.21341 2.14067,2.16592 5.18821,2.16592 3.04741,0 5.21339,-2.16592 2.16594,-2.166 2.16594,-5.21341 0,-3.04739 -2.16594,-5.21345 -2.16598,-2.14066 -5.21339,-2.14066 z" />
      <path
         sodipodi:nodetypes="csccccccscscscscccccscccsccssssccccsscccscccsccc"
         inkscape:connector-curvature="0"
         id="path4600"
         style="font-style:normal;font-variant:normal;font-weight:500;font-stretch:normal;font-size:1090.89562988px;line-height:1.25;font-family:Cartoon;-inkscape-font-specification:'Cartoon, Medium';text-align:start;letter-spacing:0px;word-spacing:0px;writing-mode:lr-tb;text-anchor:start;fill:#0fa0fa;fill-opacity:1;stroke:none;stroke-width:0.11569437"
         d="m 102.22683,103.98394 c -1.29013,0.39267 -2.608452,0.58907 -3.954582,0.58907 -1.90725,0 -4.094989,-0.39266 -6.562963,-1.17805 -1.626801,-0.50482 -3.982687,-1.40236 -7.067777,-2.69249 -4.206977,-1.794949 -8.16164,-5.076419 -11.863815,-9.844369 -3.365586,-4.4315 -6.703148,-8.86285 -10.012728,-13.29406 -0.560957,0 -1.065774,0.42062 -1.51458,1.26209 -0.616887,1.23399 -1.065692,2.43987 -1.346204,3.61793 -0.224372,1.12191 -0.336589,2.32792 -0.336589,3.61799 0,1.00976 0.05622,2.49623 0.168294,4.45947 0.168295,1.9633 0.252406,3.25351 0.252406,3.8704 0,0.67317 0.196401,1.93534 0.589067,3.78635 0.224367,1.06585 0.336437,1.76698 0.336437,2.103569 0,1.12191 -0.448659,1.79494 -1.346204,2.0193 -0.897398,0.22438 -1.626649,0.3366 -2.187611,0.3366 -0.673025,0 -1.402277,-0.0842 -2.187672,-0.25247 -0.785328,-0.2243 -1.823053,-0.50489 -3.113114,-0.84133 -1.234134,-0.39266 -2.552371,-0.81336 -3.954581,-1.2621 -1.346356,-0.617099 -2.215782,-1.598749 -2.608449,-2.944879 -1.234064,-4.4315 -2.159567,-9.84453 -2.776601,-16.23911 -0.560947,-6.45074 -0.841325,-13.15396 -0.841325,-20.10951 0,-9.08715 0.420634,-17.192796 1.262107,-24.316636 0.84132,-7.12377 2.110636,-10.77149 2.692474,-11.19058 1.009621,-0.33658 1.76691,-0.5611 2.271794,-0.67317 1.121765,-0.28051 2.215564,-0.42077 3.281403,-0.42077 2.580339,0 5.020355,0.89755 7.320254,2.69248 0.617101,0.44874 1.037721,1.20603 1.262021,2.27187 0.224505,1.06585 0.336589,2.41205 0.336589,4.03884 0,2.07531 -0.252406,5.35679 -0.757289,9.84421 -0.504817,4.487586 -0.757209,7.404366 -0.757209,8.750636 0,2.07545 0.364547,3.11319 1.093798,3.11319 0.336656,0 0.785395,-0.22437 1.346204,-0.6731 1.458506,-1.17798 3.477884,-4.26314 6.058146,-9.255446 2.187692,-4.31914 4.459466,-8.63835 6.815447,-12.95755 2.35589,-4.37536 4.339716,-6.50835 5.124893,-6.56442 0.785395,-0.11222 0.989245,-0.27913 1.437985,-0.33521 0.448811,-0.0562 0.89755,-0.0843 1.346209,-0.0843 1.234135,0 2.440016,0.14027 3.618073,0.42078 1.234121,0.22438 3.197292,0.84132 5.889853,1.85101 1.794943,0.61711 3.617992,1.20603 5.469077,1.76699 1.85109,0.78525 2.77661,2.01939 2.77661,3.7021 0,1.29014 -1.82299,3.89859 -5.469096,7.82506 -3.646031,3.87054 -7.292134,7.768916 -10.938165,11.695526 -4.487504,5.04846 -7.43239,9.19929 -8.834819,12.45281 -0.112217,0.33658 -0.16829,0.61696 -0.16829,0.84133 0,2.13167 2.973,6.28245 8.91885,12.45282 5.328904,5.16045 10.657877,10.32122 15.98677,15.48175 2.307282,3.87791 9.318092,8.717049 2.944902,10.265119 z" />
    </g>
  </g>
</svg>
