<?xml version="1.0" encoding="UTF-8" standalone="no"?>
<!-- Created with Inkscape (http://www.inkscape.org/) -->

<svg
        xmlns:dc="http://purl.org/dc/elements/1.1/"
        xmlns:cc="http://creativecommons.org/ns#"
        xmlns:rdf="http://www.w3.org/1999/02/22-rdf-syntax-ns#"
        xmlns="http://www.w3.org/2000/svg"
        xmlns:sodipodi="http://sodipodi.sourceforge.net/DTD/sodipodi-0.dtd"
        xmlns:inkscape="http://www.inkscape.org/namespaces/inkscape"
        width="9.7983303mm"
        height="5.3561072mm"
        viewBox="0 0 9.7983303 5.3561072"
        version="1.1"
        id="svg5509"
        inkscape:version="0.92.1 r15371"
        sodipodi:docname="logo.svg">
  <defs
     id="defs5503" />
  <sodipodi:namedview
     id="base"
     pagecolor="#ffffff"
     bordercolor="#666666"
     borderopacity="1.0"
     inkscape:pageopacity="0.0"
     inkscape:pageshadow="2"
     inkscape:zoom="15.839192"
     inkscape:cx="18.109206"
     inkscape:cy="11.469439"
     inkscape:document-units="mm"
     inkscape:current-layer="layer1"
     showgrid="false"
     fit-margin-top="0"
     fit-margin-left="0"
     fit-margin-right="0"
     fit-margin-bottom="0"
     inkscape:window-width="1366"
     inkscape:window-height="705"
     inkscape:window-x="-8"
     inkscape:window-y="-8"
     inkscape:window-maximized="1" />
  <metadata
     id="metadata5506">
    <rdf:RDF>
      <cc:Work
         rdf:about="">
        <dc:format>image/svg+xml</dc:format>
        <dc:type
           rdf:resource="http://purl.org/dc/dcmitype/StillImage" />
        <dc:title></dc:title>
      </cc:Work>
    </rdf:RDF>
  </metadata>
  <g
     inkscape:label="Camada 1"
     inkscape:groupmode="layer"
     id="layer1"
     transform="translate(-171.99369,-137.08385)">
    <g
       id="g7122-9-6-0"
       transform="matrix(0.02730678,0,0,0.02730678,178.39925,148.83987)">
      <path
         style="opacity:0.98999999;fill:#000000;fill-opacity:0;fill-rule:evenodd;stroke:#2d2d2d;stroke-width:13.32700062;stroke-linecap:round;stroke-linejoin:round;stroke-miterlimit:4;stroke-dasharray:none;stroke-opacity:1;paint-order:markers fill stroke"
         d="m -57.897425,-285.80112 a 91.406189,91.406189 0 0 1 -103.556595,41.29405 91.406189,91.406189 0 0 1 -66.44629,-89.52126 91.406189,91.406189 0 0 1 69.51055,-87.16335 91.406189,91.406189 0 0 1 102.062425,44.86016"
         id="path4594-4-5-9"
         inkscape:connector-curvature="0" />
      <path
         inkscape:connector-curvature="0"
         id="path4518-3-9-5"
         style="font-style:normal;font-variant:normal;font-weight:normal;font-stretch:normal;font-size:417.9624939px;line-height:50%;font-family:'Typo Hoop Demo';-inkscape-font-specification:'Typo Hoop Demo, Normal';text-align:center;letter-spacing:0px;word-spacing:0px;writing-mode:lr-tb;text-anchor:middle;fill:#2d2d2d;fill-opacity:1;stroke:none;stroke-width:0.20000002;stroke-linecap:butt;stroke-linejoin:miter;stroke-miterlimit:4;stroke-dasharray:none;stroke-opacity:1"
         d="m -24.353425,-305.19989 q 0,3.45581 -2.47667,5.87485 -2.41907,2.41907 -5.81728,2.41907 -3.45581,0 -5.87487,-2.41907 -2.41907,-2.41904 -2.41907,-5.87485 v -25.11222 q 0,-6.96923 -4.95334,-11.92256 -4.95331,-4.95331 -11.92254,-4.95331 -6.96922,0 -11.86493,4.95331 -4.95334,4.95333 -4.95334,11.92256 v 25.11222 q 0,3.45581 -2.41906,5.87485 -2.41907,2.41907 -5.87488,2.41907 -3.45581,0 -5.87488,-2.41907 -2.41907,-2.41904 -2.41907,-5.87485 v -25.11222 q 0,-13.88085 9.79147,-23.67232 9.79145,-9.79145 23.61469,-9.79145 13.88085,0 23.6723,9.79145 9.79147,9.79147 9.79147,23.67232 z" />
      <path
         inkscape:connector-curvature="0"
         id="path4520-0-6-0"
         style="font-style:normal;font-variant:normal;font-weight:normal;font-stretch:normal;font-size:417.9624939px;line-height:50%;font-family:'Typo Hoop Demo';-inkscape-font-specification:'Typo Hoop Demo, Normal';text-align:center;letter-spacing:0px;word-spacing:0px;writing-mode:lr-tb;text-anchor:middle;fill:#2d2d2d;fill-opacity:1;stroke:none;stroke-width:0.20000002;stroke-linecap:butt;stroke-linejoin:miter;stroke-miterlimit:4;stroke-dasharray:none;stroke-opacity:1"
         d="m 16.482725,-347.18798 q -6.96923,0 -11.86494,4.95331 -4.95333004,4.95333 -4.95333004,11.92256 0,6.9692 4.95333004,11.92254 4.89571,4.89574 11.86494,4.89574 6.96922,0 11.92253,-4.89574 4.95335,-4.95334 4.95335,-11.92254 0,-6.96923 -4.95335,-11.92256 -4.95331,-4.95331 -11.92253,-4.95331 z m -23.61469,-6.79645 q 9.79144,-9.79145 23.61469,-9.79145 13.88085,0 23.67228,9.79145 9.79149,9.79147 9.79149,23.67232 0,13.82322 -9.79149,23.61469 -9.79143,9.79145 -23.67228,9.79145 -13.82325,0 -23.61469,-9.79145 -9.79148,-9.79147 -9.79148,-23.61469 0,-13.88085 9.79148,-23.67232 z" />
      <path
         inkscape:connector-curvature="0"
         id="path4522-9-3-9"
         style="font-style:normal;font-variant:normal;font-weight:normal;font-stretch:normal;font-size:417.9624939px;line-height:50%;font-family:'Typo Hoop Demo';-inkscape-font-specification:'Typo Hoop Demo, Normal';text-align:center;letter-spacing:0px;word-spacing:0px;writing-mode:lr-tb;text-anchor:middle;fill:#2d2d2d;fill-opacity:1;stroke:none;stroke-width:0.20000002;stroke-linecap:butt;stroke-linejoin:miter;stroke-miterlimit:4;stroke-dasharray:none;stroke-opacity:1"
         d="m 73.964365,-278.64777 q 0,3.45581 -2.41906,5.87488 -2.41909,2.41907 -5.87489,2.41907 -3.4558,0 -5.87489,-2.41907 -2.41905,-2.41907 -2.41905,-5.87488 v -51.72194 q 0,-13.82325 9.79146,-23.61472 9.79146,-9.79145 23.61469,-9.79145 13.880865,0 23.672295,9.79145 9.79149,9.79147 9.79149,23.61472 0,13.88082 -9.79149,23.67229 -9.79143,9.79145 -23.672295,9.79145 -9.04271,0 -16.81826,-4.55013 z m 16.81826,-68.54021 q -6.96923,0 -11.86494,4.8957 -4.95332,4.95334 -4.95332,11.92257 0,6.96922 4.95332,11.92254 4.89571,4.95334 11.86494,4.95334 6.96924,0 11.922545,-4.95334 4.95332,-4.95332 4.95332,-11.92254 0,-6.96923 -4.95332,-11.92257 -4.953305,-4.8957 -11.922545,-4.8957 z" />
      <path
         sodipodi:nodetypes="csccccccscscscscccccscccsccssssccccsscccscccsccc"
         inkscape:connector-curvature="0"
         id="path4600-3-3-5"
         style="font-style:normal;font-variant:normal;font-weight:500;font-stretch:normal;font-size:1090.89562988px;line-height:1.25;font-family:Cartoon;-inkscape-font-specification:'Cartoon, Medium';text-align:start;letter-spacing:0px;word-spacing:0px;writing-mode:lr-tb;text-anchor:start;fill:#0fa0fa;fill-opacity:1;stroke:none;stroke-width:0.26458338"
         d="m -61.103835,-245.70676 c -2.95047,0.89794 -5.96508,1.34693 -9.04381,1.34693 -4.36158,0 -9.36456,-0.89798 -15.00892,-2.6939 -3.72017,-1.15454 -9.10796,-3.20703 -16.163435,-6.15749 -9.6211,-4.10501 -18.66491,-11.60947 -27.13149,-22.51338 -7.69688,-10.1342 -15.32961,-20.26841 -22.89821,-30.40264 -1.28282,0 -2.43733,0.96209 -3.46358,2.88631 -1.41108,2.8222 -2.43735,5.58027 -3.07876,8.27417 -0.51311,2.56562 -0.76967,5.32367 -0.76967,8.27413 0,2.30906 0.12827,5.70851 0.38483,10.19836 0.38484,4.48984 0.57726,7.4403 0.57726,8.85139 0,1.53938 0.44899,4.42572 1.34696,8.659 0.51311,2.43735 0.76968,4.04086 0.76968,4.81053 0,2.56563 -1.02624,4.10501 -3.07873,4.61815 -2.05252,0.51311 -3.72017,0.76967 -5.00299,0.76967 -1.53938,0 -3.20703,-0.19242 -5.00295,-0.57725 -1.79595,-0.51314 -4.16916,-1.15455 -7.11962,-1.92422 -2.82219,-0.89798 -5.83681,-1.8601 -9.04384,-2.88635 -3.07873,-1.41108 -5.0671,-3.65602 -5.96508,-6.73475 -2.82219,-10.13423 -4.93883,-22.51338 -6.34991,-37.13743 -1.28281,-14.75234 -1.92422,-30.08195 -1.92422,-45.98882 0,-20.78157 0.96212,-39.31821 2.88634,-55.60994 1.92422,-16.2917 4.82716,-24.63343 6.1575,-25.59211 2.30905,-0.76968 4.04086,-1.28279 5.19537,-1.53935 2.56563,-0.64141 5.0671,-0.96213 7.50446,-0.96213 5.90096,0 11.48119,2.05249 16.74072,6.1575 1.41108,1.02624 2.3732,2.75804 2.88631,5.1954 0.51314,2.43735 0.76971,5.51609 0.76971,9.23626 0,4.74638 -0.57726,12.25084 -1.7318,22.51334 -1.15455,10.26251 -1.73181,16.93314 -1.73181,20.01188 0,4.74641 0.83383,7.11962 2.50148,7.11962 0.76971,0 1.79595,-0.51314 3.07876,-1.53938 3.33531,-2.6939 7.95342,-9.74937 13.85438,-21.16642 5.00298,-9.87764 10.19835,-19.7553 15.58617,-29.63297 5.38782,-10.00593 9.92463,-14.88406 11.72055,-15.01233 1.79592,-0.25657 2.26209,-0.63799 3.28834,-0.76626 1.02624,-0.12827 2.05251,-0.19242 3.07876,-0.19242 2.82219,0 5.58024,0.32072 8.274135,0.96212 2.8222,0.51311 7.31205,1.92422 13.46954,4.23328 4.10501,1.41108 8.27413,2.75805 12.50741,4.04086 4.23328,1.79592 6.34992,4.61812 6.34992,8.46655 0,2.95047 -4.16913,8.91555 -12.50742,17.89524 -8.33828,8.85142 -16.67656,17.76696 -25.014855,26.74665 -10.26247,11.54532 -16.99725,21.03811 -20.20429,28.47842 -0.25656,0.76971 -0.38483,1.41111 -0.38483,1.92422 0,4.87469 6.7989,14.36752 20.39671,28.47846 12.186725,11.80188 24.373445,23.60374 36.560165,35.40562 5.27668,8.86825 21.30998,19.93494 6.73476,23.47548 z" />
    </g>
  </g>
</svg>
