<?xml version="1.0" encoding="UTF-8" standalone="no"?>
<!-- Created with Inkscape (http://www.inkscape.org/) -->

<svg
        xmlns:dc="http://purl.org/dc/elements/1.1/"
        xmlns:cc="http://creativecommons.org/ns#"
        xmlns:rdf="http://www.w3.org/1999/02/22-rdf-syntax-ns#"
        xmlns="http://www.w3.org/2000/svg"
        xmlns:sodipodi="http://sodipodi.sourceforge.net/DTD/sodipodi-0.dtd"
        xmlns:inkscape="http://www.inkscape.org/namespaces/inkscape"
        width="3.1295199mm"
        height="3.0323901mm"
        viewBox="0 0 3.1295199 3.0323901"
        version="1.1"
        id="svg6085"
        inkscape:version="0.92.1 r15371"
        sodipodi:docname="search.svg">
  <defs
     id="defs6079" />
  <sodipodi:namedview
     id="base"
     pagecolor="#ffffff"
     bordercolor="#666666"
     borderopacity="1.0"
     inkscape:pageopacity="0.0"
     inkscape:pageshadow="2"
     inkscape:zoom="22.4"
     inkscape:cx="-6.4560649"
     inkscape:cy="2.5827268"
     inkscape:document-units="mm"
     inkscape:current-layer="layer1"
     showgrid="false"
     fit-margin-top="0"
     fit-margin-left="0"
     fit-margin-right="0"
     fit-margin-bottom="0"
     inkscape:window-width="1366"
     inkscape:window-height="705"
     inkscape:window-x="-8"
     inkscape:window-y="-8"
     inkscape:window-maximized="1" />
  <metadata
     id="metadata6082">
    <rdf:RDF>
      <cc:Work
         rdf:about="">
        <dc:format>image/svg+xml</dc:format>
        <dc:type
           rdf:resource="http://purl.org/dc/dcmitype/StillImage" />
        <dc:title></dc:title>
      </cc:Work>
    </rdf:RDF>
  </metadata>
  <g
     inkscape:label="Camada 1"
     inkscape:groupmode="layer"
     id="layer1"
     transform="translate(-96.70905,9.920957)">
    <path
       inkscape:connector-curvature="0"
       id="circle6170-8-6-9-3-5-6"
       d="m 98.78023,-9.920957 c -0.5845,0 -1.05833,0.4738301 -1.05833,1.05833 2.7e-4,0.1971 0.0556,0.39022 0.15969,0.55758 l -1.17254,1.2340499 0.19172,0.1824302 1.14928,-1.2097601 c 0.19654,0.18825 0.45804,0.29355 0.73018,0.29403 0.5845,0 1.05834,-0.47383 1.05834,-1.05833 0,-0.5844999 -0.47384,-1.05833 -1.05834,-1.05833 z m 0,0.27027 c 0.44751,0 0.79523,0.33807 0.79523,0.78558 -1e-5,0.4475 -0.34772,0.83498 -0.79523,0.83498 -0.44751,-10e-6 -0.82528,-0.38748 -0.82528,-0.83498 0,-0.44751 0.37777,-0.78558 0.82528,-0.78558 z"
       style="fill:#2d2d2d;fill-opacity:1;stroke-width:0.26458332"
       sodipodi:nodetypes="cccccccccccccc" />
  </g>
</svg>
